<?xml version="1.0" encoding="UTF-8" standalone="no"?>
<!-- Created with Inkscape (http://www.inkscape.org/) -->

<svg
   width="266.73123mm"
   height="186.29956mm"
   viewBox="0 0 266.73123 186.29956"
   version="1.1"
   id="svg1"
   inkscape:version="1.4.2 (f4327f4, 2025-05-13)"
   sodipodi:docname="heartslice.svg"
   xmlns:inkscape="http://www.inkscape.org/namespaces/inkscape"
   xmlns:sodipodi="http://sodipodi.sourceforge.net/DTD/sodipodi-0.dtd"
   xmlns="http://www.w3.org/2000/svg"
   xmlns:svg="http://www.w3.org/2000/svg">
  <sodipodi:namedview
     id="namedview1"
     pagecolor="#505050"
     bordercolor="#ffffff"
     borderopacity="1"
     inkscape:showpageshadow="0"
     inkscape:pageopacity="0"
     inkscape:pagecheckerboard="1"
     inkscape:deskcolor="#d1d1d1"
     inkscape:document-units="mm"
     inkscape:zoom="0.54557103"
     inkscape:cx="654.36026"
     inkscape:cy="263.02716"
     inkscape:window-width="1366"
     inkscape:window-height="745"
     inkscape:window-x="-8"
     inkscape:window-y="-8"
     inkscape:window-maximized="1"
     inkscape:current-layer="layer1" />
  <defs
     id="defs1" />
  <g
     inkscape:label="Layer 1"
     inkscape:groupmode="layer"
     id="layer1"
     transform="translate(-12.548469,6.775258)">
    <path
       id="path11"
       style="fill:none;stroke:#000000;stroke-width:0.529167;stroke-linecap:round;stroke-linejoin:round"
       d="m 54.702397,130.58011 c -1.15067,-1.00919 -1.87493,-2.49162 -1.87493,-4.14943 V 97.000604 c 0,-2.38155 3.59355,-3.37479 3.60097,-5.67635 l 0.002,-0.61983 c 0.006,-1.82519 -1.68136,-1.87698 -1.68136,-3.87872 v -3.10176 c 0,-2.5543 2.98882,-4.61065 6.70138,-4.61065 h 33.07443 c 3.71256,0 6.701383,2.2881 6.701383,4.0699"
       sodipodi:nodetypes="cssssssssc" />
    <path
       style="baseline-shift:baseline;display:inline;overflow:visible;opacity:1;vector-effect:none;fill:#008080;stroke-linecap:round;stroke-linejoin:round;enable-background:accumulate;stop-color:#000000;stop-opacity:1"
       d="m 83.154297,96.814453 c -3.06395,0.0793 -5.961447,1.033486 -8.21875,2.464844 -5.742262,3.641163 -9.470703,8.817483 -9.470703,14.654293 0,2.93541 1.034006,5.50007 2.77539,7.63477 1.741385,2.1347 4.160521,3.86916 7.003907,5.38281 7.456918,3.96965 25.233579,9.52267 26.018279,6.91768 0.18698,-0.62292 -4.114205,-1.55656 -4.737029,-1.74385 -7.494607,-2.24553 -14.833782,-4.41117 -20.173829,-7.25391 -2.670023,-1.42136 -4.827726,-3.00636 -6.285156,-4.79296 -1.457429,-1.78661 -2.246093,-3.74513 -2.246094,-6.14454 0,-4.83278 3.092423,-9.3151 8.376954,-12.66601 2.50367,-1.587581 6.144996,-2.518345 9.652343,-1.904299 8.541372,1.495379 16.905471,17.020939 11.384766,6.228519 -2.670342,-5.20712 -6.814972,-7.821855 -10.978516,-8.550784 -1.040885,-0.182233 -2.080245,-0.252997 -3.101562,-0.226563 z"
       id="path2"
       sodipodi:nodetypes="sssssccssssscss" />
    <path
       id="path12"
       style="fill:#000000;stroke:#000000;stroke-width:0.529167;stroke-linecap:round;stroke-linejoin:round"
       d="m 96.112387,81.494544 h -33.07443 c -3.71256,0 -6.70138,2.05635 -6.70138,4.61065 v 3.10176 c 0,2.5543 -0.11985,4.08896 3.59271,4.08896 -3.05493,0 -5.51432,3.03102 -5.51432,6.08594 v 29.430076 c 0,0.61901 0.10098,1.21358 0.28743,1.76818 -1.15067,-1.00919 -1.87493,-2.49162 -1.87493,-4.14943 V 97.000604 c 0,-2.38155 1.49467,-4.83138 3.1041,-5.71776 -0.69905,-0.88089 -1.18244,-1.95965 -1.18244,-4.45714 v -3.10176 c 0,-2.5543 2.98882,-4.61065 6.70138,-4.61065 h 33.07443 c 3.38742,0 6.172323,1.71194 6.634133,3.95206 -1.226523,-0.96392 -3.029803,-1.57081 -5.046683,-1.57081 z"
       sodipodi:nodetypes="sssscsscsscsssscs" />
    <path
       id="path13"
       style="fill:none;stroke:#000000;stroke-width:0.529167;stroke-linecap:round;stroke-linejoin:round"
       d="m 104.73542,99.381864 v 29.430066 c 0,3.05493 -2.45939,5.51431 -5.514323,5.51431 h -39.29181 c -3.05493,0 -5.51432,-2.45938 -5.51432,-5.51431 V 99.381854 c 0,-3.05492 2.45939,-6.08594 5.51432,-6.08594 -3.71256,0 -3.59271,-1.53466 -3.59271,-4.08896 v -3.10176 c 0,-2.5543 2.98882,-4.61065 6.70138,-4.61065 h 33.07443 c 3.71256,0 6.701383,2.05635 6.701383,4.61065 v 3.10176 c 0,2.5543 0.11989,4.6606 -3.592673,4.6606 3.054933,0 5.514323,2.45938 5.514323,5.51431 z"
       sodipodi:nodetypes="sssssscsssssscs" />
    <path
       style="fill:none;stroke:#008080;stroke-width:0.66126;stroke-linecap:round;stroke-linejoin:round"
       d="m 155.29257,158.63402 c 3.82256,-7.45391 11.45037,-7.08777 15.62936,-4.43787 4.17898,2.64989 6.76374,6.3107 6.76374,10.35431 0,8.08723 -11.03882,11.24126 -22.3931,14.64322"
       id="path21" />
    <path
       style="fill:none;stroke:#008080;stroke-width:2.35608;stroke-linecap:round;stroke-linejoin:round;stroke-dasharray:none"
       d="m 43.270087,133.25309 c -14.979885,-4.48826 -29.543578,-8.64942 -29.543578,-19.31904 0,-5.3348 3.410115,-10.16457 8.923511,-13.66061 5.513408,-3.496056 15.576903,-3.979112 20.620067,5.85496"
       id="path3" />
    <g
       id="g8">
      <path
         style="baseline-shift:baseline;display:inline;overflow:visible;vector-effect:none;fill:#008080;stroke-width:0.86233;stroke-linecap:round;stroke-linejoin:round;enable-background:accumulate;stop-color:#000000"
         d="m 91.453336,162.23169 c 3.040917,-0.0589 5.624515,-0.76768 7.408675,-1.83091 4.538659,-2.70469 6.551269,-6.5497 4.611929,-10.88534 -0.97531,-2.18045 -2.86257,-4.0855 -5.315112,-5.67117 -2.452548,-1.58568 -5.450596,-2.87405 -8.799987,-3.9984 -8.783941,-2.9487 -28.424888,-7.07353 -28.344905,-5.13852 0.01979,0.46271 4.635843,1.15623 5.321566,1.29535 8.248827,1.668 16.315492,3.27666 22.605847,5.38827 3.145179,1.0558 5.831845,2.23315 7.884466,3.56025 2.052625,1.32711 3.492885,2.78192 4.290115,4.56422 1.60573,3.58983 -7.5e-4,6.91934 -4.177629,9.40843 -1.978891,1.17927 -5.314906,1.87065 -9.030073,1.41453 -9.047465,-1.11078 -22.579136,-12.64331 -13.466572,-4.6266 4.403344,3.86789 9.421228,5.81014 13.831476,6.3516 1.102565,0.13536 2.166562,0.18792 3.180204,0.16829 z"
         id="path5"
         sodipodi:nodetypes="sssssccssssscss" />
      <g
         id="g7"
         transform="matrix(-1,0,1.1229276,1,9.422962,0)">
        <path
           id="path4"
           style="fill:none;stroke:#000000;stroke-width:0.456316;stroke-linecap:round;stroke-linejoin:round"
           d="m 108.71708,137.15026 c 1.48723,0.74963 2.70482,1.85079 3.25564,3.08223 l 9.77842,21.86092 c 0.79129,1.76904 -2.47613,2.50683 -1.71885,4.21645 l 0.20394,0.46041 c 0.60043,1.35577 2.30683,1.39424 2.97192,2.88115 l 1.03059,2.30402 c 0.84869,1.89735 -1.46012,3.42483 -5.1767,3.42483 H 85.951807 c -3.716577,0 -7.468883,-1.69962 -8.060903,-3.02316"
           sodipodi:nodetypes="cssssssssc" />
        <path
           id="path6"
           style="fill:#000000;stroke:#000000;stroke-width:0.456316;stroke-linecap:round;stroke-linejoin:round"
           d="m 83.571397,173.61145 h 33.110223 c 3.71659,0 6.0254,-1.52747 5.17671,-3.42483 l -1.03059,-2.30401 c -0.84869,-1.89736 -1.23861,-3.03732 -4.95519,-3.03732 3.05824,0 4.5132,-2.25147 3.49818,-4.52069 l -9.77842,-21.86092 c -0.20567,-0.45981 -0.50431,-0.90146 -0.87523,-1.31342 1.48723,0.74963 4.28518,3.25815 4.836,4.48959 l 9.77842,21.86092 c 0.7913,1.76904 -1.47138,2.18144 -2.78804,2.83985 0.99249,0.65433 3.41519,2.863 4.245,4.71816 l 1.03059,2.30402 c 0.84869,1.89735 -1.46012,3.42483 -5.1767,3.42483 H 87.532118 c -3.391085,0 -10.076083,-3.73283 -11.282693,-5.39681 2.505671,1.76983 5.30291,2.22063 7.321972,2.22063 z"
           sodipodi:nodetypes="sssscsscsscsssscs" />
        <path
           id="path7"
           style="fill:none;stroke:#000000;stroke-width:0.456316;stroke-linecap:round;stroke-linejoin:round"
           d="m 68.995799,160.32459 -9.778412,-21.86091 c -1.015029,-2.26923 0.629871,-4.09608 3.688116,-4.09608 h 39.334347 c 3.05823,0 6.33744,1.82685 7.35246,4.09608 l 9.77842,21.86092 c 1.01502,2.26922 -0.43994,4.52069 -3.49818,4.52069 3.71658,0 4.1065,1.13996 4.95519,3.03732 l 1.03059,2.30401 c 0.84869,1.89736 -1.46012,3.42483 -5.17671,3.42483 H 83.571397 c -3.716577,0 -7.391882,-1.52747 -8.240572,-3.42483 l -1.030589,-2.30401 c -0.848689,-1.89736 -1.668547,-3.46194 2.04804,-3.46194 -3.058245,0 -6.337448,-1.82685 -7.352477,-4.09608 z"
           sodipodi:nodetypes="sssssscsssssscs" />
      </g>
    </g>
    <g
       id="g15"
       transform="translate(153.19379,-34.660417)">
      <path
         style="baseline-shift:baseline;display:inline;overflow:visible;vector-effect:none;fill:#008080;stroke-width:0.86233;stroke-linecap:round;stroke-linejoin:round;enable-background:accumulate;stop-color:#000000"
         d="m 91.453336,162.23169 c 3.040917,-0.0589 5.624515,-0.76768 7.408675,-1.83091 4.538659,-2.70469 6.551269,-6.5497 4.611929,-10.88534 -0.97531,-2.18045 -2.86257,-4.0855 -5.315112,-5.67117 -2.452548,-1.58568 -5.450596,-2.87405 -8.799987,-3.9984 -8.783941,-2.9487 -28.424888,-7.07353 -28.344905,-5.13852 0.01979,0.46271 4.635843,1.15623 5.321566,1.29535 8.248827,1.668 16.315492,3.27666 22.605847,5.38827 3.145179,1.0558 5.831845,2.23315 7.884466,3.56025 2.052625,1.32711 3.492885,2.78192 4.290115,4.56422 1.60573,3.58983 -7.5e-4,6.91934 -4.177629,9.40843 -1.978891,1.17927 -5.314906,1.87065 -9.030073,1.41453 -9.047465,-1.11078 -22.579136,-12.64331 -13.466572,-4.6266 4.403344,3.86789 9.421228,5.81014 13.831476,6.3516 1.102565,0.13536 2.166562,0.18792 3.180204,0.16829 z"
         id="path8"
         sodipodi:nodetypes="sssssccssssscss" />
      <g
         id="g14"
         transform="matrix(-1,0,1.1229276,1,9.422962,0)">
        <path
           id="path9"
           style="fill:none;stroke:#000000;stroke-width:0.456316;stroke-linecap:round;stroke-linejoin:round"
           d="m 108.71708,137.15026 c 1.48723,0.74963 2.70482,1.85079 3.25564,3.08223 l 9.77842,21.86092 c 0.79129,1.76904 -2.47613,2.50683 -1.71885,4.21645 l 0.20394,0.46041 c 0.60043,1.35577 2.30683,1.39424 2.97192,2.88115 l 1.03059,2.30402 c 0.84869,1.89735 -1.46012,3.42483 -5.1767,3.42483 H 85.951807 c -3.716577,0 -7.468883,-1.69962 -8.060903,-3.02316"
           sodipodi:nodetypes="cssssssssc" />
        <path
           id="path10"
           style="fill:#000000;stroke:#000000;stroke-width:0.456316;stroke-linecap:round;stroke-linejoin:round"
           d="m 83.571397,173.61145 h 33.110223 c 3.71659,0 6.0254,-1.52747 5.17671,-3.42483 l -1.03059,-2.30401 c -0.84869,-1.89736 -1.23861,-3.03732 -4.95519,-3.03732 3.05824,0 4.5132,-2.25147 3.49818,-4.52069 l -9.77842,-21.86092 c -0.20567,-0.45981 -0.50431,-0.90146 -0.87523,-1.31342 1.48723,0.74963 4.28518,3.25815 4.836,4.48959 l 9.77842,21.86092 c 0.7913,1.76904 -1.47138,2.18144 -2.78804,2.83985 0.99249,0.65433 3.41519,2.863 4.245,4.71816 l 1.03059,2.30402 c 0.84869,1.89735 -1.46012,3.42483 -5.1767,3.42483 H 87.532118 c -3.391085,0 -10.076083,-3.73283 -11.282693,-5.39681 2.505671,1.76983 5.30291,2.22063 7.321972,2.22063 z"
           sodipodi:nodetypes="sssscsscsscsssscs" />
        <path
           id="path14"
           style="fill:none;stroke:#000000;stroke-width:0.456316;stroke-linecap:round;stroke-linejoin:round"
           d="m 68.995799,160.32459 -9.778412,-21.86091 c -1.015029,-2.26923 0.629871,-4.09608 3.688116,-4.09608 h 39.334347 c 3.05823,0 6.33744,1.82685 7.35246,4.09608 l 9.77842,21.86092 c 1.01502,2.26922 -0.43994,4.52069 -3.49818,4.52069 3.71658,0 4.1065,1.13996 4.95519,3.03732 l 1.03059,2.30401 c 0.84869,1.89736 -1.46012,3.42483 -5.17671,3.42483 H 83.571397 c -3.716577,0 -7.391882,-1.52747 -8.240572,-3.42483 l -1.030589,-2.30401 c -0.848689,-1.89736 -1.668547,-3.46194 2.04804,-3.46194 -3.058245,0 -6.337448,-1.82685 -7.352477,-4.09608 z"
           sodipodi:nodetypes="sssssscsssssscs" />
      </g>
    </g>
    <g
       id="g19"
       transform="matrix(-1,0,0,1,292.18519,-34.925001)">
      <path
         style="baseline-shift:baseline;display:inline;overflow:visible;vector-effect:none;fill:#008080;stroke-width:0.86233;stroke-linecap:round;stroke-linejoin:round;enable-background:accumulate;stop-color:#000000"
         d="m 91.453336,162.23169 c 3.040917,-0.0589 5.624515,-0.76768 7.408675,-1.83091 4.538659,-2.70469 6.551269,-6.5497 4.611929,-10.88534 -0.97531,-2.18045 -2.86257,-4.0855 -5.315112,-5.67117 -2.452548,-1.58568 -5.450596,-2.87405 -8.799987,-3.9984 -8.783941,-2.9487 -28.424888,-7.07353 -28.344905,-5.13852 0.01979,0.46271 4.635843,1.15623 5.321566,1.29535 8.248827,1.668 16.315492,3.27666 22.605847,5.38827 3.145179,1.0558 5.831845,2.23315 7.884466,3.56025 2.052625,1.32711 3.492885,2.78192 4.290115,4.56422 1.60573,3.58983 -7.5e-4,6.91934 -4.177629,9.40843 -1.978891,1.17927 -5.314906,1.87065 -9.030073,1.41453 -9.047465,-1.11078 -22.579136,-12.64331 -13.466572,-4.6266 4.403344,3.86789 9.421228,5.81014 13.831476,6.3516 1.102565,0.13536 2.166562,0.18792 3.180204,0.16829 z"
         id="path15"
         sodipodi:nodetypes="sssssccssssscss" />
      <g
         id="g18"
         transform="matrix(-1,0,1.1229276,1,9.422962,0)">
        <path
           id="path16"
           style="fill:none;stroke:#000000;stroke-width:0.456316;stroke-linecap:round;stroke-linejoin:round"
           d="m 108.71708,137.15026 c 1.48723,0.74963 2.70482,1.85079 3.25564,3.08223 l 9.77842,21.86092 c 0.79129,1.76904 -2.47613,2.50683 -1.71885,4.21645 l 0.20394,0.46041 c 0.60043,1.35577 2.30683,1.39424 2.97192,2.88115 l 1.03059,2.30402 c 0.84869,1.89735 -1.46012,3.42483 -5.1767,3.42483 H 85.951807 c -3.716577,0 -7.468883,-1.69962 -8.060903,-3.02316"
           sodipodi:nodetypes="cssssssssc" />
        <path
           id="path17"
           style="fill:#000000;stroke:#000000;stroke-width:0.456316;stroke-linecap:round;stroke-linejoin:round"
           d="m 83.571397,173.61145 h 33.110223 c 3.71659,0 6.0254,-1.52747 5.17671,-3.42483 l -1.03059,-2.30401 c -0.84869,-1.89736 -1.23861,-3.03732 -4.95519,-3.03732 3.05824,0 4.5132,-2.25147 3.49818,-4.52069 l -9.77842,-21.86092 c -0.20567,-0.45981 -0.50431,-0.90146 -0.87523,-1.31342 1.48723,0.74963 4.28518,3.25815 4.836,4.48959 l 9.77842,21.86092 c 0.7913,1.76904 -1.47138,2.18144 -2.78804,2.83985 0.99249,0.65433 3.41519,2.863 4.245,4.71816 l 1.03059,2.30402 c 0.84869,1.89735 -1.46012,3.42483 -5.1767,3.42483 H 87.532118 c -3.391085,0 -10.076083,-3.73283 -11.282693,-5.39681 2.505671,1.76983 5.30291,2.22063 7.321972,2.22063 z"
           sodipodi:nodetypes="sssscsscsscsssscs" />
        <path
           id="path18"
           style="fill:none;stroke:#000000;stroke-width:0.456316;stroke-linecap:round;stroke-linejoin:round"
           d="m 68.995799,160.32459 -9.778412,-21.86091 c -1.015029,-2.26923 0.629871,-4.09608 3.688116,-4.09608 h 39.334347 c 3.05823,0 6.33744,1.82685 7.35246,4.09608 l 9.77842,21.86092 c 1.01502,2.26922 -0.43994,4.52069 -3.49818,4.52069 3.71658,0 4.1065,1.13996 4.95519,3.03732 l 1.03059,2.30401 c 0.84869,1.89736 -1.46012,3.42483 -5.17671,3.42483 H 83.571397 c -3.716577,0 -7.391882,-1.52747 -8.240572,-3.42483 l -1.030589,-2.30401 c -0.848689,-1.89736 -1.668547,-3.46194 2.04804,-3.46194 -3.058245,0 -6.337448,-1.82685 -7.352477,-4.09608 z"
           sodipodi:nodetypes="sssssscsssssscs" />
      </g>
    </g>
    <path
       id="path28"
       style="baseline-shift:baseline;display:inline;overflow:visible;vector-effect:none;fill:#008080;stroke-width:0.86233;stroke-linecap:round;stroke-linejoin:round;enable-background:accumulate;stop-color:#000000"
       d="m 237.91611,56.163836 c 0.0268,0.520617 -0.0161,1.092746 -0.13384,1.62574 1.52449,0.418555 2.98068,0.855624 4.3527,1.316199 3.14518,1.0558 5.83216,2.232889 7.88479,3.559989 2.05262,1.32711 3.49295,2.781763 4.29018,4.564063 1.60573,3.58983 -0.001,6.919638 -4.17804,9.408728 -1.97889,1.17927 -5.31477,1.870504 -9.02994,1.414384 -4.28669,-0.526288 -9.58001,-3.3924 -12.99456,-5.410006 h -5.1e-4 l -0.50746,0.751892 c 0.012,0.01056 0.0241,0.0209 0.0362,0.03152 4.40334,3.86789 9.42095,5.81009 13.8312,6.35155 1.10257,0.13536 2.16651,0.188095 3.18016,0.168465 3.04091,-0.0589 5.62469,-0.767666 7.40885,-1.830896 4.53866,-2.70469 6.55147,-6.55 4.61213,-10.88564 -0.97531,-2.18045 -2.8629,-4.085302 -5.31544,-5.670972 -2.45255,-1.58568 -5.45059,-2.873855 -8.79998,-3.998205 -1.33147,-0.446964 -2.91253,-0.921005 -4.63641,-1.396814 z" />
    <path
       id="path29"
       style="fill:none;stroke:#000000;stroke-width:0.456316;stroke-linecap:round;stroke-linejoin:round"
       d="m 207.90948,54.86484 c -0.64545,0.74963 -0.62651,1.85079 0.20548,3.08223 l 14.76981,21.86092 c 1.19522,1.76904 5.29112,2.50683 6.45362,4.21645 l 0.31307,0.46041 c 0.922,1.35577 -0.7412,1.39424 0.2634,2.88115 l 1.55666,2.30402 c 1.2819,1.89735 5.30596,3.42483 9.02254,3.42483 h 33.11023 c 3.71658,0 5.56033,-1.69962 4.66611,-3.02316"
       sodipodi:nodetypes="cssssssssc" />
    <path
       id="path30"
       style="fill:#000000;stroke:#000000;stroke-width:0.456316;stroke-linecap:round;stroke-linejoin:round"
       d="m 223.92058,78.840488 -1.32033,1.953886 0.28473,0.421163 c 1.1952,1.76904 3.9209,2.18121 5.9769,2.83962 -0.25772,0.65433 -0.20024,2.862898 1.05317,4.718058 l 1.55649,2.304252 c 1.2819,1.89735 5.30613,3.424597 9.02271,3.424597 h 33.11012 c 3.39109,0 5.88434,-3.73259 5.22242,-5.39657 -0.51828,1.76983 -2.80907,2.220537 -4.82813,2.220537 h -33.11064 c -3.71659,0 -7.74028,-1.527238 -9.02219,-3.424598 l -1.55701,-2.304252 c -1.28191,-1.89736 -2.17197,-3.03754 1.54461,-3.03754 -2.69624,0 -6.11151,-1.749832 -7.93285,-3.719153 z" />
    <path
       id="path31"
       style="fill:none;stroke:#000000;stroke-width:0.456316;stroke-linecap:round;stroke-linejoin:round"
       d="m 235.90124,52.082431 c 1.24647,0.431757 1.82406,1.357828 1.56528,2.519226 l 0.003,-0.0016 c 0.34693,0.40292 0.50188,0.907303 0.44184,1.478979 0.0679,1.016372 -0.13656,2.254418 -0.64751,3.010669 l -13.34337,19.750733 c 1.82134,1.969321 5.23661,3.719153 7.93285,3.719153 -3.71658,0 -2.82652,1.14018 -1.54461,3.03754 l 1.55701,2.304252 c 1.28191,1.89736 5.3056,3.424598 9.02219,3.424598 h 33.11064 c 3.71658,0 5.67647,-1.527238 4.39456,-3.424598 l -1.55649,-2.304252 c -1.28191,-1.89736 -2.21897,-3.461804 -5.93556,-3.461804 3.05825,0 4.28596,-1.827161 2.75281,-4.096391 L 258.88382,56.178305 c -1.53315,-2.26923 -5.2291,-4.095874 -8.28735,-4.095874 z" />
    <path
       id="path35"
       style="fill:#ff0000;stroke:#ff0000;stroke-width:0.456316;stroke-linecap:round;stroke-linejoin:round"
       d="m 171.72512,77.774586 14.76981,-21.86091 c 1.53315,-2.26923 5.22947,-4.09608 8.28772,-4.09608 h 39.33434 c 3.05823,0 4.28602,1.82685 2.75286,4.09608 l -14.76981,21.86092 c -1.53315,2.26922 -5.51635,4.52069 -8.57459,4.52069 3.71658,0 2.82641,1.13996 1.5445,3.03732 l -1.55664,2.30401 c -1.28191,1.89736 -5.30596,3.42483 -9.02255,3.42483 h -33.11022 c -3.71658,0 -5.67665,-1.52747 -4.39474,-3.42483 l 1.55665,-2.30401 c 1.28191,-1.89736 2.21896,-3.46194 5.93555,-3.46194 -3.05825,0 -4.28603,-1.82685 -2.75288,-4.09608 z m -0.34458,13.28686 h 33.11022 c 3.71659,0 7.74064,-1.52747 9.02255,-3.42483 l 1.55664,-2.30401 c 1.28191,-1.89736 2.17208,-3.03732 -1.5445,-3.03732 3.05824,0 7.04144,-2.25147 8.57459,-4.52069 l 14.76981,-21.86092 c 0.31067,-0.45981 0.50797,-0.90146 0.59965,-1.31342 0.64545,0.74963 0.62651,3.25815 -0.20549,4.48959 l -14.76981,21.86092 c -1.1952,1.76904 -3.92098,2.18144 -5.97698,2.83985 0.25772,0.65433 0.20025,2.863 -1.05316,4.71816 l -1.55665,2.30402 c -1.2819,1.89735 -5.30596,3.42483 -9.02254,3.42483 h -33.11023 c -3.39109,0 -5.88439,-3.73283 -5.22247,-5.39681 0.51828,1.76983 2.80931,2.22063 4.82837,2.22063 z m 66.08896,-36.46119 c 0.64545,0.74963 0.62651,1.85079 -0.20548,3.08223 l -14.76981,21.86092 c -1.19522,1.76904 -5.29112,2.50683 -6.45362,4.21645 l -0.31307,0.46041 c -0.922,1.35577 0.7412,1.39424 -0.2634,2.88115 l -1.55666,2.30402 c -1.2819,1.89735 -5.30596,3.42483 -9.02254,3.42483 h -33.11023 c -3.71658,0 -5.56033,-1.69962 -4.66611,-3.02316 m 33.62328,-10.12542 c -3.04092,-0.0589 -5.62452,-0.76768 -7.40868,-1.83091 -4.53866,-2.70469 -6.55127,-6.5497 -4.61193,-10.88534 0.97531,-2.18045 2.86257,-4.0855 5.31511,-5.67117 2.45255,-1.58568 5.4506,-2.87405 8.79999,-3.9984 8.78394,-2.9487 28.42489,-7.07353 28.34491,-5.13852 -0.0198,0.46271 -4.63585,1.15623 -5.32157,1.29535 -8.24883,1.668 -16.31549,3.27666 -22.60585,5.38827 -3.14518,1.0558 -5.83184,2.23315 -7.88446,3.56025 -2.05263,1.32711 -3.49289,2.78192 -4.29012,4.56422 -1.60573,3.58983 7.5e-4,6.91934 4.17763,9.40843 1.97889,1.17927 5.31491,1.87065 9.03008,1.41453 9.04746,-1.11078 22.57913,-12.64331 13.46656,-4.6266 -4.40336,3.86789 -9.42122,5.81014 -13.83147,6.3516 -1.10256,0.13536 -2.16657,0.18792 -3.1802,0.16829 z" />
    <path
       id="path47"
       style="baseline-shift:baseline;display:inline;overflow:visible;vector-effect:none;fill:#008080;stroke-width:0.86233;stroke-linecap:round;stroke-linejoin:round;enable-background:accumulate;stop-color:#000000"
       d="m 237.91611,-2.0444996 c 0.0268,0.520617 -0.0161,1.09274597 -0.13384,1.62573897 1.52449,0.41855499667 2.98068,0.855624 4.3527,1.3161997 3.14518,1.05580003 5.83216,2.23288903 7.88479,3.55998893 2.05262,1.327109 3.49295,2.7817628 4.29018,4.5640628 1.60573,3.5898292 -0.001,6.9196372 -4.17804,9.4087272 -1.97889,1.17927 -5.31477,1.870504 -9.02994,1.414384 -4.28669,-0.526288 -9.58001,-3.3924 -12.99456,-5.410006 h -5.1e-4 l -0.50746,0.751892 c 0.012,0.01056 0.0241,0.0209 0.0362,0.03152 4.40334,3.86789 9.42095,5.81009 13.8312,6.35155 1.10257,0.13536 2.16651,0.188095 3.18016,0.168465 3.04091,-0.0589 5.62469,-0.767666 7.40885,-1.830896 4.53866,-2.70469 6.55147,-6.55 4.61213,-10.8856392 -0.97531,-2.18045 -2.8629,-4.0853028 -5.31544,-5.6709717 -2.45255,-1.58568 -5.45059,-2.87385573 -8.79998,-3.99820473 -1.33147,-0.44696397 -2.91253,-0.92100497 -4.63641,-1.39681397 z" />
    <g
       id="g47"
       transform="matrix(-1,0,0,1,292.29124,-140.9147)">
      <path
         style="baseline-shift:baseline;display:inline;overflow:visible;vector-effect:none;fill:#008080;stroke-width:0.86233;stroke-linecap:round;stroke-linejoin:round;enable-background:accumulate;stop-color:#000000"
         d="m 91.453336,162.23169 c 3.040917,-0.0589 5.624515,-0.76768 7.408675,-1.83091 4.538659,-2.70469 6.551269,-6.5497 4.611929,-10.88534 -0.97531,-2.18045 -2.86257,-4.0855 -5.315112,-5.67117 -2.452548,-1.58568 -5.450596,-2.87405 -8.799987,-3.9984 -8.783941,-2.9487 -28.424888,-7.07353 -28.344905,-5.13852 0.01979,0.46271 4.635843,1.15623 5.321566,1.29535 8.248827,1.668 16.315492,3.27666 22.605847,5.38827 3.145179,1.0558 5.831845,2.23315 7.884466,3.56025 2.052625,1.32711 3.492885,2.78192 4.290115,4.56422 1.60573,3.58983 -7.5e-4,6.91934 -4.177629,9.40843 -1.978891,1.17927 -5.314906,1.87065 -9.030073,1.41453 -9.047465,-1.11078 -22.579136,-12.64331 -13.466572,-4.6266 4.403344,3.86789 9.421228,5.81014 13.831476,6.3516 1.102565,0.13536 2.166562,0.18792 3.180204,0.16829 z"
         id="path43"
         sodipodi:nodetypes="sssssccssssscss" />
      <g
         id="g46"
         transform="matrix(-1,0,1.1229276,1,9.422962,0)">
        <path
           id="path44"
           style="fill:none;stroke:#000000;stroke-width:0.456316;stroke-linecap:round;stroke-linejoin:round"
           d="m 108.71708,137.15026 c 1.48723,0.74963 2.70482,1.85079 3.25564,3.08223 l 9.77842,21.86092 c 0.79129,1.76904 -2.47613,2.50683 -1.71885,4.21645 l 0.20394,0.46041 c 0.60043,1.35577 2.30683,1.39424 2.97192,2.88115 l 1.03059,2.30402 c 0.84869,1.89735 -1.46012,3.42483 -5.1767,3.42483 H 85.951807 c -3.716577,0 -7.468883,-1.69962 -8.060903,-3.02316"
           sodipodi:nodetypes="cssssssssc" />
        <path
           id="path45"
           style="fill:#000000;stroke:#000000;stroke-width:0.456316;stroke-linecap:round;stroke-linejoin:round"
           d="m 83.571397,173.61145 h 33.110223 c 3.71659,0 6.0254,-1.52747 5.17671,-3.42483 l -1.03059,-2.30401 c -0.84869,-1.89736 -1.23861,-3.03732 -4.95519,-3.03732 3.05824,0 4.5132,-2.25147 3.49818,-4.52069 l -9.77842,-21.86092 c -0.20567,-0.45981 -0.50431,-0.90146 -0.87523,-1.31342 1.48723,0.74963 4.28518,3.25815 4.836,4.48959 l 9.77842,21.86092 c 0.7913,1.76904 -1.47138,2.18144 -2.78804,2.83985 0.99249,0.65433 3.41519,2.863 4.245,4.71816 l 1.03059,2.30402 c 0.84869,1.89735 -1.46012,3.42483 -5.1767,3.42483 H 87.532118 c -3.391085,0 -10.076083,-3.73283 -11.282693,-5.39681 2.505671,1.76983 5.30291,2.22063 7.321972,2.22063 z"
           sodipodi:nodetypes="sssscsscsscsssscs" />
        <path
           id="path46"
           style="fill:none;stroke:#000000;stroke-width:0.456316;stroke-linecap:round;stroke-linejoin:round"
           d="m 68.995799,160.32459 -9.778412,-21.86091 c -1.015029,-2.26923 0.629871,-4.09608 3.688116,-4.09608 h 39.334347 c 3.05823,0 6.33744,1.82685 7.35246,4.09608 l 9.77842,21.86092 c 1.01502,2.26922 -0.43994,4.52069 -3.49818,4.52069 3.71658,0 4.1065,1.13996 4.95519,3.03732 l 1.03059,2.30401 c 0.84869,1.89736 -1.46012,3.42483 -5.17671,3.42483 H 83.571397 c -3.716577,0 -7.391882,-1.52747 -8.240572,-3.42483 l -1.030589,-2.30401 c -0.848689,-1.89736 -1.668547,-3.46194 2.04804,-3.46194 -3.058245,0 -6.337448,-1.82685 -7.352477,-4.09608 z"
           sodipodi:nodetypes="sssssscsssssscs" />
      </g>
    </g>
    <path
       id="path48"
       style="fill:none;stroke:#000000;stroke-width:0.456316;stroke-linecap:round;stroke-linejoin:round"
       d="m 222.88477,21.599653 c 1.19522,1.76904 5.29112,2.50683 6.45362,4.21645 l 0.31307,0.46041 c 0.922,1.35577 -0.7412,1.39424 0.2634,2.88115 l 1.55666,2.30402 c 1.2819,1.89735 5.30596,3.42483 9.02254,3.42483 h 33.11023 c 3.71658,0 5.56033,-1.69962 4.66611,-3.02316"
       sodipodi:nodetypes="cssssssc" />
    <path
       id="path49"
       style="fill:#000000;stroke:#000000;stroke-width:0.456316;stroke-linecap:round;stroke-linejoin:round"
       d="m 223.92058,20.632151 -1.32033,1.953886 0.28473,0.421163 c 1.1952,1.76904 3.9209,2.18121 5.9769,2.83962 -0.25772,0.65433 -0.20024,2.862898 1.05317,4.718058 l 1.55649,2.304252 c 1.2819,1.89735 5.30613,3.424597 9.02271,3.424597 h 33.11012 c 3.39109,0 5.88434,-3.73259 5.22242,-5.39657 -0.51828,1.76983 -2.80907,2.220537 -4.82813,2.220537 h -33.11064 c -3.71659,0 -7.74028,-1.527238 -9.02219,-3.424598 l -1.55701,-2.304252 c -1.28191,-1.89736 -2.17197,-3.03754 1.54461,-3.03754 -2.69624,0 -6.11151,-1.749832 -7.93285,-3.719153 z" />
    <path
       id="path50"
       style="fill:none;stroke:#000000;stroke-width:0.456316;stroke-linecap:round;stroke-linejoin:round"
       d="m 235.90124,-6.1259043 c 1.24647,0.431756 1.82406,1.357827 1.56528,2.5192257 l 0.003,-0.0016 c 0.34693,0.40292 0.50188,0.907303 0.44184,1.478979 0.0679,1.016372 -0.13656,2.25441697 -0.64751,3.01066867 L 223.92048,20.632101 c 1.82134,1.969321 5.23661,3.719153 7.93285,3.719153 -3.71658,0 -2.82652,1.14018 -1.54461,3.03754 l 1.55701,2.304252 c 1.28191,1.89736 5.3056,3.424598 9.02219,3.424598 h 33.11064 c 3.71658,0 5.67647,-1.527238 4.39456,-3.424598 l -1.55649,-2.304252 c -1.28191,-1.89736 -2.21897,-3.461804 -5.93556,-3.461804 3.05825,0 4.28596,-1.827161 2.75281,-4.096391 L 258.88382,-2.0300306 c -1.53315,-2.26923 -5.2291,-4.0958737 -8.28735,-4.0958737 z" />
    <path
       id="path51"
       style="baseline-shift:baseline;display:inline;overflow:visible;vector-effect:none;fill:#008080;stroke-width:0.86233;stroke-linecap:round;stroke-linejoin:round;enable-background:accumulate;stop-color:#000000"
       d="m 237.91611,-2.0444996 c 0.0268,0.520617 -0.0161,1.09274597 -0.13384,1.62573897 1.52449,0.41855499667 2.98068,0.855624 4.3527,1.3161997 3.14518,1.05580003 5.83216,2.23288903 7.88479,3.55998893 2.05262,1.327109 3.49295,2.7817628 4.29018,4.5640628 1.60573,3.5898292 -0.001,6.9196372 -4.17804,9.4087272 -1.97889,1.17927 -5.31477,1.870504 -9.02994,1.414384 -4.28669,-0.526288 -9.58001,-3.3924 -12.99456,-5.410006 h -5.1e-4 l -0.50746,0.751892 c 0.012,0.01056 0.0241,0.0209 0.0362,0.03152 4.40334,3.86789 9.42095,5.81009 13.8312,6.35155 1.10257,0.13536 2.16651,0.188095 3.18016,0.168465 3.04091,-0.0589 5.62469,-0.767666 7.40885,-1.830896 4.53866,-2.70469 6.55147,-6.55 4.61213,-10.8856392 -0.97531,-2.18045 -2.8629,-4.0853028 -5.31544,-5.6709717 -2.45255,-1.58568 -5.45059,-2.87385573 -8.79998,-3.99820473 -1.33147,-0.44696397 -2.91253,-0.92100497 -4.63641,-1.39681397 z" />
    <g
       id="g56"
       transform="matrix(-1,0,0,1,292.29124,-140.9147)">
      <path
         style="baseline-shift:baseline;display:inline;overflow:visible;vector-effect:none;fill:#008080;stroke-width:0.86233;stroke-linecap:round;stroke-linejoin:round;enable-background:accumulate;stop-color:#000000"
         d="m 91.453336,162.23169 c 3.040917,-0.0589 5.624515,-0.76768 7.408675,-1.83091 4.538659,-2.70469 6.551269,-6.5497 4.611929,-10.88534 -0.97531,-2.18045 -2.86257,-4.0855 -5.315112,-5.67117 -2.452548,-1.58568 -5.450596,-2.87405 -8.799987,-3.9984 -8.783941,-2.9487 -28.424888,-7.07353 -28.344905,-5.13852 0.01979,0.46271 4.635843,1.15623 5.321566,1.29535 8.248827,1.668 16.315492,3.27666 22.605847,5.38827 3.145179,1.0558 5.831845,2.23315 7.884466,3.56025 2.052625,1.32711 3.492885,2.78192 4.290115,4.56422 1.60573,3.58983 -7.5e-4,6.91934 -4.177629,9.40843 -1.978891,1.17927 -5.314906,1.87065 -9.030073,1.41453 -9.047465,-1.11078 -22.579136,-12.64331 -13.466572,-4.6266 4.403344,3.86789 9.421228,5.81014 13.831476,6.3516 1.102565,0.13536 2.166562,0.18792 3.180204,0.16829 z"
         id="path52"
         sodipodi:nodetypes="sssssccssssscss" />
      <g
         id="g55"
         transform="matrix(-1,0,1.1229276,1,9.422962,0)">
        <path
           id="path53"
           style="fill:none;stroke:#000000;stroke-width:0.456316;stroke-linecap:round;stroke-linejoin:round"
           d="m 108.71708,137.15026 c 1.48723,0.74963 2.70482,1.85079 3.25564,3.08223 l 9.77842,21.86092 c 0.79129,1.76904 -2.47613,2.50683 -1.71885,4.21645 l 0.20394,0.46041 c 0.60043,1.35577 2.30683,1.39424 2.97192,2.88115 l 1.03059,2.30402 c 0.84869,1.89735 -1.46012,3.42483 -5.1767,3.42483 H 85.951807 c -3.716577,0 -7.468883,-1.69962 -8.060903,-3.02316"
           sodipodi:nodetypes="cssssssssc" />
        <path
           id="path54"
           style="fill:#000000;stroke:#000000;stroke-width:0.456316;stroke-linecap:round;stroke-linejoin:round"
           d="m 83.571397,173.61145 h 33.110223 c 3.71659,0 6.0254,-1.52747 5.17671,-3.42483 l -1.03059,-2.30401 c -0.84869,-1.89736 -1.23861,-3.03732 -4.95519,-3.03732 3.05824,0 4.5132,-2.25147 3.49818,-4.52069 l -9.77842,-21.86092 c -0.20567,-0.45981 -0.50431,-0.90146 -0.87523,-1.31342 1.48723,0.74963 4.28518,3.25815 4.836,4.48959 l 9.77842,21.86092 c 0.7913,1.76904 -1.47138,2.18144 -2.78804,2.83985 0.99249,0.65433 3.41519,2.863 4.245,4.71816 l 1.03059,2.30402 c 0.84869,1.89735 -1.46012,3.42483 -5.1767,3.42483 H 87.532118 c -3.391085,0 -10.076083,-3.73283 -11.282693,-5.39681 2.505671,1.76983 5.30291,2.22063 7.321972,2.22063 z"
           sodipodi:nodetypes="sssscsscsscsssscs" />
        <path
           id="path55"
           style="fill:none;stroke:#000000;stroke-width:0.456316;stroke-linecap:round;stroke-linejoin:round"
           d="m 68.995799,160.32459 -9.778412,-21.86091 c -1.015029,-2.26923 0.629871,-4.09608 3.688116,-4.09608 h 39.334347 c 3.05823,0 6.33744,1.82685 7.35246,4.09608 l 9.77842,21.86092 c 1.01502,2.26922 -0.43994,4.52069 -3.49818,4.52069 3.71658,0 4.1065,1.13996 4.95519,3.03732 l 1.03059,2.30401 c 0.84869,1.89736 -1.46012,3.42483 -5.17671,3.42483 H 83.571397 c -3.716577,0 -7.391882,-1.52747 -8.240572,-3.42483 l -1.030589,-2.30401 c -0.848689,-1.89736 -1.668547,-3.46194 2.04804,-3.46194 -3.058245,0 -6.337448,-1.82685 -7.352477,-4.09608 z"
           sodipodi:nodetypes="sssssscsssssscs" />
      </g>
    </g>
    <path
       id="path56"
       style="fill:none;stroke:#000000;stroke-width:0.456316;stroke-linecap:round;stroke-linejoin:round"
       d="m 222.88477,21.599653 c 1.19522,1.76904 5.29112,2.50683 6.45362,4.21645 l 0.31307,0.46041 c 0.922,1.35577 -0.7412,1.39424 0.2634,2.88115 l 1.55666,2.30402 c 1.2819,1.89735 5.30596,3.42483 9.02254,3.42483 h 33.11023 c 3.71658,0 5.56033,-1.69962 4.66611,-3.02316"
       sodipodi:nodetypes="cssssssc" />
    <path
       id="path57"
       style="fill:#000000;stroke:#000000;stroke-width:0.456316;stroke-linecap:round;stroke-linejoin:round"
       d="m 223.92058,20.632151 -1.32033,1.953886 0.28473,0.421163 c 1.1952,1.76904 3.9209,2.18121 5.9769,2.83962 -0.25772,0.65433 -0.20024,2.862898 1.05317,4.718058 l 1.55649,2.304252 c 1.2819,1.89735 5.30613,3.424597 9.02271,3.424597 h 33.11012 c 3.39109,0 5.88434,-3.73259 5.22242,-5.39657 -0.51828,1.76983 -2.80907,2.220537 -4.82813,2.220537 h -33.11064 c -3.71659,0 -7.74028,-1.527238 -9.02219,-3.424598 l -1.55701,-2.304252 c -1.28191,-1.89736 -2.17197,-3.03754 1.54461,-3.03754 -2.69624,0 -6.11151,-1.749832 -7.93285,-3.719153 z" />
    <path
       id="path58"
       style="fill:none;stroke:#000000;stroke-width:0.456316;stroke-linecap:round;stroke-linejoin:round"
       d="m 235.90124,-6.1259043 c 1.24647,0.431756 1.82406,1.357827 1.56528,2.5192257 l 0.003,-0.0016 c 0.34693,0.40292 0.50188,0.907303 0.44184,1.478979 0.0679,1.016372 -0.13656,2.25441697 -0.64751,3.01066867 L 223.92048,20.632101 c 1.82134,1.969321 5.23661,3.719153 7.93285,3.719153 -3.71658,0 -2.82652,1.14018 -1.54461,3.03754 l 1.55701,2.304252 c 1.28191,1.89736 5.3056,3.424598 9.02219,3.424598 h 33.11064 c 3.71658,0 5.67647,-1.527238 4.39456,-3.424598 l -1.55649,-2.304252 c -1.28191,-1.89736 -2.21897,-3.461804 -5.93556,-3.461804 3.05825,0 4.28596,-1.827161 2.75281,-4.096391 L 258.88382,-2.0300306 c -1.53315,-2.26923 -5.2291,-4.0958737 -8.28735,-4.0958737 z" />
  </g>
</svg>
