<?xml version="1.0" encoding="UTF-8" standalone="no"?>
<!-- Created with Inkscape (http://www.inkscape.org/) -->

<svg
   width="123.61755mm"
   height="83.648148mm"
   viewBox="0 0 123.61755 83.648148"
   version="1.1"
   id="svg1"
   sodipodi:docname="leafling.svg"
   inkscape:version="1.4.2 (f4327f4, 2025-05-13)"
   xmlns:inkscape="http://www.inkscape.org/namespaces/inkscape"
   xmlns:sodipodi="http://sodipodi.sourceforge.net/DTD/sodipodi-0.dtd"
   xmlns="http://www.w3.org/2000/svg"
   xmlns:svg="http://www.w3.org/2000/svg">
  <sodipodi:namedview
     id="namedview1"
     pagecolor="#505050"
     bordercolor="#ffffff"
     borderopacity="1"
     inkscape:showpageshadow="false"
     inkscape:pageopacity="0"
     inkscape:pagecheckerboard="true"
     inkscape:deskcolor="#696969"
     inkscape:document-units="mm"
     labelstyle="default"
     inkscape:zoom="1"
     inkscape:cx="363"
     inkscape:cy="181.5"
     inkscape:window-width="1366"
     inkscape:window-height="745"
     inkscape:window-x="-8"
     inkscape:window-y="-8"
     inkscape:window-maximized="1"
     inkscape:current-layer="layer1" />
  <defs
     id="defs1" />
  <g
     inkscape:label="Layer 1"
     inkscape:groupmode="layer"
     id="layer1"
     transform="translate(9.7895829,-103.45209)">
    <path
       style="fill:none;stroke:#000000;stroke-width:1.32292;stroke-linecap:round;stroke-dasharray:none"
       d="m 33.273722,133.05781 c -0.542975,-1.55288 -13.418291,10.26506 -11.685451,11.34809 1.375242,-0.16055 4.283711,-2.36912 7.290208,-0.87016 6.45033,3.21598 16.202881,-3.33057 15.455424,-8.59383 C 42.1147,119.31525 15.793476,129.89087 18.136056,157.3527"
       id="path5"
       sodipodi:nodetypes="ccssc" />
    <path
       style="fill:none;stroke:#000000;stroke-width:1.32292;stroke-linecap:round;stroke-linejoin:round;stroke-dasharray:none"
       d="m 14.501237,152.05861 c -6.344853,-8.0739 -15.372013,-3.93819 -21.843378,1.04288 -9.665086,-22.24802 22.879845,-18.77179 25.530156,3.99185 2.650311,22.76365 -8.802073,29.34543 -8.802073,29.34543"
       id="path7"
       sodipodi:nodetypes="cczc"
       inkscape:transform-center-x="-11.062542"
       inkscape:transform-center-y="10.742922" />
    <path
       style="fill:none;stroke:#000000;stroke-width:1.32292;stroke-linecap:round;stroke-linejoin:round;stroke-dasharray:none"
       d="m 17.97684,151.00513 c 2.769724,-20.36198 6.199491,-41.06833 -18.896621,-46.89161 l 1.399751,3.96595 c -7.367545,15.83842 6.38571,22.32286 15.863829,26.12866 -0.180182,-7.9731 -1.958015,-20.07214 -9.620478,-22.88095 -1.57493,-0.57731 -2.295241,0.9509 -2.401844,1.22125"
       id="path8"
       sodipodi:nodetypes="ccccsc" />
    <path
       id="path11"
       style="baseline-shift:baseline;display:inline;overflow:visible;opacity:1;vector-effect:none;stroke-linecap:round;stroke-linejoin:round;enable-background:accumulate;stop-color:#000000;stop-opacity:1"
       d="m 67.835136,103.45157 c -0.422675,0.0214 -0.739772,0.45153 -0.587044,0.88263 2.320698,1.25565 2.005135,4.22051 0.103161,8.41417 -3.578912,7.9351 -1.970417,13.83323 1.820561,18.00769 3.840493,4.22899 9.735195,6.81082 14.492139,8.72091 0.158923,0.0639 1.369299,1.15047 1.71694,0.32529 0.616454,-1.46326 0.180905,-4.49857 0.173941,-4.80224 -0.09103,-4.02812 -0.579936,-9.0948 -2.037085,-13.56661 -1.457149,-4.4718 -3.91373,-8.41546 -8.017599,-9.91981 -0.995142,-0.36478 -1.655806,-0.84686 -2.173876,-0.39066 -0.51807,0.45622 -0.744593,0.97143 -0.828373,1.1839 -0.133592,0.33978 0.03344,0.72344 0.373104,0.85731 0.33978,0.13359 0.723435,-0.0335 0.857312,-0.3731 0.02282,-0.0579 0.21037,-0.44272 0.472839,-0.67386 0.262469,-0.23114 0.505934,-0.38255 1.085722,-0.17002 3.558594,1.30446 5.822634,4.81463 7.215063,9.08782 1.275584,3.9146 1.74218,8.34132 1.888774,12.10159 -4.517669,-1.85524 -9.687562,-4.26304 -13.013676,-7.92562 -3.563779,-3.92429 -5.108677,-9.10649 -1.505851,-16.85168 0.115181,-1.07659 -0.592065,-2.24332 -0.9493,-3.25562 11.461521,3.00402 16.378573,9.17661 18.203023,17.15038 1.890229,8.26125 0.373916,18.47437 -1.011825,28.66182 -0.02271,0.17731 0.02765,0.35626 0.13901,0.49609 -0.002,0.0301 -0.0078,0.0577 -0.0098,0.0879 -3.079939,-8.27196 -10.278709,-13.12931 -16.560746,-13.93714 -3.790564,-0.48744 -7.320276,0.49349 -9.232511,3.19309 -1.912235,2.6996 -2.073011,6.92891 0.394808,12.60957 0.17203,0.39435 0.668779,0.52231 1.009757,0.25993 3.187996,-2.45383 6.99354,-4.67172 10.673767,-5.28908 3.680227,-0.61737 7.201531,0.25651 10.245887,4.13049 -2.129459,-4.32971 -7.077983,-5.70738 -10.464478,-5.43532 -3.753749,0.6297 -7.373759,2.74213 -10.509953,5.06067 -0.175971,-4.20892 -0.03807,-4.37919 1.439189,-6.46472 1.554456,-2.1945 4.515703,-3.09294 7.984525,-2.64687 6.866936,0.88304 13.610458,3.0015 15.033191,13.86944 0.01373,0.19195 -0.0025,0.36455 0.01395,0.55811 0.01852,0.0489 0.04286,0.0958 0.07235,0.139 1.211752,11.02936 0.0017,18.64377 -2.429176,22.95564 -3.394425,6.021 -6.087584,5.57594 -5.392436,6.78873 0.18198,0.31754 -0.3296,-0.0967 -0.01253,-0.2795 0,0 3.037853,-1.76861 5.640482,-6.38514 2.60263,-4.61652 4.826818,-12.11108 3.48816,-23.60889 -0.01288,-0.11063 -0.04984,-0.20496 -0.06408,-0.31471 -0.924873,-13.1805 4.861405,-22.23898 11.095447,-26.15448 3.165286,-1.98807 6.416006,-2.63199 8.917796,-1.92339 3.23419,0.91605 5.5001,4.67146 4.26744,6.43733 -0.84423,1.20944 -2.12997,2.3698 -3.63492,3.2737 -3.00991,1.80781 -7.59285,3.54161 -9.790612,1.09141 -1.430234,-1.59451 -1.832978,0.01 -1.83156,-0.41886 0.0066,-1.99846 2.273393,-3.25667 3.402033,-4.24701 l 2.108229,-1.43172 c 0.30768,-0.26998 -0.43936,0.11386 0.17687,0.35168 0.93015,0.35896 1.37792,-0.56373 1.25796,-0.90835 -0.0613,-0.17547 -0.21942,-0.3432 -0.38086,-0.46303 -0.49368,-0.36644 -1.19866,-0.0561 -1.34219,-0.0544 -0.28705,0.004 -0.50524,0.0863 -0.74775,0.19327 -0.48502,0.21385 -1.04387,0.56995 -1.691369,1.03715 -1.295017,0.93438 -2.911201,2.31201 -4.462776,3.77548 -1.551576,1.46347 -3.030094,3.00592 -4.03748,4.28707 -0.503693,0.64057 -0.890537,1.20535 -1.120862,1.72651 -0.115162,0.26058 -0.201019,0.51123 -0.199471,0.81029 0.0015,0.29906 0.169803,0.69297 0.470772,0.88108 0.12756,0.0796 0.278571,0.11324 0.427881,0.0956 0.98125,-0.11455 1.95338,-0.71984 3.146578,-1.08004 1.193197,-0.3602 2.460416,-0.5089 3.771346,0.14469 3.504681,1.74736 7.770281,0.83628 11.062371,-1.14101 1.64604,-0.98865 3.06175,-2.25208 4.03748,-3.64991 0.97573,-1.39784 1.52408,-2.95359 1.30638,-4.48655 -0.58185,-4.09716 -2.84937,-6.6509 -5.83375,-7.49618 -2.98439,-0.84529 -6.58326,-0.0589 -9.982853,2.07636 -3.718654,2.33563 -7.175898,6.36612 -9.394258,11.77344 0.749663,-6.78497 4.246879,-12.4362 2.915878,-18.25335 -1.976483,-8.63823 -10.741816,-16.52914 -23.464495,-19.4813 -0.06364,-0.0148 -0.12617,-0.0201 -0.186552,-0.017 z"
       sodipodi:nodetypes="cccscccsssccsssscsccscccssccscccsscccsccsscssssssccscscccssscccscssssccsccc" />
  </g>
</svg>
