<?xml version="1.0" encoding="UTF-8" standalone="no"?>
<!-- Created with Inkscape (http://www.inkscape.org/) -->

<svg
   width="369.51938mm"
   height="471.03476mm"
   viewBox="0 0 369.51937 471.03477"
   version="1.1"
   id="svg1"
   inkscape:version="1.4.2 (f4327f4, 2025-05-13)"
   sodipodi:docname="Zero-Hunger[fit].svg"
   xmlns:inkscape="http://www.inkscape.org/namespaces/inkscape"
   xmlns:sodipodi="http://sodipodi.sourceforge.net/DTD/sodipodi-0.dtd"
   xmlns:xlink="http://www.w3.org/1999/xlink"
   xmlns="http://www.w3.org/2000/svg"
   xmlns:svg="http://www.w3.org/2000/svg">
  <sodipodi:namedview
     id="namedview1"
     pagecolor="#505050"
     bordercolor="#ffffff"
     borderopacity="1"
     inkscape:showpageshadow="0"
     inkscape:pageopacity="0"
     inkscape:pagecheckerboard="1"
     inkscape:deskcolor="#d1d1d1"
     inkscape:document-units="mm"
     inkscape:zoom="0.5"
     inkscape:cx="636"
     inkscape:cy="199"
     inkscape:window-width="1366"
     inkscape:window-height="745"
     inkscape:window-x="-8"
     inkscape:window-y="-8"
     inkscape:window-maximized="1"
     inkscape:current-layer="layer1" />
  <defs
     id="defs1">
    <linearGradient
       inkscape:collect="always"
       xlink:href="#linearGradient22"
       id="linearGradient71"
       gradientUnits="userSpaceOnUse"
       gradientTransform="translate(-125.45226,383.6069)"
       x1="14.591715"
       y1="-305.02563"
       x2="113.70759"
       y2="-117.69598" />
    <linearGradient
       id="linearGradient22"
       inkscape:collect="always">
      <stop
         style="stop-color:#005e00;stop-opacity:1;"
         offset="0"
         id="stop22" />
      <stop
         style="stop-color:#00a100;stop-opacity:1;"
         offset="1"
         id="stop23" />
    </linearGradient>
    <linearGradient
       inkscape:collect="always"
       xlink:href="#linearGradient24"
       id="linearGradient69"
       gradientUnits="userSpaceOnUse"
       gradientTransform="translate(-112.62024,-660.0093)"
       x1="117.28063"
       y1="-135.30727"
       x2="362.37866"
       y2="-135.30727" />
    <linearGradient
       id="linearGradient24"
       inkscape:collect="always">
      <stop
         style="stop-color:#ff2700;stop-opacity:1;"
         offset="0"
         id="stop24" />
      <stop
         style="stop-color:#ff0000;stop-opacity:1;"
         offset="1"
         id="stop25" />
    </linearGradient>
    <linearGradient
       inkscape:collect="always"
       xlink:href="#linearGradient24"
       id="linearGradient67"
       gradientUnits="userSpaceOnUse"
       gradientTransform="translate(11.713333,-660.0093)"
       x1="117.28063"
       y1="-135.30727"
       x2="362.37866"
       y2="-135.30727" />
  </defs>
  <g
     inkscape:label="Layer 1"
     inkscape:groupmode="layer"
     id="layer1"
     transform="translate(110.86042,195.6003)">
    <path
       id="path59"
       style="baseline-shift:baseline;display:inline;overflow:visible;vector-effect:none;fill:url(#linearGradient71);stroke-width:1.80783;stroke-linecap:round;stroke-linejoin:round;enable-background:accumulate;stop-color:#000000"
       d="m -94.893044,78.58282 c -0.764126,0.0387 -1.337541,0.81589 -1.061434,1.59525 4.195437,2.27001 3.625006,7.63004 0.186552,15.21148 -6.470084,14.34536 -3.562188,25.00839 3.291272,32.55512 6.942975,7.64532 17.599667,12.31283 26.199434,15.76596 0.287306,0.11552 2.475725,2.07987 3.104203,0.58808 1.114446,-2.64533 0.326783,-8.13266 0.314193,-8.68164 -0.164567,-7.28218 -1.048178,-16.44187 -3.682462,-24.52616 -2.634284,-8.08428 -7.075607,-15.21365 -14.494723,-17.93327 -1.799052,-0.65946 -2.993409,-1.53115 -3.929993,-0.70642 -0.936585,0.82478 -1.346123,1.75633 -1.497583,2.14044 -0.241513,0.61427 0.06032,1.30776 0.674378,1.54978 0.614266,0.2415 1.308265,-0.0605 1.550293,-0.67438 0.04125,-0.10467 0.380228,-0.80067 0.854728,-1.21853 0.474501,-0.41787 0.91451,-0.69169 1.962671,-0.30747 6.433348,2.35825 10.526368,8.70425 13.043648,16.42948 2.306045,7.07695 3.149761,15.07979 3.414779,21.87774 -8.167197,-3.35397 -17.513666,-7.70698 -23.526729,-14.32833 -6.442722,-7.09446 -9.235628,-16.46277 -2.722315,-30.4648 0.208228,-1.9463 -1.070352,-4.05588 -1.716174,-5.88595 20.720532,5.43077 29.609766,16.59008 32.908069,31.00534 3.417221,14.93498 0.675844,33.39822 -1.829346,51.81545 -0.04106,0.32055 0.04983,0.64431 0.251147,0.8971 -0.0036,0.0544 -0.01395,0.10456 -0.01757,0.15916 -5.568016,-14.95434 -18.582375,-23.73597 -29.939257,-25.19639 -6.852712,-0.88122 -13.233447,0.89234 -16.690457,5.77277 -3.457,4.88043 -3.74775,12.52633 0.71365,22.79603 0.311,0.71291 1.20878,0.94407 1.82522,0.46973 5.763365,-4.43613 12.643252,-8.44561 19.296492,-9.56169 6.653241,-1.1161 13.019209,0.46373 18.522901,7.46725 -3.849709,-7.82741 -12.796004,-10.31811 -18.918226,-9.82627 -6.786156,1.1384 -13.330157,4.95725 -18.999877,9.14879 -0.31812,-7.60903 -0.0687,-7.91684 2.60191,-11.68714 2.8102,-3.9673 8.163207,-5.59114 14.434263,-4.78472 12.414283,1.5964 24.605603,5.42595 27.177669,25.0734 l 0.156063,1.26039 c 0.124105,3.98788 -1.614006,11.27934 -3.52795,18.73219 -0.479228,0.99676 -0.939288,2.0405 -1.379761,3.13211 -2.7171,6.83271 -3.178827,24.52795 -3.178827,34.03781 0,13.46563 3.156961,24.43349 9.470223,32.90445 5.034627,6.83271 11.447451,10.2495 19.239136,10.2495 5.194456,0 9.949368,-1.5385 14.264762,-4.61522 4.355352,-3.07672 7.911542,-8.01151 10.668592,-14.80427 2.75706,-6.79275 4.13567,-14.82403 4.13567,-24.09413 0,-9.19019 -2.29548,-26.76552 -5.0925,-33.67814 -2.79701,-6.95258 -6.27326,-11.94682 -10.428821,-14.98358 -4.155565,-3.07672 -8.790552,-4.61522 -13.905094,-4.61522 -4.27528,0 -8.204086,0.96428 -11.786878,2.89336 -2.265808,0.29761 -4.281945,0.20526 -4.622456,-0.97513 -0.814224,-2.82255 -1.619229,-5.61125 -1.631942,-5.70922 -1.672017,-23.82817 8.788609,-40.20484 20.058724,-47.28342 5.722304,-3.59411 11.5992,-4.75782 16.122017,-3.47679 5.84688,1.65607 9.94321,8.44514 7.71477,11.63754 -1.52623,2.18647 -3.85047,4.28439 -6.57117,5.9185 -5.441417,3.26822 -13.726519,6.40256 -17.699699,1.973 -2.585626,-2.88261 -3.31399,0.0178 -3.311426,-0.75757 0.01193,-3.61289 4.110135,-5.8872 6.150529,-7.67757 l 3.7021,-2.51406 c -0.07015,0.16529 -0.02723,0.38517 0.428914,0.56121 1.681557,0.64894 2.491148,-1.01874 2.27428,-1.64176 -0.110823,-0.31722 -0.39699,-0.62053 -0.688847,-0.83716 -0.892491,-0.66247 -2.166731,-0.10131 -2.426209,-0.0982 -0.518939,0.007 -0.913437,0.15596 -1.351855,0.34934 -0.876835,0.38661 -1.887134,1.0302 -3.057695,1.87482 -2.341177,1.6892 -5.262734,4.17971 -8.067724,6.82542 -2.804992,2.64572 -5.478109,5.43432 -7.299296,7.75043 -0.910593,1.15804 -1.609843,2.17909 -2.026233,3.12126 -0.208194,0.47109 -0.363501,0.92386 -0.360702,1.46451 0.0027,0.54065 0.307009,1.25311 0.851111,1.59318 0.230608,0.14391 0.503669,0.20449 0.773596,0.1726 1.773938,-0.20709 3.531438,-1.30115 5.688542,-1.95233 2.157103,-0.65119 4.447728,-0.9201 6.817672,0.26148 6.335873,3.15894 14.047733,1.51169 19.999292,-2.06292 2.97577,-1.78732 5.53483,-4.07101 7.29878,-6.59805 1.76396,-2.52706 2.75519,-5.33979 2.36162,-8.11113 -1.05189,-7.40699 -5.15087,-12.02351 -10.54613,-13.55163 -5.395283,-1.52815 -11.901585,-0.10694 -18.047477,3.75326 -6.722711,4.22244 -12.973033,11.50894 -16.98346,21.28449 1.355266,-12.26611 7.677742,-22.48257 5.271513,-32.99902 -3.573154,-15.61649 -19.419137,-29.88202 -42.419633,-35.21904 -0.11505,-0.0268 -0.228286,-0.0361 -0.337447,-0.0305 z m 53.48304,105.57495 c 3.036759,0 5.394228,1.99822 7.072437,5.99395 2.317526,5.47416 4.373166,26.48523 4.373166,43.98655 0,8.23122 -0.659064,15.86327 -1.977657,22.89576 -0.958976,5.19446 -2.21766,8.59075 -3.775997,10.18905 -1.518379,1.59829 -3.216783,2.39727 -5.094779,2.39727 -2.87693,0 -5.094487,-1.75785 -6.652824,-5.2741 -2.477356,-5.67395 -3.716052,-15.34367 -3.716052,-29.00908 0,-16.34256 -0.03744,-36.89444 1.680727,-42.60835 1.758124,-5.7139 4.45486,-8.57105 8.090979,-8.57105 z"
       sodipodi:nodetypes="cccccscsccccccssccccscccsscccccccsccccscscssccscsccsssssccccscccssscccscssscccscccscsccscscs" />
    <path
       id="path60"
       style="baseline-shift:baseline;display:inline;overflow:visible;fill:#a50000;fill-opacity:1;stroke:#a50000;stroke-width:3.433;stroke-linecap:round;stroke-linejoin:round;stroke-dasharray:none;stroke-opacity:1;enable-background:accumulate;stop-color:#000000"
       d="m 190.18625,52.04318 c 0.0438,-0.85039 -0.0263,-1.78492 -0.21861,-2.65553 2.49014,-0.68368 4.86872,-1.3976 7.10981,-2.14991 5.13742,-1.72458 9.5264,-3.64726 12.87922,-5.81498 3.35281,-2.16774 5.70548,-4.54381 7.00769,-7.45506 2.62285,-5.86372 -0.002,-11.30272 -6.82452,-15.36846 -3.23237,-1.92626 -8.68128,-3.05533 -14.74974,-2.3103 -7.00199,0.85966 -15.64825,5.54124 -21.22566,8.83685 h -8.3e-4 l -0.8289,-1.22816 c 0.0196,-0.0172 0.0394,-0.0341 0.0591,-0.0515 7.19253,-6.31791 15.38843,-9.49035 22.59225,-10.37478 1.80097,-0.22111 3.53884,-0.30724 5.19456,-0.27518 4.9671,0.0962 9.18751,1.25393 12.10181,2.99063 7.41356,4.41791 10.70134,10.69895 7.53357,17.78089 -1.59309,3.56161 -4.67633,6.67304 -8.68238,9.26312 -4.00606,2.59009 -8.90313,4.69423 -14.37411,6.53077 -2.17486,0.73008 -4.75741,1.50439 -7.57324,2.28159 z" />
    <path
       id="path64"
       style="fill:none;stroke:#a4320a;stroke-width:3.433;stroke-linecap:round;stroke-linejoin:round;stroke-dasharray:none;stroke-opacity:1"
       d="m 166.24724,13.40678 c 1.95231,-2.8896 8.02907,-4.0793 9.92793,-6.87184 l 0.51138,-0.75205 c 1.50602,-2.21455 -1.2107,-2.27739 0.43024,-4.70614 l 2.54269,-3.76345 c 2.09389,-3.09918 8.6669,-5.59421 14.73766,-5.59421 h 54.08312 c 6.07076,0 9.08239,2.77621 7.62175,4.93811"
       sodipodi:nodetypes="cssssssc" />
    <path
       id="path65"
       style="fill:none;stroke:#a4320a;stroke-width:3.433;stroke-linecap:round;stroke-linejoin:round;stroke-dasharray:none;stroke-opacity:1"
       d="m 186.89511,58.70985 c 2.03602,-0.70524 2.97947,-2.21791 2.55677,-4.11497 l 0.005,0.003 c 0.56669,-0.65814 0.81978,-1.48201 0.72171,-2.4158 0.11091,-1.66017 -0.22306,-3.68242 -1.05766,-4.9177 L 167.3255,15.00301 c 2.97504,-3.21674 8.55363,-6.07496 12.95774,-6.07496 -6.07076,0 -4.61691,-1.8624 -2.52301,-4.96159 l 2.54326,-3.76383 c 2.09391,-3.09919 8.66632,-5.59383 14.7371,-5.59383 h 54.08378 c 6.07076,0 9.2721,2.49464 7.17819,5.59383 l -2.54241,3.76383 c -2.09391,3.09919 -3.62452,5.65459 -9.6953,5.65459 4.99543,0 7.0008,2.98454 4.49651,6.69116 l -24.1258,35.70772 c -2.50429,3.70662 -8.54135,6.69031 -13.53677,6.69031 z" />
    <path
       style="baseline-shift:baseline;display:inline;overflow:visible;fill:#a50000;fill-opacity:1;stroke:#a50000;stroke-width:3.433;stroke-linecap:round;stroke-linejoin:round;stroke-dasharray:none;stroke-opacity:1;enable-background:accumulate;stop-color:#000000"
       d="m 2.6216716,13.88391 c -4.9671097,0.0962 -9.1872294,1.25395 -12.1015194,2.99065 -7.4135592,4.41791 -10.7010092,10.69846 -7.5332392,17.7804 1.593089,3.56161 4.67579,6.67337 8.6818392,9.26344 4.0060498,2.59009 8.90313943,4.69455 14.3741291,6.53109 14.3479197,4.81649 35.1324207,8.60603 44.2448807,7.69367 -0.0323,-0.75581 -5.517881,-1.18889 -6.637961,-1.41613 C 30.175951,54.00247 16.999651,51.37484 6.7248213,47.92569 1.5874016,46.20111 -2.8010681,44.278 -6.1538677,42.11028 c -3.3528101,-2.16774 -5.7053693,-4.54406 -7.0075893,-7.45532 -2.622841,-5.86372 0.001,-11.30223 6.8238492,-15.36797 C -3.1052381,17.36074 2.3439016,16.23142 8.4123513,16.97646 23.190711,18.79083 45.293701,37.62837 30.409001,24.53367 23.216461,18.21575 15.020121,15.04323 7.8163013,14.1588 6.0153413,13.9377 4.2773816,13.85184 2.6216716,13.88391 Z"
       id="path61"
       sodipodi:nodetypes="sssssccssssscss" />
    <path
       id="path62"
       style="fill:none;stroke:#a4320a;stroke-width:3.433;stroke-linecap:round;stroke-linejoin:round;stroke-dasharray:none;stroke-opacity:1"
       d="m -28.250911,54.85257 c -2.056861,-1.22446 -3.498668,-3.02313 -3.786614,-5.03459 l -5.11199,-35.7082 c -0.413676,-2.8896 5.289949,-4.09472 4.902305,-6.88726 l -0.104388,-0.75205 c -0.307224,-2.21455 -3.075397,-2.27739 -3.423074,-4.70614 l -0.538782,-3.76345 c -0.443687,-3.09918 4.086427,-5.59421 10.157187,-5.59421 h 54.083119 c 6.07075,0 11.355516,2.77621 11.665007,4.93811"
       sodipodi:nodetypes="cssssssssc" />
    <path
       id="path63"
       style="fill:none;stroke:#a4320a;stroke-width:3.433;stroke-linecap:round;stroke-linejoin:round;stroke-dasharray:none;stroke-opacity:1"
       d="m 48.143696,16.99901 5.111992,35.70819 c 0.53064,3.70662 -3.063755,6.69064 -8.059175,6.69064 h -64.249748 c -4.99539,0 -9.444176,-2.98402 -9.974796,-6.69064 L -34.14003,16.999 c -0.530633,-3.70661 2.96445,-7.38422 7.95986,-7.38422 -6.07076,0 -6.141343,-1.86204 -6.585018,-4.96123 l -0.538775,-3.76343 c -0.443683,-3.0992 4.086427,-5.59421 10.157197,-5.59421 h 54.083108 c 6.07075,0 11.315264,2.49501 11.758944,5.59421 l 0.538775,3.76343 c 0.443665,3.09919 1.00558,5.65482 -5.06519,5.65482 4.99542,0 9.444185,2.98402 9.974825,6.69064 z"
       sodipodi:nodetypes="sssssscsssssscs" />
    <path
       id="path66"
       style="fill:#a41c0a;fill-opacity:1;stroke:#a4320a;stroke-width:1;stroke-linecap:round;stroke-linejoin:round;stroke-dasharray:none;stroke-opacity:1"
       d="m 30.936342,-4.70409 h -54.083108 c -6.07077,0 -10.60088,2.49501 -10.157197,5.59421 l 0.538775,3.76343 c 0.443675,3.09919 0.514258,4.96123 6.585018,4.96123 -4.99541,0 -8.490493,3.67761 -7.95986,7.38422 l 5.111999,35.7082 c 0.107508,0.75106 0.375918,1.47247 0.77712,2.14537 -2.056861,-1.22446 -5.380901,-5.32195 -5.668857,-7.33341 l -5.11199,-35.7082 c -0.413685,-2.8896 3.487114,-3.56322 5.964874,-4.63869 -1.296099,-1.0688 -4.156145,-4.6765 -4.589951,-7.70676 l -0.538772,-3.76345 c -0.443686,-3.09918 4.086427,-5.59421 10.157188,-5.59421 h 54.083118 c 5.53908,0 14.604098,6.09731 15.748353,8.81529 -3.213586,-2.89088 -7.55872,-3.62723 -10.85671,-3.62723 z"
       sodipodi:nodetypes="sssscsscsscsssscs" />
    <path
       id="path67"
       style="fill:#a41c0a;fill-opacity:1;stroke:#a4320a;stroke-width:1;stroke-linecap:round;stroke-linejoin:round;stroke-dasharray:none;stroke-opacity:1"
       d="m 167.32557,15.00254 -2.15666,-3.19153 0.46508,-0.68794 c 1.95227,-2.88959 6.40451,-3.56284 9.76284,-4.63831 -0.42097,-1.0688 -0.32708,-4.67634 1.72027,-7.7066 l 2.54241,-3.76383 c 2.09389,-3.09918 8.66719,-5.59381 14.73794,-5.59381 h 54.08294 c 5.5391,0 9.61164,6.09689 8.53044,8.8149 -0.84657,-2.8909 -4.58841,-3.62709 -7.88639,-3.62709 h -54.08379 c -6.07078,0 -12.64319,2.49463 -14.73709,5.59383 l -2.54326,3.76382 c -2.09391,3.0992 -3.54776,4.9616 2.523,4.9616 -4.40411,0 -9.9827,2.85822 -12.95773,6.07496 z" />
    <g
       id="g71"
       transform="translate(-125.45226,1005.835)">
      <text
         xml:space="preserve"
         style="font-style:normal;font-variant:normal;font-weight:normal;font-stretch:normal;font-size:70.5556px;line-height:0;font-family:Cambria;-inkscape-font-specification:'Cambria, Normal';font-variant-ligatures:normal;font-variant-caps:normal;font-variant-numeric:normal;font-variant-east-asian:normal;text-align:center;writing-mode:lr-tb;direction:ltr;text-anchor:middle;fill:url(#linearGradient69);fill-opacity:1;stroke:url(#linearGradient69);stroke-width:1.32292;stroke-linecap:round;stroke-linejoin:round"
         x="125.93472"
         y="-779.50397"
         id="text59"><tspan
           sodipodi:role="line"
           id="tspan59"
           style="font-style:normal;font-variant:normal;font-weight:normal;font-stretch:normal;font-size:70.5556px;font-family:Cambria;-inkscape-font-specification:'Cambria, Normal';font-variant-ligatures:normal;font-variant-caps:normal;font-variant-numeric:normal;font-variant-east-asian:normal;fill:url(#linearGradient69);fill-opacity:1;stroke:url(#linearGradient69);stroke-width:1.32292;stroke-opacity:1"
           x="125.93472"
           y="-779.50397">-</tspan></text>
      <text
         xml:space="preserve"
         style="font-style:normal;font-variant:normal;font-weight:normal;font-stretch:normal;font-size:70.5556px;line-height:0;font-family:Cambria;-inkscape-font-specification:'Cambria, Normal';font-variant-ligatures:normal;font-variant-caps:normal;font-variant-numeric:normal;font-variant-east-asian:normal;text-align:center;writing-mode:lr-tb;direction:ltr;text-anchor:middle;fill:url(#linearGradient67);fill-opacity:1;stroke:url(#linearGradient67);stroke-width:1.32292;stroke-linecap:round;stroke-linejoin:round;stroke-opacity:1"
         x="250.2683"
         y="-779.50397"
         id="text60"><tspan
           sodipodi:role="line"
           id="tspan60"
           style="font-style:normal;font-variant:normal;font-weight:normal;font-stretch:normal;font-size:70.5556px;font-family:Cambria;-inkscape-font-specification:'Cambria, Normal';font-variant-ligatures:normal;font-variant-caps:normal;font-variant-numeric:normal;font-variant-east-asian:normal;fill:url(#linearGradient67);fill-opacity:1;stroke:url(#linearGradient67);stroke-width:1.32292;stroke-opacity:1"
           x="250.2683"
           y="-779.50397">Hunger</tspan></text>
    </g>
    <path
       style="baseline-shift:baseline;display:inline;overflow:visible;fill:#a50000;fill-opacity:1;stroke:#a50000;stroke-width:3.433;stroke-linecap:round;stroke-linejoin:round;stroke-dasharray:none;stroke-opacity:1;enable-background:accumulate;stop-color:#000000"
       d="m 69.966048,13.88391 c 4.9671,0.0962 9.18722,1.25395 12.10151,2.99065 7.41356,4.41791 10.70101,10.69846 7.53324,17.7804 -1.59309,3.56161 -4.67579,6.67337 -8.68184,9.26344 -4.00605,2.59009 -8.90313,4.69455 -14.37413,6.53109 -14.347924,4.81649 -35.132444,8.60603 -44.244904,7.69367 0.0323,-0.75581 5.51788,-1.18889 6.63796,-1.41613 13.47386,-2.72456 26.65017,-5.35219 36.925004,-8.80134 5.13743,-1.72458 9.52589,-3.64769 12.87869,-5.81541 3.35281,-2.16774 5.70537,-4.54406 7.00759,-7.45532 2.62284,-5.86372 -10e-4,-11.30223 -6.82385,-15.36797 -3.23237,-1.92625 -8.6815,-3.05557 -14.74996,-2.31053 -14.778374,1.81437 -36.881374,20.65191 -21.996664,7.55721 7.19254,-6.31792 15.388894,-9.49044 22.592714,-10.37487 1.80096,-0.2211 3.53893,-0.30696 5.19464,-0.27489 z"
       id="path1"
       sodipodi:nodetypes="sssssccssssscss" />
    <path
       id="path2"
       style="fill:none;stroke:#a4320a;stroke-width:3.433;stroke-linecap:round;stroke-linejoin:round;stroke-dasharray:none;stroke-opacity:1"
       d="m 100.83863,54.85257 c 2.05686,-1.22446 3.49866,-3.02313 3.78661,-5.03459 l 5.11199,-35.7082 c 0.41367,-2.8896 -5.28995,-4.09472 -4.90231,-6.88726 l 0.10439,-0.75205 c 0.30723,-2.21455 3.0754,-2.27739 3.42308,-4.70614 l 0.53878,-3.76345 c 0.44368,-3.09918 -4.08643,-5.59421 -10.157192,-5.59421 H 44.660844 c -6.07075,0 -11.35552,2.77621 -11.66501,4.93811"
       sodipodi:nodetypes="cssssssssc" />
    <path
       id="path3"
       style="fill:none;stroke:#a4320a;stroke-width:3.433;stroke-linecap:round;stroke-linejoin:round;stroke-dasharray:none;stroke-opacity:1"
       d="m 24.443984,16.99901 -5.11199,35.70819 c -0.53064,3.70662 3.06376,6.69064 8.05918,6.69064 h 64.249774 c 4.99539,0 9.444182,-2.98402 9.974802,-6.69064 l 5.11199,-35.7082 c 0.53064,-3.70661 -2.96445,-7.38422 -7.959862,-7.38422 6.070762,0 6.141352,-1.86204 6.585022,-4.96123 l 0.53878,-3.76343 c 0.44368,-3.0992 -4.08643,-5.59421 -10.157202,-5.59421 H 41.651354 c -6.07076,0 -11.31527,2.49501 -11.75895,5.59421 l -0.53878,3.76343 c -0.44366,3.09919 -1.00558,5.65482 5.0652,5.65482 -4.99543,0 -9.4442,2.98402 -9.97484,6.69064 z"
       sodipodi:nodetypes="sssssscsssssscs" />
    <path
       id="path4"
       style="fill:#a41c0a;fill-opacity:1;stroke:#a4320a;stroke-width:1;stroke-linecap:round;stroke-linejoin:round;stroke-dasharray:none;stroke-opacity:1"
       d="m 41.651354,-4.70409 h 54.083124 c 6.070772,0 10.600882,2.49501 10.157202,5.59421 l -0.53878,3.76343 c -0.44367,3.09919 -0.51426,4.96123 -6.585022,4.96123 4.995412,0 8.490502,3.67761 7.959862,7.38422 l -5.11199,35.7082 c -0.10751,0.75106 -0.37592,1.47247 -0.77712,2.14537 2.05686,-1.22446 5.3809,-5.32195 5.66885,-7.33341 l 5.11199,-35.7082 c 0.41369,-2.8896 -3.48711,-3.56322 -5.96487,-4.63869 1.2961,-1.0688 4.15614,-4.6765 4.58995,-7.70676 l 0.53877,-3.76345 c 0.44369,-3.09918 -4.08643,-5.59421 -10.15719,-5.59421 H 46.542994 c -5.53908,0 -14.6041,6.09731 -15.74836,8.81529 3.21359,-2.89088 7.55873,-3.62723 10.85672,-3.62723 z"
       sodipodi:nodetypes="sssscsscsscsssscs" />
    <path
       id="path9"
       style="baseline-shift:baseline;display:inline;overflow:visible;fill:#a50000;fill-opacity:1;stroke:#a50000;stroke-width:3.433;stroke-linecap:round;stroke-linejoin:round;stroke-dasharray:none;stroke-opacity:1;enable-background:accumulate;stop-color:#000000"
       d="m 69.966269,-81.366105 c -1.65571,-0.03207 -3.394072,0.05382 -5.195032,0.274919 -5.142203,0.63132 -10.790051,2.428675 -16.217615,5.703528 l 0.374654,2.616894 c 4.837934,-2.512502 10.431462,-4.911794 15.247132,-5.503023 6.06846,-0.745041 11.517634,0.38472 14.750004,2.31097 6.82285,4.06574 9.446713,9.503817 6.823873,15.367537 -1.30222,2.911259 -3.655031,5.28762 -7.007841,7.455359 -3.3528,2.167721 -7.741371,4.091087 -12.878801,5.815666 -3.889463,1.305651 -8.194664,2.493701 -12.774414,3.613733 l 0.167432,1.167887 c 0.07377,0.515313 0.06751,1.016189 -0.01137,1.497066 4.675145,-1.114334 9.244901,-2.393382 13.30048,-3.754809 5.471,-1.83654 10.368266,-3.941294 14.374316,-6.531384 4.00605,-2.59007 7.088551,-5.701908 8.681641,-9.263518 3.16777,-7.08194 -0.11983,-13.362401 -7.53339,-17.78031 -2.91429,-1.7367 -7.13397,-2.894315 -12.101069,-2.990515 z" />
    <path
       id="path10"
       style="fill:none;stroke:#a4320a;stroke-width:3.433;stroke-linecap:round;stroke-linejoin:round;stroke-dasharray:none;stroke-opacity:1"
       d="m 100.83863,-40.397434 c 2.05686,-1.22446 3.49866,-3.02313 3.78661,-5.03459 l 5.11199,-35.7082 c 0.41367,-2.8896 -5.28995,-4.094721 -4.90231,-6.887261 l 0.10439,-0.75205 c 0.30723,-2.21455 3.0754,-2.27739 3.42308,-4.70614 l 0.53878,-3.76345 c 0.44368,-3.099185 -4.08643,-5.594215 -10.157192,-5.594215 H 44.660844 c -6.07075,0 -11.35552,2.77621 -11.66501,4.938115"
       sodipodi:nodetypes="cssssssssc" />
    <path
       id="path11"
       style="fill:none;stroke:#a4320a;stroke-width:3.433;stroke-linecap:round;stroke-linejoin:round;stroke-dasharray:none;stroke-opacity:1"
       d="m 41.651201,-99.954118 c -1.067643,0 -2.109807,0.07712 -3.10472,0.221175 1.659102,1.275526 2.87341,2.520227 3.246314,3.405994 -0.127124,-0.114357 -0.25601,-0.225094 -0.38654,-0.332796 0.717082,0.700889 1.171311,1.479361 1.28881,2.300118 l 0.538985,3.763078 c 0.443665,3.09919 1.005446,5.654952 -5.065324,5.654952 4.99542,0 9.444462,2.983927 9.975102,6.690547 l 5.111833,35.708415 c 0.320997,2.242226 -0.873823,4.214791 -2.968811,5.427576 2.66e-4,0.0028 9.14e-4,0.0055 10e-4,0.0083 -0.0045,4.5e-4 -0.011,6.9e-5 -0.0155,5.17e-4 -1.355956,0.781052 -3.083131,1.247317 -5.031734,1.254187 h 46.400269 c 4.99539,0 9.443965,-2.983927 9.974585,-6.690548 l 5.11235,-35.708415 c 0.53064,-3.70661 -2.96431,-7.384045 -7.959722,-7.384045 6.070762,0 6.140942,-1.862264 6.584612,-4.961454 l 0.53898,-3.763078 c 0.44368,-3.0992 -4.08623,-5.594491 -10.156998,-5.594491 z" />
    <path
       id="path12"
       style="fill:#a41c0a;fill-opacity:1;stroke:#a4320a;stroke-width:1;stroke-linecap:round;stroke-linejoin:round;stroke-dasharray:none;stroke-opacity:1"
       d="m 46.542892,-105.14191 c -2.989218,0 -7.005069,1.77543 -10.248987,3.83749 0.809358,0.51448 1.5704,1.04706 2.255677,1.574061 1.086986,-0.160768 2.138899,-0.223759 3.101619,-0.223759 h 54.083521 c 6.070768,0 10.600678,2.495291 10.156998,5.594491 l -0.53898,3.763078 c -0.44367,3.09919 -0.51385,4.961454 -6.584612,4.961454 4.995412,0 8.490362,3.677435 7.959722,7.384045 l -5.11235,35.708415 c -0.10751,0.75106 -0.3755,1.472189 -0.7767,2.145089 2.05686,-1.22446 5.38096,-5.321942 5.66891,-7.333403 l 5.11183,-35.707898 c 0.41369,-2.889601 -3.48725,-3.563523 -5.96501,-4.638993 1.2961,-1.0688 4.15609,-4.676246 4.5899,-7.706506 l 0.53899,-3.763595 c 0.44369,-3.099189 -4.08676,-5.593969 -10.15752,-5.593969 z" />
    <path
       id="path5"
       style="baseline-shift:baseline;display:inline;overflow:visible;fill:#ff0000;fill-opacity:1;stroke:#ff0000;stroke-width:3.433;stroke-linecap:round;stroke-linejoin:round;stroke-dasharray:none;stroke-opacity:1;enable-background:accumulate;stop-color:#000000"
       d="m -28.038602,-105.14191 c -6.070761,0 -10.600689,2.49478 -10.157003,5.593969 l 0.538985,3.763595 c 0.433806,3.03026 3.293802,6.637706 4.589901,7.706506 -2.47776,1.07547 -6.378695,1.749392 -5.96501,4.638993 l 5.111832,35.707898 c 0.176839,1.235274 1.498585,3.257365 2.968811,4.91753 0.666506,0.933799 1.59454,1.757731 2.700094,2.415873 l 0.0057,-0.0047 c 1.57812,2.649192 5.207894,4.55011 9.192204,4.55011 h 64.249825 c 1.966479,0 3.709574,-0.467301 5.075659,-1.254187 0.0045,-4.48e-4 0.01101,-6.7e-5 0.0155,-5.17e-4 -1.19e-4,-0.0028 -7.67e-4,-0.0055 -0.001,-0.0083 2.094988,-1.212785 3.289808,-3.18535 2.968811,-5.427576 L 48.143828,-78.25105 c -0.53064,-3.70662 -4.979682,-6.690547 -9.975102,-6.690547 6.07077,0 5.508989,-2.555762 5.065324,-5.654952 l -0.538985,-3.763078 c -0.117499,-0.820757 -0.571728,-1.599229 -1.28881,-2.300118 0.13053,0.107702 0.259416,0.218439 0.38654,0.332796 -1.144255,-2.71798 -10.208796,-8.814961 -15.747876,-8.814961 z" />
    <path
       id="path13"
       style="baseline-shift:baseline;display:inline;overflow:visible;fill:#a50000;fill-opacity:1;stroke:#a50000;stroke-width:3.433;stroke-linecap:round;stroke-linejoin:round;stroke-dasharray:none;stroke-opacity:1;enable-background:accumulate;stop-color:#000000"
       d="m 69.966269,-171.32448 c -1.65571,-0.0321 -3.394072,0.0538 -5.195032,0.27492 -5.142203,0.63132 -10.790051,2.42867 -16.217615,5.70353 l 0.374654,2.61689 c 4.837934,-2.5125 10.431462,-4.91179 15.247132,-5.50302 6.06846,-0.74505 11.517634,0.38472 14.750004,2.31097 6.82285,4.06574 9.446713,9.50382 6.823873,15.36754 -1.30222,2.91126 -3.655031,5.28763 -7.007841,7.45537 -3.3528,2.16772 -7.741371,4.09109 -12.878801,5.81567 -3.889463,1.30565 -5.926807,2.79608 -10.506557,3.91611 l 0.167432,1.16789 c 0.07377,0.51531 0.06751,1.01619 -0.01137,1.49707 4.675145,-1.11434 6.977044,-2.69577 11.032623,-4.05719 5.471,-1.83654 10.368266,-3.9413 14.374316,-6.53139 4.00605,-2.59007 7.088551,-5.70191 8.681641,-9.26353 3.16777,-7.08194 -0.11983,-13.36241 -7.53339,-17.78031 -2.91429,-1.73671 -7.13397,-2.89432 -12.101069,-2.99052 z"
       sodipodi:nodetypes="ssccscssscccsssss" />
    <path
       id="path14"
       style="fill:none;stroke:#a4320a;stroke-width:3.433;stroke-linecap:round;stroke-linejoin:round;stroke-dasharray:none;stroke-opacity:1"
       d="m 100.83863,-130.35579 c 2.05686,-1.22446 3.49866,-3.02313 3.78661,-5.03459 l 5.11199,-35.70822 c 0.41367,-2.8896 -5.28995,-4.09473 -4.90231,-6.88727 l 0.10439,-0.75205 c 0.30723,-2.21455 3.0754,-2.27739 3.42308,-4.70614 l 0.53878,-3.76345 c 0.44368,-3.09919 -4.08643,-5.59422 -10.157192,-5.59422 H 44.660844"
       sodipodi:nodetypes="csssssssc" />
    <path
       id="path15"
       style="fill:none;stroke:#a4320a;stroke-width:3.433;stroke-linecap:round;stroke-linejoin:round;stroke-dasharray:none;stroke-opacity:1"
       d="m 41.651201,-189.9125 c -1.067643,0 -2.109807,0.0771 -3.10472,0.22117 1.659102,1.27553 2.87341,2.52023 3.246314,3.40599 -0.127124,-0.11435 -0.25601,-0.22509 -0.38654,-0.33279 0.717082,0.70089 1.171311,1.47936 1.28881,2.30012 l 0.538985,3.76308 c 0.443665,3.09919 1.005446,5.65495 -5.065324,5.65495 4.99542,0 9.444462,2.98393 9.975102,6.69056 l 6.917608,35.62311 c 0.320997,2.24223 -2.679598,4.30011 -4.774586,5.5129 2.66e-4,0.003 9.14e-4,0.005 10e-4,0.008 -0.0045,4.5e-4 -0.011,7e-5 -0.0155,5.1e-4 -1.355956,0.78106 -3.083131,1.24732 -5.031734,1.25419 h 46.400269 c 4.99539,0 9.443965,-2.98393 9.974585,-6.69055 l 5.11235,-35.70843 c 0.53064,-3.70662 -2.96431,-7.38405 -7.959722,-7.38405 6.070762,0 6.140942,-1.86227 6.584612,-4.96146 l 0.53898,-3.76308 c 0.44368,-3.09919 -4.08623,-5.59448 -10.156998,-5.59448 z"
       sodipodi:nodetypes="cccccccccccccsccccccc" />
    <path
       id="path16"
       style="fill:#a41c0a;fill-opacity:1;stroke:#a4320a;stroke-width:1;stroke-linecap:round;stroke-linejoin:round;stroke-dasharray:none;stroke-opacity:1"
       d="m 46.542892,-195.1003 c -2.989218,0 -7.005069,1.77543 -10.248987,3.83749 0.809358,0.51448 1.5704,1.04706 2.255677,1.57406 1.086986,-0.16076 2.138899,-0.22375 3.101619,-0.22375 h 54.083521 c 6.070768,0 10.600678,2.49529 10.156998,5.59449 l -0.53898,3.76308 c -0.44367,3.09919 -0.51385,4.96145 -6.584612,4.96145 4.995412,0 8.490362,3.67744 7.959722,7.38406 l -5.11235,35.70843 c -0.10751,0.75106 -0.3755,1.47219 -0.7767,2.14509 2.05686,-1.22446 5.38096,-5.32194 5.66891,-7.33341 l 5.11183,-35.70791 c 0.41369,-2.88961 -3.48725,-3.56353 -5.96501,-4.639 1.2961,-1.0688 4.15609,-4.67625 4.5899,-7.70651 l 0.53899,-3.7636 c 0.44369,-3.09919 -4.08676,-5.59397 -10.15752,-5.59397 z" />
    <g
       id="g20"
       transform="translate(0,3.1750001)">
      <path
         style="baseline-shift:baseline;display:inline;overflow:visible;fill:#a50000;fill-opacity:1;stroke:#a50000;stroke-width:3.433;stroke-linecap:round;stroke-linejoin:round;stroke-dasharray:none;stroke-opacity:1;enable-background:accumulate;stop-color:#000000"
         d="m 1.8293286,-170.93794 c -4.9481324,0.44431 -9.0766653,1.89518 -11.8619806,3.83199 -7.085467,4.92696 -9.924352,11.42261 -6.26771,18.26495 1.838951,3.44112 5.132296,6.32902 9.3101291,8.63177 4.1778347,2.30275 9.2104568,4.05859 14.7967759,5.50691 14.650382,3.79838 35.649475,6.12094 44.675511,4.57174 -0.08523,-0.75169 -5.587674,-0.79899 -6.720933,-0.94711 -13.631753,-1.7729 -26.95989,-3.46998 -37.4513169,-6.19004 -5.2457186,-1.36003 -9.7582546,-2.97063 -13.2548265,-4.89789 -3.496583,-1.92726 -6.0100066,-4.13274 -7.5131926,-6.9455 -3.027619,-5.66534 -0.791655,-11.27448 5.729255,-15.80871 3.0893183,-2.1482 8.4458388,-3.6569 14.5515975,-3.33929 14.8692165,0.77346 38.2389025,18.01449 22.4724915,5.99592 -7.61792,-5.79793 -16.016574,-8.38781 -23.2646827,-8.76484 -1.8120318,-0.0942 -3.5517337,-0.058 -5.2011177,0.0901 z"
         id="path17"
         sodipodi:nodetypes="sssssccssssscss" />
      <path
         id="path18"
         style="fill:none;stroke:#a4320a;stroke-width:3.433;stroke-linecap:round;stroke-linejoin:round;stroke-dasharray:none;stroke-opacity:1"
         d="m -26.09401,-127.90498 c -2.13767,-1.07719 -3.702072,-2.77031 -4.130377,-4.75663 l -7.603702,-35.26178 c -0.615311,-2.85347 4.989751,-4.45564 4.407215,-7.21412 l -0.156874,-0.74287 c -0.461779,-2.18756 -3.227543,-2.0561 -3.744698,-4.45449 l -0.801395,-3.7164 c -0.659948,-3.06044 3.68403,-5.86703 9.739842,-6.29279 l 53.94995,-3.79297 c 6.055802,-0.42576 11.522257,1.97299 11.982606,4.10787"
         sodipodi:nodetypes="cssssssssc" />
      <path
         id="path19"
         style="fill:none;stroke:#a4320a;stroke-width:3.433;stroke-linecap:round;stroke-linejoin:round;stroke-dasharray:none;stroke-opacity:1"
         d="m 47.457733,-171.02308 7.603703,35.26177 c 0.789287,3.66028 -2.586981,6.88905 -7.5701,7.23939 l -64.091546,4.50598 c -4.98309,0.35034 -9.630199,-2.31434 -10.419466,-5.97462 l -7.60371,-35.26178 c -0.78928,-3.66027 2.439277,-7.57395 7.422387,-7.92429 -6.055812,0.42575 -6.25681,-1.42675 -6.916746,-4.48719 l -0.801386,-3.71638 c -0.659945,-3.06045 3.68403,-5.86703 9.739852,-6.29279 l 53.949939,-3.79297 c 6.055802,-0.42575 11.462384,1.6953 12.122325,4.75576 l 0.801386,3.71638 c 0.659926,3.06044 1.39969,5.57037 -4.656132,5.99612 4.98312,-0.35034 9.630207,2.31434 10.419494,5.97462 z"
         sodipodi:nodetypes="sssssscsssssscs" />
      <path
         id="path20"
         style="fill:#a41c0a;fill-opacity:1;stroke:#a4320a;stroke-width:1;stroke-linecap:round;stroke-linejoin:round;stroke-dasharray:none;stroke-opacity:1"
         d="m 28.77066,-191.46596 -53.949939,3.79297 c -6.055822,0.42576 -10.399797,3.23234 -9.739852,6.29279 l 0.801386,3.71638 c 0.659936,3.06044 0.860934,4.91294 6.916746,4.48719 -4.98311,0.35034 -8.211667,4.26402 -7.422387,7.92429 l 7.60371,35.26178 c 0.159917,0.74167 0.47826,1.44248 0.925666,2.08558 -2.13767,-1.07719 -5.740892,-4.93147 -6.169207,-6.91778 l -7.603701,-35.26178 c -0.615322,-2.85348 3.22863,-3.79902 5.624864,-5.04561 -1.367865,-0.97527 -4.473885,-4.3735 -5.119142,-7.36588 l -0.801385,-3.7164 c -0.659947,-3.06044 3.68403,-5.86703 9.739843,-6.29279 l 53.949949,-3.79297 c 5.525441,-0.38847 14.995757,5.05809 16.327813,7.68913 -3.408417,-2.65839 -7.794494,-3.08819 -11.084364,-2.8569 z"
         sodipodi:nodetypes="sssscsscsscsssscs" />
    </g>
  </g>
</svg>
