<?xml version="1.0" encoding="UTF-8" standalone="no"?>
<!-- Created with Inkscape (http://www.inkscape.org/) -->

<svg
   width="197.64851mm"
   height="145.26854mm"
   viewBox="0 0 197.64851 145.26854"
   version="1.1"
   id="svg1"
   inkscape:version="1.4.2 (f4327f4, 2025-05-13)"
   sodipodi:docname="heart[white].svg"
   xmlns:inkscape="http://www.inkscape.org/namespaces/inkscape"
   xmlns:sodipodi="http://sodipodi.sourceforge.net/DTD/sodipodi-0.dtd"
   xmlns="http://www.w3.org/2000/svg"
   xmlns:svg="http://www.w3.org/2000/svg">
  <sodipodi:namedview
     id="namedview1"
     pagecolor="#505050"
     bordercolor="#ffffff"
     borderopacity="1"
     inkscape:showpageshadow="0"
     inkscape:pageopacity="0"
     inkscape:pagecheckerboard="1"
     inkscape:deskcolor="#d1d1d1"
     inkscape:document-units="mm"
     inkscape:zoom="0.48373316"
     inkscape:cx="516.81386"
     inkscape:cy="79.589334"
     inkscape:window-width="1366"
     inkscape:window-height="745"
     inkscape:window-x="-8"
     inkscape:window-y="-8"
     inkscape:window-maximized="1"
     inkscape:current-layer="layer1" />
  <defs
     id="defs1" />
  <g
     inkscape:label="Layer 1"
     inkscape:groupmode="layer"
     id="layer1"
     transform="translate(31.485423,-176.2125)">
    <g
       id="g5"
       transform="translate(-192.68708,197.00375)"
       style="fill:#f9f9f9">
      <path
         style="baseline-shift:baseline;display:inline;overflow:visible;vector-effect:none;fill:#f9f9f9;fill-opacity:1;stroke:none;stroke-width:3.07133;stroke-linecap:square;stroke-linejoin:miter;stroke-opacity:1;enable-background:accumulate;stop-color:#000000"
         d="m 292.37972,4.0820133 c 9.16495,2.149132 17.28372,6.8255527 23.17966,12.5377867 14.99841,14.531082 22.98327,32.423131 19.34349,49.976487 -1.83049,8.827818 -6.53941,15.895865 -13.10754,21.229755 -6.56815,5.333889 -14.92494,9.041477 -24.41992,11.820451 -24.90101,7.288087 -45.33175,6.315267 -82.55997,4.579187 -0.17386,-1.98994 13.34353,-2.11555 15.33339,-2.29041 23.93919,-2.079552 47.3612,-4.015756 65.19329,-9.23489 8.91606,-2.609534 16.39344,-6.030668 21.89055,-10.49477 5.49712,-4.464131 9.09023,-9.862291 10.58648,-17.078168 C 330.83282,50.59356 324.32792,35.185229 310.52507,21.812478 303.98565,15.476798 293.6153,10.406965 282.68455,10.066473 256.06512,9.2372993 221.22973,50.712396 244.56247,21.698415 255.84023,7.7039553 269.93512,2.4250663 282.91095,2.8292683 c 3.24393,0.10104 6.41377,0.536361 9.46877,1.252745 z"
         id="path1"
         sodipodi:nodetypes="sssssccssssscss" />
      <path
         style="baseline-shift:baseline;display:inline;overflow:visible;vector-effect:none;fill:#f9f9f9;fill-opacity:1;stroke:none;stroke-width:3.07133;stroke-linecap:square;stroke-linejoin:miter;stroke-opacity:1;enable-background:accumulate;stop-color:#000000"
         d="m 225.84832,-5.4769147 c -9.26385,-1.672168 -18.57266,-0.609441 -26.25376,2.287528 -19.5396,7.369456 -33.98025,20.6114667 -37.62002,38.1648227 -1.83049,8.827818 -0.32017,17.185456 3.58562,24.691165 3.90579,7.505711 10.09939,14.230393 17.70658,20.555585 19.95014,16.588197 39.08324,23.819124 73.93239,37.028644 0.95074,-1.75674 -11.40222,-7.2467 -13.1585,-8.19834 C 222.90201,97.625831 202.18095,86.536344 187.89426,74.657224 180.75089,68.71769 175.2503,62.60551 171.98139,56.323732 c -3.26889,-6.281806 -4.41937,-12.663574 -2.92313,-19.879451 3.01367,-14.533883 15.10882,-26.085403 33.09087,-32.8673997 8.51941,-3.213157 20.05059,-3.741601 30.21552,0.2922 24.75442,9.8234437 40.22666,61.7300727 30.354,25.8307887 -4.78355,-17.32485 -15.6174,-27.7728347 -27.68413,-32.5613297 -3.01664,-1.19712 -6.09824,-2.058065 -9.1862,-2.615455 z"
         id="path3"
         sodipodi:nodetypes="sssssccssssscss" />
      <path
         style="baseline-shift:baseline;display:inline;overflow:visible;vector-effect:none;fill:#f9f9f9;fill-opacity:1;stroke:none;stroke-width:4.34624;stroke-linecap:square;stroke-linejoin:miter;stroke-opacity:1;enable-background:accumulate;stop-color:#000000"
         d="m 297.43985,-18.988173 c 12.96931,3.041237 24.45819,9.6588413 32.80152,17.7422213 21.22426,20.5629347 32.52364,45.8819757 27.37299,70.7217297 -2.59033,12.492246 -9.25392,22.494238 -18.54849,30.042226 -9.29459,7.547986 -21.12027,12.794596 -34.55662,16.727126 -35.23742,10.31337 -64.14896,8.93672 -116.83062,6.48 -0.24603,-2.81596 18.88243,-2.99371 21.69828,-3.24115 33.87636,-2.94278 67.02084,-5.6827 92.25503,-13.0683 12.61712,-3.69275 23.19835,-8.533998 30.97732,-14.85115 7.77897,-6.31719 12.86358,-13.956128 14.98092,-24.167316 4.26464,-20.566897 -4.94044,-42.371226 -24.47285,-61.2950047 -9.25394,-8.965622 -23.92902,-16.1399423 -39.39713,-16.6217733 -37.66914,-1.173362 -86.96471,57.518046 -53.94655,16.4603613 15.95916,-19.8035603 35.90485,-27.2737153 54.26694,-26.7017293 4.59048,0.14298 9.07613,0.759004 13.39926,1.772759 z"
         id="path4"
         sodipodi:nodetypes="sssssccssssscss" />
      <path
         style="baseline-shift:baseline;display:inline;overflow:visible;vector-effect:none;fill:#f9f9f9;fill-opacity:1;stroke:none;stroke-width:2.19103;stroke-linecap:square;stroke-linejoin:miter;stroke-opacity:1;enable-background:accumulate;stop-color:#000000"
         d="m 222.72037,10.528496 c -6.60865,-1.1928907 -13.24938,-0.434763 -18.72893,1.631882 -13.93919,5.257231 -24.24088,14.703834 -26.83743,27.226071 -1.30584,6.2976 -0.22839,12.259785 2.55792,17.614217 2.78631,5.354433 7.20472,10.151695 12.63155,14.663971 14.23205,11.833709 27.88125,16.992118 52.74198,26.415542 0.67825,-1.253228 -8.13414,-5.169664 -9.38703,-5.848542 -15.07989,-8.151565 -29.86192,-16.0626 -40.05377,-24.536942 -5.09594,-4.237152 -9.01997,-8.597468 -11.35194,-13.078769 -2.33197,-4.481324 -3.15271,-9.033958 -2.08531,-14.181631 2.14989,-10.368201 10.77835,-18.608839 23.6064,-23.44699 6.0776,-2.292205 14.30373,-2.669186 21.55519,0.20845 17.65935,7.007863 28.69695,44.037084 21.65398,18.427205 -3.4125,-12.359227 -11.14116,-19.812623 -19.74934,-23.228646 -2.15202,-0.854003 -4.35037,-1.468186 -6.55327,-1.865818 z"
         id="path5"
         sodipodi:nodetypes="sssssccssssscss" />
    </g>
  </g>
</svg>
