<?xml version="1.0" encoding="UTF-8" standalone="no"?>
<!-- Created with Inkscape (http://www.inkscape.org/) -->

<svg
   width="355.77756mm"
   height="55.742115mm"
   viewBox="0 0 355.77757 55.742115"
   version="1.1"
   id="svg1"
   inkscape:version="1.4.2 (f4327f4, 2025-05-13)"
   sodipodi:docname="breadslice.svg"
   xmlns:inkscape="http://www.inkscape.org/namespaces/inkscape"
   xmlns:sodipodi="http://sodipodi.sourceforge.net/DTD/sodipodi-0.dtd"
   xmlns="http://www.w3.org/2000/svg"
   xmlns:svg="http://www.w3.org/2000/svg">
  <sodipodi:namedview
     id="namedview1"
     pagecolor="#505050"
     bordercolor="#ffffff"
     borderopacity="1"
     inkscape:showpageshadow="0"
     inkscape:pageopacity="0"
     inkscape:pagecheckerboard="1"
     inkscape:deskcolor="#d1d1d1"
     inkscape:document-units="mm"
     showguides="true"
     inkscape:zoom="0.93"
     inkscape:cx="1504.3011"
     inkscape:cy="153.22581"
     inkscape:window-width="1366"
     inkscape:window-height="745"
     inkscape:window-x="-8"
     inkscape:window-y="-8"
     inkscape:window-maximized="1"
     inkscape:current-layer="layer1">
    <sodipodi:guide
       position="239.09626,51.525472"
       orientation="1,0"
       id="guide7"
       inkscape:locked="false" />
    <sodipodi:guide
       position="391.07793,50.539632"
       orientation="1,0"
       id="guide15"
       inkscape:locked="false" />
    <sodipodi:guide
       position="397.61821,57.012398"
       orientation="0,-1"
       id="guide16"
       inkscape:locked="false" />
  </sodipodi:namedview>
  <defs
     id="defs1" />
  <g
     inkscape:label="Layer 1"
     inkscape:groupmode="layer"
     id="layer1"
     transform="translate(-57.166355,-42.058548)">
    <rect
       style="fill:none;stroke:#ffffff;stroke-width:0.529167;stroke-linecap:round;stroke-linejoin:round;stroke-dasharray:none"
       id="rect1"
       width="50.320442"
       height="40.458694"
       x="57.430939"
       y="54.696133"
       rx="5.5143127"
       ry="5.5143127" />
    <rect
       style="fill:none;stroke:#ffffff;stroke-width:0.529167;stroke-linecap:round;stroke-linejoin:round;stroke-dasharray:none"
       id="rect2"
       width="46.477184"
       height="12.323065"
       x="59.35257"
       y="42.323132"
       rx="6.7013803"
       ry="4.6106539" />
    <path
       id="rect4"
       style="fill:none;stroke:#ffffff;stroke-width:0.529167;stroke-linecap:round;stroke-linejoin:round"
       d="m 171.25137,60.210448 v 29.430069 c 0,3.05493 -2.45939,5.514313 -5.51432,5.514313 h -39.29181 c -3.05493,0 -5.51432,-2.459383 -5.51432,-5.514313 V 60.210445 c 0,-3.054929 2.45939,-6.085942 5.51432,-6.085942 -3.71256,0 -3.59271,-1.534658 -3.59271,-4.088961 v -3.101757 c 0,-2.554302 2.98882,-4.610653 6.70138,-4.610653 h 33.07443 c 3.71256,0 6.70138,2.056351 6.70138,4.610653 v 3.101757 c 0,2.554303 0.11989,4.660594 -3.59267,4.660594 3.05493,0 5.51432,2.459383 5.51432,5.514312 z"
       sodipodi:nodetypes="sssssscsssssscs" />
    <path
       id="path4"
       style="fill:none;stroke:#00ffff;stroke-width:0.529167;stroke-linecap:round;stroke-linejoin:round"
       d="m 186.30589,93.789955 c -1.15067,-1.009191 -1.87493,-2.491623 -1.87493,-4.149438 V 60.210445 c 0,-3.054929 2.45939,-6.085942 5.51432,-6.085942 -3.71256,0 -3.59271,-1.534658 -3.59271,-4.088961 v -3.101757 c 0,-2.554302 2.98882,-4.610653 6.70138,-4.610653 h 33.07443 c 3.71256,0 6.70138,2.056351 6.70138,4.610653"
       sodipodi:nodetypes="csscssssc" />
    <path
       id="path5"
       style="fill:none;stroke:#ffffff;stroke-width:0.529167;stroke-linecap:round;stroke-linejoin:round"
       d="m 236.33891,62.591698 v 29.430069 c 0,3.05493 -2.45939,5.514313 -5.51432,5.514313 h -39.29181 c -3.05493,0 -5.51432,-2.459383 -5.51432,-5.514313 V 62.591695 c 0,-3.054929 2.45939,-6.085942 5.51432,-6.085942 -3.71256,0 -3.59271,-1.534658 -3.59271,-4.088961 v -3.101757 c 0,-2.554302 2.98882,-4.610653 6.70138,-4.610653 h 33.07443 c 3.71256,0 6.70138,2.056351 6.70138,4.610653 v 3.101757 c 0,2.554303 0.11989,4.660594 -3.59267,4.660594 3.05493,0 5.51432,2.459383 5.51432,5.514312 z"
       sodipodi:nodetypes="sssssscsssssscs" />
    <path
       id="path7"
       style="fill:#00ffff;stroke:#ffffff;stroke-width:0.529167;stroke-linecap:round;stroke-linejoin:round"
       d="m 291.21592,44.704382 h -33.07443 c -3.71256,0 -6.70138,2.056351 -6.70138,4.610653 v 3.101757 c 0,2.554303 -0.11985,4.088961 3.59271,4.088961 -3.05493,0 -5.51432,3.031013 -5.51432,6.085942 v 29.430072 c 0,0.619017 0.10098,1.213582 0.28743,1.768188 -1.15067,-1.009191 -1.87493,-2.491623 -1.87493,-4.149438 V 60.210445 c 0,-2.381556 1.49467,-4.748577 3.60097,-5.676354 l 0.002,-0.619841 v -1e-6 c -1.75491,-0.501464 -1.68131,-1.876987 -1.68131,-3.878707 v -3.101757 c 0,-2.554302 2.98882,-4.610653 6.70138,-4.610653 h 33.07443 c 3.38742,0 6.17232,1.711942 6.63413,3.952059 -1.22652,-0.963918 -3.0298,-1.570809 -5.04668,-1.570809 z"
       sodipodi:nodetypes="sssscsscsscccsssscs" />
    <path
       id="path8"
       style="fill:none;stroke:#008080;stroke-width:0.529167;stroke-linecap:round;stroke-linejoin:round"
       d="m 302.72263,93.789955 c -1.15067,-1.009191 -1.87493,-2.491623 -1.87493,-4.149438 V 60.210445 c 0,-2.381558 3.59355,-3.374795 3.60097,-5.676356 l 0.002,-0.619827 c 0.006,-1.825187 -1.68136,-1.876982 -1.68136,-3.87872 v -3.101757 c 0,-2.554302 2.98882,-4.610653 6.70138,-4.610653 h 33.07443 c 3.71256,0 6.70138,2.288103 6.70138,4.069899"
       sodipodi:nodetypes="cssssssssc" />
    <path
       id="path10"
       style="fill:#00ffff;stroke:none;stroke-width:0.529167;stroke-linecap:round;stroke-linejoin:round"
       d="m 344.13262,44.704382 h -33.07443 c -3.71256,0 -6.70138,2.056351 -6.70138,4.610653 v 3.101757 c 0,2.554303 -0.11985,4.088961 3.59271,4.088961 -3.05493,0 -5.51432,3.031013 -5.51432,6.085942 v 29.430072 c 0,0.619017 0.10098,1.213582 0.28743,1.768188 -1.15067,-1.009191 -1.87493,-2.491623 -1.87493,-4.149438 V 60.210445 c 0,-2.381556 1.49467,-4.831389 3.1041,-5.71776 -0.69905,-0.880897 -1.18244,-1.959655 -1.18244,-4.457143 v -3.101757 c 0,-2.554302 2.98882,-4.610653 6.70138,-4.610653 h 33.07443 c 3.38742,0 6.17232,1.711942 6.63413,3.952059 -1.22652,-0.963918 -3.0298,-1.570809 -5.04668,-1.570809 z"
       sodipodi:nodetypes="sssscsscsscsssscs" />
    <path
       id="path9"
       style="fill:none;stroke:#008080;stroke-width:0.529167;stroke-linecap:round;stroke-linejoin:round"
       d="m 352.75565,62.591698 v 29.430069 c 0,3.05493 -2.45939,5.514313 -5.51432,5.514313 h -39.29181 c -3.05493,0 -5.51432,-2.459383 -5.51432,-5.514313 V 62.591695 c 0,-3.054929 2.45939,-6.085942 5.51432,-6.085942 -3.71256,0 -3.59271,-1.534658 -3.59271,-4.088961 v -3.101757 c 0,-2.554302 2.98882,-4.610653 6.70138,-4.610653 h 33.07443 c 3.71256,0 6.70138,2.056351 6.70138,4.610653 v 3.101757 c 0,2.554303 0.11989,4.660594 -3.59267,4.660594 3.05493,0 5.51432,2.459383 5.51432,5.514312 z"
       sodipodi:nodetypes="sssssscsssssscs" />
    <path
       id="path11"
       style="fill:none;stroke:#000000;stroke-width:0.529167;stroke-linecap:round;stroke-linejoin:round"
       d="m 360.931,93.789955 c -1.15067,-1.009191 -1.87493,-2.491623 -1.87493,-4.149438 V 60.210445 c 0,-2.381558 3.59355,-3.374795 3.60097,-5.676356 l 0.002,-0.619827 c 0.006,-1.825187 -1.68136,-1.876982 -1.68136,-3.87872 v -3.101757 c 0,-2.554302 2.98882,-4.610653 6.70138,-4.610653 h 33.07443 c 3.71256,0 6.70138,2.288103 6.70138,4.069899"
       sodipodi:nodetypes="cssssssssc" />
    <path
       id="path12"
       style="fill:#000000;stroke:#000000;stroke-width:0.529167;stroke-linecap:round;stroke-linejoin:round"
       d="m 402.34099,44.704382 h -33.07443 c -3.71256,0 -6.70138,2.056351 -6.70138,4.610653 v 3.101757 c 0,2.554303 -0.11985,4.088961 3.59271,4.088961 -3.05493,0 -5.51432,3.031013 -5.51432,6.085942 v 29.430072 c 0,0.619017 0.10098,1.213582 0.28743,1.768188 -1.15067,-1.009191 -1.87493,-2.491623 -1.87493,-4.149438 V 60.210445 c 0,-2.381556 1.49467,-4.831389 3.1041,-5.71776 -0.69905,-0.880897 -1.18244,-1.959655 -1.18244,-4.457143 v -3.101757 c 0,-2.554302 2.98882,-4.610653 6.70138,-4.610653 h 33.07443 c 3.38742,0 6.17232,1.711942 6.63413,3.952059 -1.22652,-0.963918 -3.0298,-1.570809 -5.04668,-1.570809 z"
       sodipodi:nodetypes="sssscsscsscsssscs" />
    <path
       id="path13"
       style="fill:none;stroke:#000000;stroke-width:0.529167;stroke-linecap:round;stroke-linejoin:round"
       d="m 410.96402,62.591698 v 29.430069 c 0,3.05493 -2.45939,5.514313 -5.51432,5.514313 h -39.29181 c -3.05493,0 -5.51432,-2.459383 -5.51432,-5.514313 V 62.591695 c 0,-3.054929 2.45939,-6.085942 5.51432,-6.085942 -3.71256,0 -3.59271,-1.534658 -3.59271,-4.088961 v -3.101757 c 0,-2.554302 2.98882,-4.610653 6.70138,-4.610653 h 33.07443 c 3.71256,0 6.70138,2.056351 6.70138,4.610653 v 3.101757 c 0,2.554303 0.11989,4.660594 -3.59267,4.660594 3.05493,0 5.51432,2.459383 5.51432,5.514312 z"
       sodipodi:nodetypes="sssssscsssssscs" />
    <path
       id="path14"
       style="fill:none;stroke:#00ffff;stroke-width:0.529167;stroke-linecap:round;stroke-linejoin:round"
       d="m 463.40581,53.206722 c 0,8.127196 -6.58839,10.702247 -14.71559,14.71559 -7.68127,-3.418773 -14.71559,-6.588394 -14.71559,-14.71559 0,-4.063598 1.6471,-7.742495 4.31009,-10.405493 2.663,-2.662998 7.5237,-3.030945 9.95957,4.459801 2.13859,-7.522129 8.18843,-7.122799 10.85142,-4.459801 2.663,2.662998 4.3101,6.341895 4.3101,10.405493 z"
       sodipodi:nodetypes="scsscss" />
    <path
       style="fill:none;stroke:#00ffff;stroke-width:0.529167;stroke-linecap:round;stroke-linejoin:round"
       d="m 485.28598,79.011032 c 2.13859,-7.522129 8.18843,-7.122799 10.85142,-4.459801 2.663,2.662998 4.3101,6.341895 4.3101,10.405493 0,8.127196 -6.58839,10.702247 -14.71559,14.71559"
       id="path17" />
    <path
       style="fill:none;stroke:#00ffff;stroke-width:0.529167;stroke-linecap:round;stroke-linejoin:round"
       d="m 485.73191,67.922312 c -7.68127,-3.418773 -14.71559,-6.588394 -14.71559,-14.71559 0,-4.063598 1.6471,-7.742495 4.31009,-10.405493 2.663,-2.662998 7.5237,-3.030945 9.95957,4.459801"
       id="path16" />
    <path
       style="fill:none;stroke:#00ffff;stroke-width:0.529167;stroke-linecap:round;stroke-linejoin:round"
       d="m 484.84005,67.922312 c 7.68127,-3.418773 14.71559,-6.588394 14.71559,-14.71559 0,-4.063598 -1.6471,-7.742495 -4.31009,-10.405493 -2.663,-2.662998 -7.5237,-3.030945 -9.95957,4.459801"
       id="path18" />
    <path
       style="fill:none;stroke:#00ffff;stroke-width:0.529167;stroke-linecap:round;stroke-linejoin:round"
       d="m 484.75681,79.011032 c -2.13859,-7.522129 -8.18843,-7.122799 -10.85142,-4.459801 -2.663,2.662998 -4.3101,6.341895 -4.3101,10.405493 0,8.127196 6.58839,10.702247 14.71559,14.71559"
       id="path19" />
    <path
       style="fill:none;stroke:#008080;stroke-width:0.529167;stroke-linecap:round;stroke-linejoin:round"
       d="m 471.01632,21.45672 c 0,-4.063598 1.6471,-7.742495 4.31009,-10.405493 2.663,-2.6629977 7.5237,-3.0309447 9.95957,4.459801 2.43587,-7.4907457 7.29657,-7.1227987 9.95957,-4.459801 2.66299,2.662998 4.31009,6.341895 4.31009,10.405493 0,8.127196 -7.03432,11.296817 -14.26966,14.71559 -7.23534,-3.418773 -14.26966,-6.588394 -14.26966,-14.71559 z"
       id="path20"
       sodipodi:nodetypes="sscsscs" />
    <path
       style="fill:none;stroke:#008080;stroke-width:0.529167;stroke-linecap:round;stroke-linejoin:round"
       d="m 527.61934,36.17231 c -7.23534,-3.418773 -14.26966,-6.588394 -14.26966,-14.71559 0,-4.063598 1.6471,-7.742495 4.31009,-10.405493 2.663,-2.6629977 7.5237,-3.0309447 9.95957,4.459801"
       id="path22" />
    <path
       style="fill:none;stroke:#008080;stroke-width:0.529167;stroke-linecap:round;stroke-linejoin:round"
       d="m 527.61934,15.511028 c 2.43587,-7.4907457 7.29657,-7.1227987 9.95957,-4.459801 2.66299,2.662998 4.31009,6.341895 4.31009,10.405493 0,8.127196 -7.03432,11.296817 -14.26966,14.71559"
       id="path21" />
  </g>
</svg>
