<?xml version="1.0" encoding="UTF-8" standalone="no"?>
<!-- Created with Inkscape (http://www.inkscape.org/) -->

<svg
   width="1596.2823mm"
   height="340.52075mm"
   viewBox="0 0 1596.2824 340.52076"
   version="1.1"
   id="svg1"
   inkscape:version="1.4.2 (f4327f4, 2025-05-13)"
   sodipodi:docname="globe.svg"
   xmlns:inkscape="http://www.inkscape.org/namespaces/inkscape"
   xmlns:sodipodi="http://sodipodi.sourceforge.net/DTD/sodipodi-0.dtd"
   xmlns:xlink="http://www.w3.org/1999/xlink"
   xmlns="http://www.w3.org/2000/svg"
   xmlns:svg="http://www.w3.org/2000/svg">
  <sodipodi:namedview
     id="namedview1"
     pagecolor="#505050"
     bordercolor="#ffffff"
     borderopacity="1"
     inkscape:showpageshadow="0"
     inkscape:pageopacity="0"
     inkscape:pagecheckerboard="1"
     inkscape:deskcolor="#d1d1d1"
     inkscape:document-units="mm"
     showguides="true"
     inkscape:zoom="0.5"
     inkscape:cx="6240"
     inkscape:cy="983"
     inkscape:window-width="1366"
     inkscape:window-height="745"
     inkscape:window-x="-8"
     inkscape:window-y="-8"
     inkscape:window-maximized="1"
     inkscape:current-layer="layer1" />
  <defs
     id="defs1">
    <linearGradient
       id="linearGradient51"
       inkscape:collect="always">
      <stop
         style="stop-color:#00a1ff;stop-opacity:1;"
         offset="0"
         id="stop51" />
      <stop
         style="stop-color:#0030c3;stop-opacity:1;"
         offset="1"
         id="stop52" />
    </linearGradient>
    <linearGradient
       id="linearGradient48"
       inkscape:collect="always">
      <stop
         style="stop-color:#0030c3;stop-opacity:1;"
         offset="0"
         id="stop48" />
      <stop
         style="stop-color:#00a1ff;stop-opacity:1;"
         offset="1"
         id="stop49" />
    </linearGradient>
    <linearGradient
       inkscape:collect="always"
       xlink:href="#linearGradient48"
       id="linearGradient49"
       x1="550.09619"
       y1="22.806025"
       x2="743.5835"
       y2="141.35971"
       gradientUnits="userSpaceOnUse" />
    <radialGradient
       inkscape:collect="always"
       xlink:href="#linearGradient51"
       id="radialGradient52"
       cx="701.57239"
       cy="332.87131"
       fx="701.57239"
       fy="332.87128"
       r="164.45609"
       gradientTransform="matrix(0.98959733,-0.26341304,0.05094139,0.191378,-9.6586928,453.97038)"
       gradientUnits="userSpaceOnUse" />
    <radialGradient
       inkscape:collect="always"
       xlink:href="#linearGradient51"
       id="radialGradient54"
       cx="701.57239"
       cy="332.87131"
       fx="701.57239"
       fy="332.87131"
       r="164.45609"
       gradientTransform="matrix(0.98959733,-0.26341304,0.05094139,0.191378,-9.6586928,453.97038)"
       gradientUnits="userSpaceOnUse" />
    <radialGradient
       inkscape:collect="always"
       xlink:href="#linearGradient51"
       id="radialGradient65"
       gradientUnits="userSpaceOnUse"
       gradientTransform="matrix(0.98959733,-0.26341304,0.05094139,0.191378,344.88313,453.97038)"
       cx="701.57239"
       cy="332.87131"
       fx="701.57239"
       fy="332.87128"
       r="164.45609" />
    <radialGradient
       inkscape:collect="always"
       xlink:href="#linearGradient51"
       id="radialGradient66"
       gradientUnits="userSpaceOnUse"
       gradientTransform="matrix(0.98959733,-0.26341304,0.05094139,0.191378,344.88313,453.97038)"
       cx="701.57239"
       cy="332.87131"
       fx="701.57239"
       fy="332.87131"
       r="164.45609" />
    <linearGradient
       inkscape:collect="always"
       xlink:href="#linearGradient48"
       id="linearGradient66"
       gradientUnits="userSpaceOnUse"
       x1="550.09619"
       y1="22.806025"
       x2="743.5835"
       y2="141.35971" />
    <linearGradient
       inkscape:collect="always"
       xlink:href="#linearGradient48"
       id="linearGradient67"
       gradientUnits="userSpaceOnUse"
       x1="550.09619"
       y1="22.806025"
       x2="743.5835"
       y2="141.35971" />
    <linearGradient
       inkscape:collect="always"
       xlink:href="#linearGradient48"
       id="linearGradient68"
       gradientUnits="userSpaceOnUse"
       x1="550.09619"
       y1="22.806025"
       x2="743.5835"
       y2="141.35971" />
    <linearGradient
       inkscape:collect="always"
       xlink:href="#linearGradient48"
       id="linearGradient69"
       gradientUnits="userSpaceOnUse"
       x1="550.09619"
       y1="22.806025"
       x2="743.5835"
       y2="141.35971" />
    <linearGradient
       inkscape:collect="always"
       xlink:href="#linearGradient48"
       id="linearGradient70"
       gradientUnits="userSpaceOnUse"
       x1="550.09619"
       y1="22.806025"
       x2="743.5835"
       y2="141.35971" />
    <linearGradient
       inkscape:collect="always"
       xlink:href="#linearGradient48"
       id="linearGradient71"
       gradientUnits="userSpaceOnUse"
       x1="550.09619"
       y1="22.806025"
       x2="743.5835"
       y2="141.35971" />
    <linearGradient
       inkscape:collect="always"
       xlink:href="#linearGradient48"
       id="linearGradient72"
       gradientUnits="userSpaceOnUse"
       x1="550.09619"
       y1="22.806025"
       x2="743.5835"
       y2="141.35971" />
    <radialGradient
       inkscape:collect="always"
       xlink:href="#linearGradient51"
       id="radialGradient89"
       gradientUnits="userSpaceOnUse"
       gradientTransform="matrix(0.98959733,-0.26341304,0.05094139,0.191378,720.5917,453.97038)"
       cx="701.57239"
       cy="332.87131"
       fx="701.57239"
       fy="332.87128"
       r="164.45609" />
    <radialGradient
       inkscape:collect="always"
       xlink:href="#linearGradient51"
       id="radialGradient90"
       gradientUnits="userSpaceOnUse"
       gradientTransform="matrix(0.98959733,-0.26341304,0.05094139,0.191378,720.5917,453.97038)"
       cx="701.57239"
       cy="332.87131"
       fx="701.57239"
       fy="332.87131"
       r="164.45609" />
    <radialGradient
       inkscape:collect="always"
       xlink:href="#linearGradient51"
       id="radialGradient91"
       gradientUnits="userSpaceOnUse"
       gradientTransform="matrix(0.98959733,-0.26341304,0.05094139,0.191378,720.5917,453.97038)"
       cx="701.57239"
       cy="332.87131"
       fx="701.57239"
       fy="332.87128"
       r="164.45609" />
    <radialGradient
       inkscape:collect="always"
       xlink:href="#linearGradient51"
       id="radialGradient92"
       gradientUnits="userSpaceOnUse"
       gradientTransform="matrix(0.98959733,-0.26341304,0.05094139,0.191378,720.5917,453.97038)"
       cx="701.57239"
       cy="332.87131"
       fx="701.57239"
       fy="332.87131"
       r="164.45609" />
    <linearGradient
       inkscape:collect="always"
       xlink:href="#linearGradient48"
       id="linearGradient100"
       gradientUnits="userSpaceOnUse"
       x1="550.09619"
       y1="22.806025"
       x2="743.5835"
       y2="141.35971" />
    <linearGradient
       inkscape:collect="always"
       xlink:href="#linearGradient48"
       id="linearGradient101"
       gradientUnits="userSpaceOnUse"
       x1="550.09619"
       y1="22.806025"
       x2="743.5835"
       y2="141.35971" />
    <linearGradient
       inkscape:collect="always"
       xlink:href="#linearGradient48"
       id="linearGradient102"
       gradientUnits="userSpaceOnUse"
       x1="550.09619"
       y1="22.806025"
       x2="743.5835"
       y2="141.35971" />
    <linearGradient
       inkscape:collect="always"
       xlink:href="#linearGradient48"
       id="linearGradient103"
       gradientUnits="userSpaceOnUse"
       x1="550.09619"
       y1="22.806025"
       x2="743.5835"
       y2="141.35971" />
    <linearGradient
       inkscape:collect="always"
       xlink:href="#linearGradient48"
       id="linearGradient104"
       gradientUnits="userSpaceOnUse"
       x1="550.09619"
       y1="22.806025"
       x2="743.5835"
       y2="141.35971" />
    <linearGradient
       inkscape:collect="always"
       xlink:href="#linearGradient48"
       id="linearGradient105"
       gradientUnits="userSpaceOnUse"
       x1="550.09619"
       y1="22.806025"
       x2="743.5835"
       y2="141.35971" />
    <linearGradient
       inkscape:collect="always"
       xlink:href="#linearGradient48"
       id="linearGradient106"
       gradientUnits="userSpaceOnUse"
       x1="550.09619"
       y1="22.806025"
       x2="743.5835"
       y2="141.35971" />
    <linearGradient
       inkscape:collect="always"
       xlink:href="#linearGradient48"
       id="linearGradient107"
       gradientUnits="userSpaceOnUse"
       x1="550.09619"
       y1="22.806025"
       x2="743.5835"
       y2="141.35971" />
    <linearGradient
       inkscape:collect="always"
       xlink:href="#linearGradient48"
       id="linearGradient108"
       gradientUnits="userSpaceOnUse"
       x1="550.09619"
       y1="22.806025"
       x2="743.5835"
       y2="141.35971" />
    <linearGradient
       inkscape:collect="always"
       xlink:href="#linearGradient48"
       id="linearGradient109"
       gradientUnits="userSpaceOnUse"
       x1="550.09619"
       y1="22.806025"
       x2="743.5835"
       y2="141.35971" />
    <linearGradient
       inkscape:collect="always"
       xlink:href="#linearGradient48"
       id="linearGradient110"
       gradientUnits="userSpaceOnUse"
       x1="550.09619"
       y1="22.806025"
       x2="743.5835"
       y2="141.35971" />
    <linearGradient
       inkscape:collect="always"
       xlink:href="#linearGradient48"
       id="linearGradient111"
       gradientUnits="userSpaceOnUse"
       x1="550.09619"
       y1="22.806025"
       x2="743.5835"
       y2="141.35971" />
    <linearGradient
       inkscape:collect="always"
       xlink:href="#linearGradient48"
       id="linearGradient112"
       gradientUnits="userSpaceOnUse"
       x1="550.09619"
       y1="22.806025"
       x2="743.5835"
       y2="141.35971" />
  </defs>
  <g
     id="g35"
     transform="translate(52.916669)">
    <ellipse
       style="fill:none;stroke:#000000;stroke-width:6.9533;stroke-linecap:square;stroke-dasharray:none"
       id="ellipse29"
       cx="648.87512"
       cy="148.5"
       rx="124.30467"
       ry="76.824516"
       transform="translate(2.2649765e-6,-68.197984)" />
    <ellipse
       style="fill:none;stroke:#000000;stroke-width:6.9533;stroke-linecap:square;stroke-dasharray:none"
       id="ellipse30"
       cx="648.87512"
       cy="148.5"
       ry="76.824516"
       rx="65.70166"
       transform="translate(2.2649765e-6,-68.197984)" />
    <ellipse
       style="fill:none;stroke:#000000;stroke-width:6.955;stroke-linecap:square;stroke-dasharray:none"
       id="ellipse31"
       cx="648.87512"
       cy="148.5"
       ry="76.824516"
       rx="25.000002"
       transform="translate(2.2649765e-6,-68.197984)" />
    <ellipse
       style="fill:none;stroke:#000000;stroke-width:6.955;stroke-linecap:square;stroke-dasharray:none"
       id="ellipse33"
       cx="648.24121"
       cy="193.39275"
       rx="98.965965"
       ry="18.385414"
       transform="translate(2.2649765e-6,-68.197984)" />
    <ellipse
       style="fill:none;stroke:#000000;stroke-width:6.955;stroke-linecap:square;stroke-dasharray:none"
       id="ellipse34"
       cx="648.24121"
       cy="103.60725"
       rx="98.965965"
       ry="18.385414"
       transform="translate(2.2649765e-6,-68.197984)" />
    <ellipse
       style="fill:none;stroke:#000000;stroke-width:6.9533;stroke-linecap:square;stroke-dasharray:none"
       id="ellipse35"
       cx="648.87512"
       cy="148.5"
       ry="76.824516"
       rx="99.999992"
       transform="translate(2.2649765e-6,-68.197984)" />
  </g>
  <g
     inkscape:label="Layer 1"
     inkscape:groupmode="layer"
     id="layer1"
     transform="translate(2.2649765e-6,-68.197982)">
    <path
       style="baseline-shift:baseline;display:inline;overflow:visible;opacity:1;vector-effect:none;fill:url(#radialGradient91);fill-opacity:1;stroke:url(#radialGradient92);stroke-linecap:square;enable-background:accumulate;stop-color:#000000;stop-opacity:1"
       d="m 1594.2272,284.79015 -16.8803,-2.5743 c -9.569,-1.45932 -22.2507,-1.48972 -37.503,-0.2958 -30.5047,2.38781 -71.1681,9.75181 -115.1227,21.52935 -43.9546,11.77753 -82.8521,25.73168 -110.4638,38.91601 -13.8059,6.59216 -24.7731,12.95964 -32.3307,19.00761 l -13.3335,10.66998 m 8.9066,-2.3865 c -0.1103,-0.41173 -0.1209,-1.27875 1.0531,-3.1029 1.174,-1.82415 3.4588,-4.25264 6.7528,-6.89276 6.588,-5.28026 17.1116,-11.47138 30.5375,-17.8821 26.8517,-12.82143 65.3705,-26.67161 108.878,-38.32934 43.5075,-11.65774 83.791,-18.92244 113.456,-21.24453 14.8325,-1.16105 27.0399,-1.06065 35.3854,0.21819 4.1728,0.63943 7.3676,1.59968 9.2964,2.59243 1.9288,0.99276 2.3531,1.74891 2.4635,2.16064"
       id="path90"
       sodipodi:nodetypes="csssssccsssssssc"
       inkscape:export-filename="path90.png"
       inkscape:export-xdpi="96"
       inkscape:export-ydpi="96" />
    <ellipse
       style="fill:none;stroke:#000000;stroke-width:1.39066;stroke-linecap:square"
       id="path1"
       cx="125"
       cy="148.5"
       rx="124.30467"
       ry="76.824516" />
    <ellipse
       style="fill:none;stroke:#000000;stroke-width:1.39066;stroke-linecap:square"
       id="ellipse9"
       cx="125"
       cy="148.5"
       ry="76.824516"
       rx="100" />
    <ellipse
       style="fill:none;stroke:#000000;stroke-width:1.39066;stroke-linecap:square"
       id="ellipse10"
       cx="125"
       cy="148.5"
       ry="76.824516"
       rx="75" />
    <ellipse
       style="fill:none;stroke:#000000;stroke-width:1.39066;stroke-linecap:square"
       id="ellipse11"
       cx="125"
       cy="148.5"
       ry="76.824516"
       rx="50" />
    <ellipse
       style="fill:none;stroke:#000000;stroke-width:1.39066;stroke-linecap:square"
       id="ellipse12"
       cx="125"
       cy="148.5"
       ry="76.824516"
       rx="25.000002" />
    <ellipse
       style="fill:none;stroke:#000000;stroke-width:1;stroke-linecap:square"
       id="path13"
       cx="124.36608"
       cy="148.5"
       rx="123.67076"
       ry="22.974949" />
    <ellipse
       style="fill:none;stroke:#000000;stroke-width:0.954;stroke-linecap:square"
       id="ellipse14"
       cx="124.36608"
       cy="125.52505"
       rx="117.98196"
       ry="21.918112" />
    <ellipse
       style="fill:none;stroke:#000000;stroke-width:0.954;stroke-linecap:square"
       id="ellipse15"
       cx="124.36608"
       cy="170.31528"
       rx="117.98196"
       ry="21.918112" />
    <ellipse
       style="fill:none;stroke:#000000;stroke-width:0.800237;stroke-linecap:square"
       id="ellipse16"
       cx="124.36608"
       cy="193.39275"
       rx="98.965965"
       ry="18.385414" />
    <ellipse
       style="fill:none;stroke:#000000;stroke-width:0.800237;stroke-linecap:square"
       id="ellipse17"
       cx="124.36608"
       cy="103.60725"
       rx="98.965965"
       ry="18.385414" />
    <ellipse
       style="fill:none;stroke:#000000;stroke-width:1.39066;stroke-linecap:square"
       id="ellipse18"
       cx="384.29153"
       cy="148.5"
       rx="124.30467"
       ry="76.824516" />
    <ellipse
       style="fill:none;stroke:#000000;stroke-width:1.39066;stroke-linecap:square"
       id="ellipse20"
       cx="384.29153"
       cy="148.5"
       ry="76.824516"
       rx="65.70166" />
    <ellipse
       style="fill:none;stroke:#000000;stroke-width:1.391;stroke-linecap:square;stroke-dasharray:none"
       id="ellipse22"
       cx="384.29153"
       cy="148.5"
       ry="76.824516"
       rx="25.000002" />
    <ellipse
       style="fill:none;stroke:#000000;stroke-width:1.391;stroke-linecap:square;stroke-dasharray:none"
       id="ellipse23"
       cx="383.65762"
       cy="148.5"
       rx="123.67076"
       ry="22.974949" />
    <ellipse
       style="fill:none;stroke:#000000;stroke-width:1.391;stroke-linecap:square;stroke-dasharray:none"
       id="ellipse26"
       cx="383.65762"
       cy="193.39275"
       rx="98.965965"
       ry="18.385414" />
    <ellipse
       style="fill:none;stroke:#000000;stroke-width:1.391;stroke-linecap:square;stroke-dasharray:none"
       id="ellipse27"
       cx="383.65762"
       cy="103.60725"
       rx="98.965965"
       ry="18.385414" />
    <ellipse
       style="fill:none;stroke:#000000;stroke-width:1.39066;stroke-linecap:square"
       id="ellipse28"
       cx="384.29153"
       cy="148.5"
       ry="76.824516"
       rx="99.999992" />
    <path
       style="fill:none;stroke:#000000;stroke-width:1;stroke-linecap:square"
       d="M 384.29154,225.32451 V 71.675484"
       id="path28" />
    <path
       style="baseline-shift:baseline;display:inline;overflow:visible;opacity:1;vector-effect:none;fill:#000000;fill-opacity:1;stroke:#000000;stroke-linecap:square;stroke-opacity:1;enable-background:accumulate;stop-color:#000000;stop-opacity:1"
       d="m 694.46838,123.53262 c -43.95434,11.77753 -82.85166,25.73168 -110.46321,38.91601 -13.80579,6.59216 -24.77292,12.95964 -32.33055,19.00761 l -13.33336,10.66998 c -2.95061,2.36122 3.83263,6.26701 7.14925,7.97408 3.31663,1.70708 7.33527,2.77312 12.11926,3.50621 9.56797,1.46618 22.25114,1.49161 37.50339,0.2977 30.50447,-2.38782 71.1671,-9.7537 115.12145,-21.53124 43.95435,-11.77753 82.85216,-25.72981 110.46372,-38.91413 13.80579,-6.59216 24.77702,-12.95577 32.33004,-19.0095 3.77651,-3.02687 6.72185,-5.95891 8.74059,-9.0956 2.01874,-3.13667 5.94027,-9.91063 2.20439,-10.48037 l -16.88013,-2.5743 c -9.56902,-1.45932 -22.25064,-1.48972 -37.50288,-0.2958 -30.50447,2.38781 -71.16761,9.75181 -115.12196,21.52935 z m 0,0 c 43.50726,-11.65774 83.79045,-18.92244 113.4553,-21.24453 14.83242,-1.16105 27.03976,-1.06065 35.38525,0.21819 4.17274,0.63943 7.36753,1.59968 9.29632,2.59243 1.9288,0.99276 2.35314,1.74891 2.46347,2.16064 0.11032,0.41173 0.1209,1.27875 -1.05311,3.10291 -1.174,1.82415 -3.46065,4.25313 -6.75464,6.89326 -6.58798,5.28025 -17.10964,11.47087 -30.53542,17.88159 -26.85156,12.82143 -65.37017,26.67161 -108.87744,38.32934 -43.50726,11.65774 -83.79044,18.92244 -113.45529,21.24453 -14.83242,1.16105 -27.04165,1.06115 -35.38713,-0.21769 -4.17275,-0.63942 -7.36564,-1.60017 -9.29444,-2.59293 -1.9288,-0.99275 -2.35314,-1.74891 -2.46347,-2.16064 -0.11032,-0.41173 -0.1209,-1.27875 1.05311,-3.1029 1.17401,-1.82415 3.45876,-4.25264 6.75275,-6.89276 6.58798,-5.28026 17.11153,-11.47138 30.53731,-17.8821 26.85156,-12.82143 65.37017,-26.67161 108.87743,-38.32934 z"
       id="ellipse32"
       sodipodi:nodetypes="ssssssssssssssssssssssssssssssss" />
    <g
       id="g41"
       transform="translate(391.58352,68.197984)">
      <ellipse
         style="fill:none;stroke:#000000;stroke-width:6.9533;stroke-linecap:square;stroke-dasharray:none"
         id="ellipse36"
         cx="648.87512"
         cy="148.5"
         rx="124.30467"
         ry="76.824516"
         transform="translate(2.2649765e-6,-68.197984)" />
      <ellipse
         style="fill:none;stroke:#000000;stroke-width:6.9533;stroke-linecap:square;stroke-dasharray:none"
         id="ellipse37"
         cx="648.87512"
         cy="148.5"
         ry="76.824516"
         rx="65.70166"
         transform="translate(2.2649765e-6,-68.197984)" />
      <ellipse
         style="fill:none;stroke:#000000;stroke-width:6.955;stroke-linecap:square;stroke-dasharray:none"
         id="ellipse38"
         cx="648.87512"
         cy="148.5"
         ry="76.824516"
         rx="25.000002"
         transform="translate(2.2649765e-6,-68.197984)" />
      <ellipse
         style="fill:none;stroke:#000000;stroke-width:6.955;stroke-linecap:square;stroke-dasharray:none"
         id="ellipse39"
         cx="648.24121"
         cy="193.39275"
         rx="98.965965"
         ry="18.385414"
         transform="translate(2.2649765e-6,-68.197984)" />
      <ellipse
         style="fill:none;stroke:#000000;stroke-width:6.955;stroke-linecap:square;stroke-dasharray:none"
         id="ellipse40"
         cx="648.24121"
         cy="103.60725"
         rx="98.965965"
         ry="18.385414"
         transform="translate(2.2649765e-6,-68.197984)" />
      <ellipse
         style="fill:none;stroke:#000000;stroke-width:6.9533;stroke-linecap:square;stroke-dasharray:none"
         id="ellipse41"
         cx="648.87512"
         cy="148.5"
         ry="76.824516"
         rx="99.999992"
         transform="translate(2.2649765e-6,-68.197984)" />
    </g>
    <g
       id="g48"
       transform="translate(52.916667,248.1147)"
       style="stroke:url(#linearGradient49)">
      <ellipse
         style="fill:none;stroke:url(#linearGradient107);stroke-width:6.9533;stroke-linecap:square;stroke-dasharray:none"
         id="ellipse43"
         cx="648.87512"
         cy="148.5"
         rx="124.30467"
         ry="76.824516"
         transform="translate(2.2649765e-6,-68.197984)" />
      <ellipse
         style="fill:none;stroke:url(#linearGradient108);stroke-width:6.9533;stroke-linecap:square;stroke-dasharray:none"
         id="ellipse44"
         cx="648.87512"
         cy="148.5"
         ry="76.824516"
         rx="65.70166"
         transform="translate(2.2649765e-6,-68.197984)" />
      <ellipse
         style="fill:none;stroke:url(#linearGradient109);stroke-width:6.955;stroke-linecap:square;stroke-dasharray:none"
         id="ellipse45"
         cx="648.87512"
         cy="148.5"
         ry="76.824516"
         rx="25.000002"
         transform="translate(2.2649765e-6,-68.197984)" />
      <ellipse
         style="fill:none;stroke:url(#linearGradient110);stroke-width:6.955;stroke-linecap:square;stroke-dasharray:none"
         id="ellipse46"
         cx="648.24121"
         cy="193.39275"
         rx="98.965965"
         ry="18.385414"
         transform="translate(2.2649765e-6,-68.197984)" />
      <ellipse
         style="fill:none;stroke:url(#linearGradient111);stroke-width:6.955;stroke-linecap:square;stroke-dasharray:none"
         id="ellipse47"
         cx="648.24121"
         cy="103.60725"
         rx="98.965965"
         ry="18.385414"
         transform="translate(2.2649765e-6,-68.197984)" />
      <ellipse
         style="fill:none;stroke:url(#linearGradient112);stroke-width:6.9533;stroke-linecap:square;stroke-dasharray:none"
         id="ellipse48"
         cx="648.87512"
         cy="148.5"
         ry="76.824516"
         rx="99.999992"
         transform="translate(2.2649765e-6,-68.197984)" />
    </g>
    <path
       style="baseline-shift:baseline;display:inline;overflow:visible;opacity:1;vector-effect:none;fill:url(#radialGradient52);fill-opacity:1;stroke:url(#radialGradient54);stroke-linecap:square;enable-background:accumulate;stop-color:#000000;stop-opacity:1"
       d="m 538.34126,372.043 c -2.95061,2.36122 3.83263,6.26701 7.14925,7.97408 3.31663,1.70708 7.33527,2.77312 12.11926,3.50621 9.56797,1.46618 22.25114,1.49161 37.50339,0.2977 30.50447,-2.38782 71.1671,-9.7537 115.12145,-21.53124 43.95435,-11.77753 82.85216,-25.72981 110.46372,-38.91413 13.80579,-6.59216 24.77702,-12.95577 32.33004,-19.0095 3.77651,-3.02687 6.72185,-5.95891 8.74059,-9.0956 2.01874,-3.13667 5.94027,-9.91063 2.20439,-10.48037 m 0,0 -16.88013,-2.5743 c -9.56902,-1.45932 -22.25064,-1.48972 -37.50288,-0.2958 -30.50447,2.38781 -71.16761,9.75181 -115.12196,21.52935 -43.95434,11.77753 -82.85166,25.73168 -110.46321,38.91601 -13.80579,6.59216 -24.77292,12.95964 -32.33055,19.00761 L 538.34126,372.043 m 8.90652,-2.3865 c -0.11032,-0.41173 -0.1209,-1.27875 1.05311,-3.1029 1.17401,-1.82415 3.45876,-4.25264 6.75275,-6.89276 6.58798,-5.28026 17.11153,-11.47138 30.53731,-17.8821 26.85156,-12.82143 65.37017,-26.67161 108.87743,-38.32934 43.50726,-11.65774 83.79045,-18.92244 113.4553,-21.24453 14.83242,-1.16105 27.03976,-1.06065 35.38525,0.21819 4.17274,0.63943 7.36753,1.59968 9.29632,2.59243 1.9288,0.99276 2.35314,1.74891 2.46347,2.16064 m 0,0 c 0.11032,0.41173 0.1209,1.27875 -1.05311,3.10291 -1.174,1.82415 -3.46065,4.25313 -6.75464,6.89326 -6.58798,5.28025 -17.10964,11.47087 -30.53542,17.88159 -26.85156,12.82143 -65.37017,26.67161 -108.87744,38.32934 -43.50726,11.65774 -83.79044,18.92244 -113.45529,21.24453 -14.83242,1.16105 -27.04165,1.06115 -35.38713,-0.21769 -4.17275,-0.63942 -7.36564,-1.60017 -9.29444,-2.59293 -1.9288,-0.99275 -2.35314,-1.74891 -2.46347,-2.16064"
       id="path48"
       sodipodi:nodetypes="csssssssccsssssccsssssssccsssssssc" />
    <g
       id="g5"
       transform="matrix(0.25955631,0,0,0.25955631,714.87329,318.88305)"
       style="stroke-width:1.00171;stroke-dasharray:none">
      <path
         style="baseline-shift:baseline;display:inline;overflow:visible;fill:#ff0010;fill-opacity:1;stroke:none;stroke-width:1.00171;stroke-linecap:square;stroke-linejoin:miter;stroke-dasharray:none;stroke-opacity:1;enable-background:accumulate;stop-color:#000000"
         d="m 292.37972,4.0820133 c 9.16495,2.149132 17.28372,6.8255527 23.17966,12.5377867 14.99841,14.531082 22.98327,32.423131 19.34349,49.976487 -1.83049,8.827818 -6.53941,15.895865 -13.10754,21.229755 -6.56815,5.333889 -14.92494,9.041477 -24.41992,11.820451 -24.90101,7.288087 -45.33175,6.315267 -82.55997,4.579187 -0.17386,-1.98994 13.34353,-2.11555 15.33339,-2.29041 23.93919,-2.079552 47.3612,-4.015756 65.19329,-9.23489 8.91606,-2.609534 16.39344,-6.030668 21.89055,-10.49477 5.49712,-4.464131 9.09023,-9.862291 10.58648,-17.078168 C 330.83282,50.59356 324.32792,35.185229 310.52507,21.812478 303.98565,15.476798 293.6153,10.406965 282.68455,10.066473 256.06512,9.2372993 221.22973,50.712396 244.56247,21.698415 255.84023,7.7039553 269.93512,2.4250663 282.91095,2.8292683 c 3.24393,0.10104 6.41377,0.536361 9.46877,1.252745 z"
         id="path1-1"
         sodipodi:nodetypes="sssssccssssscss" />
      <path
         style="baseline-shift:baseline;display:inline;overflow:visible;fill:#ff0010;fill-opacity:1;stroke:none;stroke-width:1.00171;stroke-linecap:square;stroke-linejoin:miter;stroke-dasharray:none;stroke-opacity:1;enable-background:accumulate;stop-color:#000000"
         d="m 225.84832,-5.4769147 c -9.26385,-1.672168 -18.57266,-0.609441 -26.25376,2.287528 -19.5396,7.369456 -33.98025,20.6114667 -37.62002,38.1648227 -1.83049,8.827818 -0.32017,17.185456 3.58562,24.691165 3.90579,7.505711 10.09939,14.230393 17.70658,20.555585 19.95014,16.588197 39.08324,23.819124 73.93239,37.028644 0.95074,-1.75674 -11.40222,-7.2467 -13.1585,-8.19834 C 222.90201,97.625831 202.18095,86.536344 187.89426,74.657224 180.75089,68.71769 175.2503,62.60551 171.98139,56.323732 c -3.26889,-6.281806 -4.41937,-12.663574 -2.92313,-19.879451 3.01367,-14.533883 15.10882,-26.085403 33.09087,-32.8673997 8.51941,-3.213157 20.05059,-3.741601 30.21552,0.2922 24.75442,9.8234437 40.22666,61.7300727 30.354,25.8307887 -4.78355,-17.32485 -15.6174,-27.7728347 -27.68413,-32.5613297 -3.01664,-1.19712 -6.09824,-2.058065 -9.1862,-2.615455 z"
         id="path3"
         sodipodi:nodetypes="sssssccssssscss" />
      <path
         style="baseline-shift:baseline;display:inline;overflow:visible;fill:#ff0010;fill-opacity:1;stroke:none;stroke-width:1.00171;stroke-linecap:square;stroke-linejoin:miter;stroke-dasharray:none;stroke-opacity:1;enable-background:accumulate;stop-color:#000000"
         d="m 297.43985,-18.988173 c 12.96931,3.041237 24.45819,9.6588413 32.80152,17.7422213 21.22426,20.5629347 32.52364,45.8819757 27.37299,70.7217297 -2.59033,12.492246 -9.25392,22.494238 -18.54849,30.042226 -9.29459,7.547986 -21.12027,12.794596 -34.55662,16.727126 -35.23742,10.31337 -64.14896,8.93672 -116.83062,6.48 -0.24603,-2.81596 18.88243,-2.99371 21.69828,-3.24115 33.87636,-2.94278 67.02084,-5.6827 92.25503,-13.0683 12.61712,-3.69275 23.19835,-8.533998 30.97732,-14.85115 7.77897,-6.31719 12.86358,-13.956128 14.98092,-24.167316 4.26464,-20.566897 -4.94044,-42.371226 -24.47285,-61.2950047 -9.25394,-8.965622 -23.92902,-16.1399423 -39.39713,-16.6217733 -37.66914,-1.173362 -86.96471,57.518046 -53.94655,16.4603613 15.95916,-19.8035603 35.90485,-27.2737153 54.26694,-26.7017293 4.59048,0.14298 9.07613,0.759004 13.39926,1.772759 z"
         id="path4"
         sodipodi:nodetypes="sssssccssssscss" />
      <path
         style="baseline-shift:baseline;display:inline;overflow:visible;fill:#ff0010;fill-opacity:1;stroke:none;stroke-width:1.00171;stroke-linecap:square;stroke-linejoin:miter;stroke-dasharray:none;stroke-opacity:1;enable-background:accumulate;stop-color:#000000"
         d="m 222.72037,10.528496 c -6.60865,-1.1928907 -13.24938,-0.434763 -18.72893,1.631882 -13.93919,5.257231 -24.24088,14.703834 -26.83743,27.226071 -1.30584,6.2976 -0.22839,12.259785 2.55792,17.614217 2.78631,5.354433 7.20472,10.151695 12.63155,14.663971 14.23205,11.833709 27.88125,16.992118 52.74198,26.415542 0.67825,-1.253228 -8.13414,-5.169664 -9.38703,-5.848542 -15.07989,-8.151565 -29.86192,-16.0626 -40.05377,-24.536942 -5.09594,-4.237152 -9.01997,-8.597468 -11.35194,-13.078769 -2.33197,-4.481324 -3.15271,-9.033958 -2.08531,-14.181631 2.14989,-10.368201 10.77835,-18.608839 23.6064,-23.44699 6.0776,-2.292205 14.30373,-2.669186 21.55519,0.20845 17.65935,7.007863 28.69695,44.037084 21.65398,18.427205 -3.4125,-12.359227 -11.14116,-19.812623 -19.74934,-23.228646 -2.15202,-0.854003 -4.35037,-1.468186 -6.55327,-1.865818 z"
         id="path5"
         sodipodi:nodetypes="sssssccssssscss" />
    </g>
    <g
       id="g61"
       transform="translate(407.45853,248.1147)"
       style="stroke:url(#linearGradient72)">
      <ellipse
         style="fill:none;stroke:url(#linearGradient66);stroke-width:6.9533;stroke-linecap:square;stroke-dasharray:none"
         id="ellipse56"
         cx="648.87512"
         cy="148.5"
         rx="124.30467"
         ry="76.824516"
         transform="translate(2.2649765e-6,-68.197984)" />
      <ellipse
         style="fill:none;stroke:url(#linearGradient67);stroke-width:6.9533;stroke-linecap:square;stroke-dasharray:none"
         id="ellipse57"
         cx="648.87512"
         cy="148.5"
         ry="76.824516"
         rx="65.70166"
         transform="translate(2.2649765e-6,-68.197984)" />
      <ellipse
         style="fill:none;stroke:url(#linearGradient68);stroke-width:6.955;stroke-linecap:square;stroke-dasharray:none"
         id="ellipse58"
         cx="648.87512"
         cy="148.5"
         ry="76.824516"
         rx="25.000002"
         transform="translate(2.2649765e-6,-68.197984)" />
      <ellipse
         style="fill:none;stroke:url(#linearGradient69);stroke-width:6.955;stroke-linecap:square;stroke-dasharray:none"
         id="ellipse59"
         cx="648.24121"
         cy="193.39275"
         rx="98.965965"
         ry="18.385414"
         transform="translate(2.2649765e-6,-68.197984)" />
      <ellipse
         style="fill:none;stroke:url(#linearGradient70);stroke-width:6.955;stroke-linecap:square;stroke-dasharray:none"
         id="ellipse60"
         cx="648.24121"
         cy="103.60725"
         rx="98.965965"
         ry="18.385414"
         transform="translate(2.2649765e-6,-68.197984)" />
      <ellipse
         style="fill:none;stroke:url(#linearGradient71);stroke-width:6.9533;stroke-linecap:square;stroke-dasharray:none"
         id="ellipse61"
         cx="648.87512"
         cy="148.5"
         ry="76.824516"
         rx="99.999992"
         transform="translate(2.2649765e-6,-68.197984)" />
    </g>
    <path
       style="baseline-shift:baseline;display:inline;overflow:visible;opacity:1;vector-effect:none;fill:url(#radialGradient65);fill-opacity:1;stroke:url(#radialGradient66);stroke-linecap:square;enable-background:accumulate;stop-color:#000000;stop-opacity:1"
       d="m 892.88315,372.043 c -2.95061,2.36122 3.83263,6.26701 7.14925,7.97408 3.31663,1.70708 7.33527,2.77312 12.11926,3.50621 9.56797,1.46618 22.25114,1.49161 37.50339,0.2977 30.50447,-2.38782 71.16715,-9.7537 115.12185,-21.53124 43.9545,-11.77753 82.8526,-25.72981 110.4643,-38.91413 13.8059,-6.59216 24.7771,-12.95577 32.3302,-19.0095 3.7765,-3.02687 6.7219,-5.95891 8.7406,-9.0956 2.0188,-3.13667 5.9404,-9.91063 2.2045,-10.48037 m 0,0 -16.8803,-2.5743 c -9.569,-1.45932 -22.2507,-1.48972 -37.503,-0.2958 -30.5047,2.38781 -71.1681,9.75181 -115.1227,21.52935 -43.9546,11.77753 -82.85189,25.73168 -110.46344,38.91601 -13.80579,6.59216 -24.77292,12.95964 -32.33055,19.00761 L 892.88315,372.043 m 8.90652,-2.3865 c -0.11032,-0.41173 -0.1209,-1.27875 1.05311,-3.1029 1.17401,-1.82415 3.45876,-4.25264 6.75275,-6.89276 6.58798,-5.28026 17.11153,-11.47138 30.53731,-17.8821 26.85156,-12.82143 65.37016,-26.67161 108.87766,-38.32934 43.5075,-11.65774 83.791,-18.92244 113.456,-21.24453 14.8325,-1.16105 27.0399,-1.06065 35.3854,0.21819 4.1728,0.63943 7.3676,1.59968 9.2964,2.59243 1.9288,0.99276 2.3531,1.74891 2.4635,2.16064 m 0,0 c 0.1103,0.41173 0.1209,1.27875 -1.0531,3.10291 -1.174,1.82415 -3.4607,4.25313 -6.7547,6.89326 -6.588,5.28025 -17.1098,11.47087 -30.5356,17.88159 -26.8517,12.82143 -65.3705,26.67161 -108.8781,38.32934 -43.5075,11.65774 -83.79074,18.92244 -113.45559,21.24453 -14.83242,1.16105 -27.04165,1.06115 -35.38713,-0.21769 -4.17275,-0.63942 -7.36564,-1.60017 -9.29444,-2.59293 -1.9288,-0.99275 -2.35314,-1.74891 -2.46347,-2.16064"
       id="path61"
       sodipodi:nodetypes="csssssssccsssssccsssssssccsssssssc" />
    <g
       id="g65"
       transform="matrix(0.25955631,0,0,0.25955631,1069.4156,318.88305)"
       style="stroke-width:1.00171;stroke-dasharray:none">
      <path
         style="baseline-shift:baseline;display:inline;overflow:visible;fill:#ff0010;fill-opacity:1;stroke:none;stroke-width:1.00171;stroke-linecap:square;stroke-linejoin:miter;stroke-dasharray:none;stroke-opacity:1;enable-background:accumulate;stop-color:#000000"
         d="m 292.37972,4.0820133 c 9.16495,2.149132 17.28372,6.8255527 23.17966,12.5377867 14.99841,14.531082 22.98327,32.423131 19.34349,49.976487 -1.83049,8.827818 -6.53941,15.895865 -13.10754,21.229755 -6.56815,5.333889 -14.92494,9.041477 -24.41992,11.820451 -24.90101,7.288087 -45.33175,6.315267 -82.55997,4.579187 -0.17386,-1.98994 13.34353,-2.11555 15.33339,-2.29041 23.93919,-2.079552 47.3612,-4.015756 65.19329,-9.23489 8.91606,-2.609534 16.39344,-6.030668 21.89055,-10.49477 5.49712,-4.464131 9.09023,-9.862291 10.58648,-17.078168 C 330.83282,50.59356 324.32792,35.185229 310.52507,21.812478 303.98565,15.476798 293.6153,10.406965 282.68455,10.066473 256.06512,9.2372993 221.22973,50.712396 244.56247,21.698415 255.84023,7.7039553 269.93512,2.4250663 282.91095,2.8292683 c 3.24393,0.10104 6.41377,0.536361 9.46877,1.252745 z"
         id="path62"
         sodipodi:nodetypes="sssssccssssscss" />
      <path
         style="baseline-shift:baseline;display:inline;overflow:visible;fill:#ff0010;fill-opacity:1;stroke:none;stroke-width:1.00171;stroke-linecap:square;stroke-linejoin:miter;stroke-dasharray:none;stroke-opacity:1;enable-background:accumulate;stop-color:#000000"
         d="m 225.84832,-5.4769147 c -9.26385,-1.672168 -18.57266,-0.609441 -26.25376,2.287528 -19.5396,7.369456 -33.98025,20.6114667 -37.62002,38.1648227 -1.83049,8.827818 -0.32017,17.185456 3.58562,24.691165 3.90579,7.505711 10.09939,14.230393 17.70658,20.555585 19.95014,16.588197 39.08324,23.819124 73.93239,37.028644 0.95074,-1.75674 -11.40222,-7.2467 -13.1585,-8.19834 C 222.90201,97.625831 202.18095,86.536344 187.89426,74.657224 180.75089,68.71769 175.2503,62.60551 171.98139,56.323732 c -3.26889,-6.281806 -4.41937,-12.663574 -2.92313,-19.879451 3.01367,-14.533883 15.10882,-26.085403 33.09087,-32.8673997 8.51941,-3.213157 20.05059,-3.741601 30.21552,0.2922 24.75442,9.8234437 40.22666,61.7300727 30.354,25.8307887 -4.78355,-17.32485 -15.6174,-27.7728347 -27.68413,-32.5613297 -3.01664,-1.19712 -6.09824,-2.058065 -9.1862,-2.615455 z"
         id="path63"
         sodipodi:nodetypes="sssssccssssscss" />
      <path
         style="baseline-shift:baseline;display:inline;overflow:visible;fill:#ff0010;fill-opacity:1;stroke:none;stroke-width:1.00171;stroke-linecap:square;stroke-linejoin:miter;stroke-dasharray:none;stroke-opacity:1;enable-background:accumulate;stop-color:#000000"
         d="m 297.43985,-18.988173 c 12.96931,3.041237 24.45819,9.6588413 32.80152,17.7422213 21.22426,20.5629347 32.52364,45.8819757 27.37299,70.7217297 -2.59033,12.492246 -9.25392,22.494238 -18.54849,30.042226 -9.29459,7.547986 -21.12027,12.794596 -34.55662,16.727126 -35.23742,10.31337 -64.14896,8.93672 -116.83062,6.48 -0.24603,-2.81596 18.88243,-2.99371 21.69828,-3.24115 33.87636,-2.94278 67.02084,-5.6827 92.25503,-13.0683 12.61712,-3.69275 23.19835,-8.533998 30.97732,-14.85115 7.77897,-6.31719 12.86358,-13.956128 14.98092,-24.167316 4.26464,-20.566897 -4.94044,-42.371226 -24.47285,-61.2950047 -9.25394,-8.965622 -23.92902,-16.1399423 -39.39713,-16.6217733 -37.66914,-1.173362 -86.96471,57.518046 -53.94655,16.4603613 15.95916,-19.8035603 35.90485,-27.2737153 54.26694,-26.7017293 4.59048,0.14298 9.07613,0.759004 13.39926,1.772759 z"
         id="path64"
         sodipodi:nodetypes="sssssccssssscss" />
      <path
         style="baseline-shift:baseline;display:inline;overflow:visible;fill:#ff0010;fill-opacity:1;stroke:none;stroke-width:1.00171;stroke-linecap:square;stroke-linejoin:miter;stroke-dasharray:none;stroke-opacity:1;enable-background:accumulate;stop-color:#000000"
         d="m 222.72037,10.528496 c -6.60865,-1.1928907 -13.24938,-0.434763 -18.72893,1.631882 -13.93919,5.257231 -24.24088,14.703834 -26.83743,27.226071 -1.30584,6.2976 -0.22839,12.259785 2.55792,17.614217 2.78631,5.354433 7.20472,10.151695 12.63155,14.663971 14.23205,11.833709 27.88125,16.992118 52.74198,26.415542 0.67825,-1.253228 -8.13414,-5.169664 -9.38703,-5.848542 -15.07989,-8.151565 -29.86192,-16.0626 -40.05377,-24.536942 -5.09594,-4.237152 -9.01997,-8.597468 -11.35194,-13.078769 -2.33197,-4.481324 -3.15271,-9.033958 -2.08531,-14.181631 2.14989,-10.368201 10.77835,-18.608839 23.6064,-23.44699 6.0776,-2.292205 14.30373,-2.669186 21.55519,0.20845 17.65935,7.007863 28.69695,44.037084 21.65398,18.427205 -3.4125,-12.359227 -11.14116,-19.812623 -19.74934,-23.228646 -2.15202,-0.854003 -4.35037,-1.468186 -6.55327,-1.865818 z"
         id="path65"
         sodipodi:nodetypes="sssssccssssscss" />
    </g>
    <g
       id="g97"
       transform="translate(782.15193,248.1147)"
       style="stroke:url(#linearGradient106)">
      <ellipse
         style="fill:none;stroke:url(#linearGradient100);stroke-width:6.9533;stroke-linecap:square;stroke-dasharray:none"
         id="ellipse92"
         cx="648.87512"
         cy="148.5"
         rx="124.30467"
         ry="76.824516"
         transform="translate(2.2649765e-6,-68.197984)" />
      <ellipse
         style="fill:none;stroke:url(#linearGradient101);stroke-width:6.9533;stroke-linecap:square;stroke-dasharray:none"
         id="ellipse93"
         cx="648.87512"
         cy="148.5"
         ry="76.824516"
         rx="65.70166"
         transform="translate(2.2649765e-6,-68.197984)" />
      <ellipse
         style="fill:none;stroke:url(#linearGradient102);stroke-width:6.955;stroke-linecap:square;stroke-dasharray:none"
         id="ellipse94"
         cx="648.87512"
         cy="148.5"
         ry="76.824516"
         rx="25.000002"
         transform="translate(2.2649765e-6,-68.197984)" />
      <ellipse
         style="fill:none;stroke:url(#linearGradient103);stroke-width:6.955;stroke-linecap:square;stroke-dasharray:none"
         id="ellipse95"
         cx="648.24121"
         cy="193.39275"
         rx="98.965965"
         ry="18.385414"
         transform="translate(2.2649765e-6,-68.197984)" />
      <ellipse
         style="fill:none;stroke:url(#linearGradient104);stroke-width:6.955;stroke-linecap:square;stroke-dasharray:none"
         id="ellipse96"
         cx="648.24121"
         cy="103.60725"
         rx="98.965965"
         ry="18.385414"
         transform="translate(2.2649765e-6,-68.197984)" />
      <ellipse
         style="fill:none;stroke:url(#linearGradient105);stroke-width:6.9533;stroke-linecap:square;stroke-dasharray:none"
         id="ellipse97"
         cx="648.87512"
         cy="148.5"
         ry="76.824516"
         rx="99.999992"
         transform="translate(2.2649765e-6,-68.197984)" />
    </g>
    <path
       style="baseline-shift:baseline;display:inline;overflow:visible;fill:#ff0010;fill-opacity:1;stroke:#ff0000;stroke-width:1.139;stroke-linecap:square;stroke-linejoin:miter;stroke-dasharray:none;stroke-opacity:1;enable-background:accumulate;stop-color:#000000"
       d="m 1476.8628,310.02428 c -4.3602,-0.78703 -8.7416,-0.28683 -12.3568,1.07665 -9.1966,3.46855 -15.9934,9.70109 -17.7064,17.96284 -0.8615,4.15493 -0.1505,8.08858 1.6877,11.62124 1.8383,3.53268 4.7533,6.69774 8.3337,9.67478 9.3899,7.80748 18.3951,11.21082 34.7975,17.42806 0.4473,-0.82683 -5.3668,-3.41075 -6.1933,-3.85866 -9.9493,-5.37812 -19.702,-10.59755 -26.4262,-16.18863 -3.3621,-2.79552 -5.951,-5.6723 -7.4895,-8.62892 -1.5386,-2.95661 -2.08,-5.96029 -1.3759,-9.35655 1.4186,-6.84058 7.1112,-12.27747 15.5748,-15.46951 4.0096,-1.51231 9.437,-1.76103 14.2213,0.13745 11.6511,4.62355 18.9333,29.05414 14.2866,12.15764 -2.2515,-8.1542 -7.3506,-13.07169 -13.03,-15.32546 -1.4198,-0.56344 -2.8701,-0.96865 -4.3235,-1.231 z"
       id="path98"
       sodipodi:nodetypes="sssssccssssscss" />
    <path
       style="baseline-shift:baseline;display:inline;overflow:visible;fill:#ff0010;fill-opacity:1;stroke:#ff0000;stroke-width:1.139;stroke-linecap:square;stroke-linejoin:miter;stroke-dasharray:none;stroke-opacity:1;enable-background:accumulate;stop-color:#000000"
       d="m 1475.3905,317.55746 c -3.1104,-0.56144 -6.236,-0.20463 -8.815,0.76806 -6.5607,2.4744 -11.4093,6.92059 -12.6315,12.81435 -0.6146,2.96405 -0.107,5.77025 1.204,8.29038 1.3114,2.52014 3.391,4.77805 5.9452,6.90181 6.6985,5.5697 13.1227,7.99758 24.8238,12.43286 0.3191,-0.58985 -3.8285,-2.43318 -4.4182,-2.75271 -7.0976,-3.83665 -14.0549,-7.5601 -18.8519,-11.54865 -2.3985,-1.99428 -4.2454,-4.04653 -5.343,-6.15572 -1.0974,-2.1092 -1.4839,-4.25196 -0.9814,-6.67478 1.0119,-4.87996 5.073,-8.75853 11.1107,-11.03567 2.8606,-1.07885 6.7322,-1.25629 10.1453,0.0981 8.3116,3.29834 13.5065,20.72668 10.1917,8.67301 -1.6062,-5.81703 -5.2438,-9.32509 -9.2953,-10.93289 -1.013,-0.40194 -2.0475,-0.69101 -3.0844,-0.87816 z"
       id="path100"
       sodipodi:nodetypes="sssssccssssscss" />
    <path
       style="baseline-shift:baseline;display:inline;overflow:visible;opacity:1;vector-effect:none;fill:url(#radialGradient89);fill-opacity:1;stroke:url(#radialGradient90);stroke-linecap:square;enable-background:accumulate;stop-color:#000000;stop-opacity:1"
       d="m 1268.5932,372.043 c -2.9506,2.36122 3.8327,6.26701 7.1493,7.97408 3.3167,1.70708 7.3353,2.77312 12.1193,3.50621 9.5681,1.46618 22.2513,1.49161 37.5036,0.2977 30.5047,-2.38782 71.1675,-9.7537 115.1222,-21.53124 43.9545,-11.77753 82.8526,-25.72981 110.4643,-38.91413 13.8059,-6.59216 24.7771,-12.95577 32.3302,-19.0095 3.7765,-3.02687 6.7219,-5.95891 8.7406,-9.0956 2.0188,-3.13667 5.9404,-9.91063 2.2045,-10.48037 m -8.9047,2.38598 c 0.1103,0.41173 0.1209,1.27875 -1.0531,3.10291 -1.174,1.82415 -3.4607,4.25313 -6.7547,6.89326 -6.588,5.28025 -17.1098,11.47087 -30.5356,17.88159 -26.8517,12.82143 -65.3705,26.67161 -108.8781,38.32934 -43.5075,11.65774 -83.7909,18.92244 -113.4559,21.24453 -14.8325,1.16105 -27.0418,1.06115 -35.3873,-0.21769 -4.1728,-0.63942 -7.3657,-1.60017 -9.2945,-2.59293 -1.9288,-0.99275 -2.3532,-1.74891 -2.4635,-2.16064"
       id="path88"
       sodipodi:nodetypes="csssssssccsssssssc" />
    <path
       style="baseline-shift:baseline;display:inline;overflow:visible;fill:#ff0010;fill-opacity:1;stroke:#ff0000;stroke-width:1.139;stroke-linecap:square;stroke-linejoin:miter;stroke-dasharray:none;stroke-opacity:1;enable-background:accumulate;stop-color:#000000"
       d="m 1508.1767,314.52333 c 4.3135,1.01151 8.1348,3.21255 10.9098,5.90108 7.0593,6.83927 10.8174,15.26042 9.1044,23.52217 -0.8617,4.15492 -3.078,7.48161 -6.1694,9.99207 -3.0914,2.51048 -7.0247,4.25552 -11.4935,5.56348 -11.7201,3.43023 -21.3361,2.97236 -38.8581,2.15525 -0.082,-0.93659 6.2804,-0.99571 7.2169,-1.07802 11.2672,-0.97877 22.2913,-1.89006 30.6841,-4.34652 4.1965,-1.22822 7.7158,-2.83843 10.3031,-4.93953 2.5874,-2.1011 4.2786,-4.64183 4.9827,-8.03807 1.4184,-6.84058 -1.6431,-14.09273 -8.1397,-20.38681 -3.0778,-2.98198 -7.9588,-5.36818 -13.1034,-5.52842 -12.529,-0.39027 -28.9246,19.13057 -17.9429,5.47473 5.308,-6.58669 11.9422,-9.07128 18.0493,-8.88104 1.5268,0.0475 3.0189,0.25245 4.4567,0.58963 z"
       id="path97"
       sodipodi:nodetypes="sssssccssssscss" />
    <path
       style="baseline-shift:baseline;display:inline;overflow:visible;fill:#ff0010;fill-opacity:1;stroke:#ff0000;stroke-width:1.139;stroke-linecap:square;stroke-linejoin:miter;stroke-dasharray:none;stroke-opacity:1;enable-background:accumulate;stop-color:#000000"
       d="m 1510.5583,303.66502 c 6.1043,1.43139 11.5116,4.54606 15.4384,8.35064 9.9896,9.67822 15.3077,21.59499 12.8837,33.28619 -1.2193,5.87965 -4.3555,10.58723 -8.7302,14.1398 -4.3747,3.55256 -9.9406,6.02195 -16.2646,7.87286 -16.585,4.85414 -30.1927,4.2062 -54.988,3.0499 -0.116,-1.32537 8.8872,-1.40902 10.2126,-1.52549 15.9444,-1.38507 31.5444,-2.67464 43.4212,-6.15079 5.9383,-1.73805 10.9187,-4.01664 14.5798,-6.9899 3.6613,-2.97327 6.0546,-6.56865 7.051,-11.3747 2.0072,-9.68011 -2.3252,-19.94262 -11.5185,-28.84936 -4.3555,-4.21981 -11.2625,-7.59651 -18.5427,-7.82328 -17.7296,-0.55226 -40.9313,27.07169 -25.3908,7.7473 7.5114,-9.32083 16.8991,-12.83676 25.5415,-12.56755 2.1606,0.0673 4.2719,0.35723 6.3066,0.83438 z"
       id="path99"
       sodipodi:nodetypes="sssssccssssscss" />
  </g>
  <path
     style="baseline-shift:baseline;display:inline;overflow:visible;opacity:1;vector-effect:none;fill:#000080;stroke-width:1.00103;stroke-linecap:square;enable-background:accumulate;stop-color:#000000;stop-opacity:1"
     d="m 1032.8045,59.106798 c -37.63935,11.33685 -70.83105,24.437477 -94.61578,36.796204 -11.89235,6.179358 -20.76203,12.930958 -28.32695,18.067618 l -14.73611,10.006 c -3.51107,2.38406 15.65705,7.52723 20.19201,8.10808 9.06994,1.16169 20.26595,0.83215 33.59282,-0.58443 26.65379,-2.83318 61.55941,-10.24324 99.19891,-21.58009 37.6393,-11.336828 70.8309,-24.437454 94.6158,-36.796182 11.8922,-6.17935 21.4097,-12.088621 28.3293,-18.066315 3.4597,-2.988825 18.6001,-17.808329 14.3565,-17.862264 l -19.8124,-0.251808 c -9.1433,-0.116207 -20.2684,-0.833456 -33.5952,0.583121 -26.6538,2.833182 -61.5595,10.243235 -99.1989,21.580066 z m 0,0 c 36.6611,-11.042183 70.7344,-18.205083 95.5416,-20.841972 12.4036,-1.318445 22.5582,-1.449975 28.9348,-0.633231 1.0105,0.129408 1.7309,0.308836 2.5307,0.477172 -0.574,0.582251 -1.0744,1.131161 -1.8456,1.797383 -4.8648,4.202583 -13.4029,9.701217 -24.4714,15.452477 -22.1368,11.502516 -54.4981,24.349458 -91.1592,35.391639 -36.661,11.042174 -70.73432,18.205084 -95.54153,20.841974 -12.40362,1.31845 -22.55824,1.44998 -28.93485,0.63326 -1.01085,-0.12948 -1.73122,-0.31067 -2.53127,-0.47907 0.57382,-0.58207 1.07526,-1.1295 1.84619,-1.79549 4.86481,-4.2026 13.40287,-9.70124 24.47134,-15.452498 22.13692,-11.502515 54.49819,-24.349462 91.15922,-35.391644 z"
     id="ellipse42"
     sodipodi:nodetypes="sssssssssssssssscssssscsss" />
</svg>
