<?xml version="1.0" encoding="UTF-8" standalone="no"?>
<!-- Created with Inkscape (http://www.inkscape.org/) -->

<svg
   width="509.20914mm"
   height="222.69067mm"
   viewBox="0 0 509.20914 222.69067"
   version="1.1"
   id="svg1"
   inkscape:version="1.4.2 (f4327f4, 2025-05-13)"
   sodipodi:docname="0-Hunger.svg"
   xmlns:inkscape="http://www.inkscape.org/namespaces/inkscape"
   xmlns:sodipodi="http://sodipodi.sourceforge.net/DTD/sodipodi-0.dtd"
   xmlns:xlink="http://www.w3.org/1999/xlink"
   xmlns="http://www.w3.org/2000/svg"
   xmlns:svg="http://www.w3.org/2000/svg">
  <sodipodi:namedview
     id="namedview1"
     pagecolor="#505050"
     bordercolor="#ffffff"
     borderopacity="1"
     inkscape:showpageshadow="0"
     inkscape:pageopacity="0"
     inkscape:pagecheckerboard="1"
     inkscape:deskcolor="#d1d1d1"
     inkscape:document-units="mm"
     inkscape:zoom="0.28577813"
     inkscape:cx="962.28498"
     inkscape:cy="421.65578"
     inkscape:window-width="1366"
     inkscape:window-height="745"
     inkscape:window-x="-8"
     inkscape:window-y="-8"
     inkscape:window-maximized="1"
     inkscape:current-layer="layer1" />
  <defs
     id="defs1">
    <linearGradient
       inkscape:collect="always"
       xlink:href="#linearGradient22"
       id="linearGradient43"
       gradientUnits="userSpaceOnUse"
       x1="14.591715"
       y1="-305.02563"
       x2="113.70759"
       y2="-117.69598"
       gradientTransform="translate(-94.231426,490.23399)" />
    <linearGradient
       id="linearGradient22"
       inkscape:collect="always">
      <stop
         style="stop-color:#005e00;stop-opacity:1;"
         offset="0"
         id="stop22" />
      <stop
         style="stop-color:#00a100;stop-opacity:1;"
         offset="1"
         id="stop23" />
    </linearGradient>
    <linearGradient
       inkscape:collect="always"
       xlink:href="#linearGradient24"
       id="linearGradient41"
       gradientUnits="userSpaceOnUse"
       gradientTransform="translate(-301.0831,1201.2687)"
       x1="117.28063"
       y1="-135.30727"
       x2="362.37866"
       y2="-135.30727" />
    <linearGradient
       id="linearGradient24"
       inkscape:collect="always">
      <stop
         style="stop-color:#ff2700;stop-opacity:1;"
         offset="0"
         id="stop24" />
      <stop
         style="stop-color:#ff0000;stop-opacity:1;"
         offset="1"
         id="stop25" />
    </linearGradient>
    <linearGradient
       inkscape:collect="always"
       xlink:href="#linearGradient24"
       id="linearGradient39"
       gradientUnits="userSpaceOnUse"
       gradientTransform="translate(-176.74952,1201.2687)"
       x1="117.28063"
       y1="-135.30727"
       x2="362.37866"
       y2="-135.30727" />
  </defs>
  <g
     inkscape:label="Layer 1"
     inkscape:groupmode="layer"
     id="layer1"
     transform="translate(79.639584,-185.20833)">
    <g
       id="g20"
       transform="matrix(1.6334262,0,0,1.6334262,139.16943,229.56417)">
      <path
         id="path13"
         style="baseline-shift:baseline;display:inline;overflow:visible;vector-effect:none;fill:#a50000;fill-opacity:1;stroke:#a50000;stroke-width:0.86233;stroke-linecap:round;stroke-linejoin:round;stroke-opacity:1;enable-background:accumulate;stop-color:#000000"
         d="m 136.5337,70.612008 c 0.0268,0.520617 -0.0161,1.092746 -0.13384,1.625739 1.52449,0.418555 2.98068,0.855624 4.3527,1.3162 3.14518,1.0558 5.83216,2.232889 7.88479,3.559989 2.05262,1.327109 3.49295,2.781763 4.29018,4.564063 1.60573,3.589829 -10e-4,6.919637 -4.17804,9.408727 -1.97889,1.17927 -5.31477,1.870504 -9.02994,1.414384 -4.28669,-0.526288 -9.58001,-3.3924 -12.99456,-5.410006 h -5.1e-4 l -0.50746,0.751892 c 0.012,0.01056 0.0241,0.0209 0.0362,0.03152 4.40334,3.86789 9.42095,5.81009 13.8312,6.35155 1.10257,0.13536 2.16651,0.188095 3.18016,0.168465 3.04091,-0.0589 5.62469,-0.767666 7.40885,-1.830896 4.53866,-2.70469 6.55147,-6.55 4.61213,-10.885639 -0.97531,-2.18045 -2.8629,-4.085303 -5.31544,-5.670972 -2.45255,-1.58568 -5.45059,-2.873856 -8.79998,-3.998205 -1.33147,-0.446964 -2.91253,-0.921005 -4.63641,-1.396814 z" />
      <g
         id="g18"
         transform="matrix(-1,0,0,1,190.90883,-68.258192)"
         style="stroke:#a4320a;stroke-opacity:1">
        <path
           style="baseline-shift:baseline;display:inline;overflow:visible;vector-effect:none;fill:#a50000;fill-opacity:1;stroke:#a50000;stroke-width:0.86233;stroke-linecap:round;stroke-linejoin:round;stroke-opacity:1;enable-background:accumulate;stop-color:#000000"
           d="m 91.453336,162.23169 c 3.040917,-0.0589 5.624515,-0.76768 7.408675,-1.83091 4.538659,-2.70469 6.551269,-6.5497 4.611929,-10.88534 -0.97531,-2.18045 -2.86257,-4.0855 -5.315112,-5.67117 -2.452548,-1.58568 -5.450596,-2.87405 -8.799987,-3.9984 -8.783941,-2.9487 -22.766169,-5.69708 -28.344905,-5.13852 0.01979,0.46271 4.635843,1.15623 5.321566,1.29535 8.248827,1.668 16.315492,3.27666 22.605847,5.38827 3.145179,1.0558 5.831845,2.23315 7.884466,3.56025 2.052625,1.32711 3.492885,2.78192 4.290115,4.56422 1.60573,3.58983 -7.5e-4,6.91934 -4.177629,9.40843 -1.978891,1.17927 -5.314906,1.87065 -9.030073,1.41453 -9.047465,-1.11078 -22.579136,-12.64331 -13.466572,-4.6266 4.403344,3.86789 9.421228,5.81014 13.831476,6.3516 1.102565,0.13536 2.166562,0.18792 3.180204,0.16829 z"
           id="path14"
           sodipodi:nodetypes="sssssccssssscss" />
        <g
           id="g17"
           transform="matrix(-1,0,1.1229276,1,9.422962,0)"
           style="stroke:#a4320a;stroke-opacity:1">
          <path
             id="path15"
             style="fill:none;stroke:#a4320a;stroke-width:0.456316;stroke-linecap:round;stroke-linejoin:round;stroke-opacity:1"
             d="m 108.71708,137.15026 c 1.48723,0.74963 2.70482,1.85079 3.25564,3.08223 l 9.77842,21.86092 c 0.79129,1.76904 -2.47613,2.50683 -1.71885,4.21645 l 0.20394,0.46041 c 0.60043,1.35577 2.30683,1.39424 2.97192,2.88115 l 1.03059,2.30402 c 0.84869,1.89735 -1.46012,3.42483 -5.1767,3.42483 H 85.951807 c -3.716577,0 -7.468883,-1.69962 -8.060903,-3.02316"
             sodipodi:nodetypes="cssssssssc" />
          <path
             id="path16"
             style="fill:#a41c0a;fill-opacity:1;stroke:#a4320a;stroke-width:0.456316;stroke-linecap:round;stroke-linejoin:round;stroke-opacity:1"
             d="m 83.571397,173.61145 h 33.110223 c 3.71659,0 6.0254,-1.52747 5.17671,-3.42483 l -1.03059,-2.30401 c -0.84869,-1.89736 -1.23861,-3.03732 -4.95519,-3.03732 3.05824,0 4.5132,-2.25147 3.49818,-4.52069 l -9.77842,-21.86092 c -0.20567,-0.45981 -0.50431,-0.90146 -0.87523,-1.31342 1.48723,0.74963 4.28518,3.25815 4.836,4.48959 l 9.77842,21.86092 c 0.7913,1.76904 -1.47138,2.18144 -2.78804,2.83985 0.99249,0.65433 3.41519,2.863 4.245,4.71816 l 1.03059,2.30402 c 0.84869,1.89735 -1.46012,3.42483 -5.1767,3.42483 H 87.532118 c -3.391085,0 -10.076083,-3.73283 -11.282693,-5.39681 2.505671,1.76983 5.30291,2.22063 7.321972,2.22063 z"
             sodipodi:nodetypes="sssscsscsscsssscs" />
          <path
             id="path17"
             style="fill:none;stroke:#a4320a;stroke-width:0.456316;stroke-linecap:round;stroke-linejoin:round;stroke-opacity:1"
             d="m 68.995799,160.32459 -9.778412,-21.86091 c -1.015029,-2.26923 0.629871,-4.09608 3.688116,-4.09608 h 39.334347 c 3.05823,0 6.33744,1.82685 7.35246,4.09608 l 9.77842,21.86092 c 1.01502,2.26922 -0.43994,4.52069 -3.49818,4.52069 3.71658,0 4.1065,1.13996 4.95519,3.03732 l 1.03059,2.30401 c 0.84869,1.89736 -1.46012,3.42483 -5.17671,3.42483 H 83.571397 c -3.716577,0 -7.391882,-1.52747 -8.240572,-3.42483 l -1.030589,-2.30401 c -0.848689,-1.89736 -1.668547,-3.46194 2.04804,-3.46194 -3.058245,0 -6.337448,-1.82685 -7.352477,-4.09608 z"
             sodipodi:nodetypes="sssssscsssssscs" />
        </g>
      </g>
      <path
         id="path18"
         style="fill:none;stroke:#a4320a;stroke-width:0.456316;stroke-linecap:round;stroke-linejoin:round;stroke-opacity:1"
         d="m 121.87801,94.265602 c 1.19522,1.76904 4.91547,2.497389 6.07797,4.207009 l 0.31307,0.46041 c 0.922,1.355769 -0.7412,1.394239 0.2634,2.881149 l 1.55666,2.30402 c 1.2819,1.89735 5.30596,3.42483 9.02254,3.42483 h 33.11023 c 3.71658,0 5.56033,-1.69962 4.66611,-3.02316"
         sodipodi:nodetypes="cssssssc" />
      <path
         id="path19"
         style="fill:#a41c0a;fill-opacity:1;stroke:#a4320a;stroke-width:0.456316;stroke-linecap:round;stroke-linejoin:round;stroke-opacity:1"
         d="m 122.53817,93.288659 -1.32033,1.953886 0.28473,0.421163 c 1.1952,1.76904 3.9209,2.18121 5.9769,2.83962 -0.25772,0.65433 -0.20024,2.862902 1.05317,4.718062 l 1.55649,2.30425 c 1.2819,1.89735 5.30613,3.42459 9.02271,3.42459 h 33.11012 c 3.39109,0 5.88434,-3.73258 5.22242,-5.39657 -0.51828,1.76984 -2.80907,2.22054 -4.82813,2.22054 h -33.11064 c -3.71659,0 -7.74028,-1.52724 -9.02219,-3.4246 l -1.55701,-2.30425 c -1.28191,-1.897358 -2.17197,-3.037538 1.54461,-3.037538 -2.69624,0 -6.11151,-1.749832 -7.93285,-3.719153 z" />
      <path
         id="path20"
         style="fill:none;stroke:#a4320a;stroke-width:0.456316;stroke-linecap:round;stroke-linejoin:round;stroke-opacity:1"
         d="m 134.51883,66.530604 c 1.24647,0.431756 1.82406,1.357827 1.56528,2.519225 l 0.003,-0.0016 c 0.34693,0.40292 0.50188,0.907303 0.44184,1.478979 0.0679,1.016372 -0.13656,2.254417 -0.64751,3.010669 l -13.34337,19.750732 c 1.82134,1.969321 5.23661,3.719153 7.93285,3.719153 -3.71658,0 -2.82652,1.14018 -1.54461,3.037538 l 1.55701,2.30425 c 1.28191,1.89736 5.3056,3.4246 9.02219,3.4246 h 33.11064 c 3.71658,0 5.67647,-1.52724 4.39456,-3.4246 l -1.55649,-2.30425 c -1.28191,-1.897358 -2.21897,-3.461802 -5.93556,-3.461802 3.05825,0 4.28596,-1.827161 2.75281,-4.096391 l -14.77006,-21.86063 c -1.53315,-2.26923 -5.2291,-4.095873 -8.28735,-4.095873 z" />
    </g>
    <path
       id="path38"
       style="baseline-shift:baseline;display:inline;overflow:visible;vector-effect:none;fill:url(#linearGradient43);stroke-width:1.80783;stroke-linecap:round;stroke-linejoin:round;enable-background:accumulate;stop-color:#000000"
       d="m -63.67221,185.20991 c -0.764126,0.0387 -1.337541,0.81589 -1.061434,1.59525 4.195437,2.27001 3.625006,7.63004 0.186552,15.21148 -6.47008,14.34536 -3.562188,25.00839 3.291272,32.55512 6.942975,7.64532 17.599667,12.31283 26.199434,15.76596 0.287306,0.11552 2.475725,2.07987 3.104203,0.58808 1.114446,-2.64533 0.326783,-8.13266 0.314193,-8.68164 -0.164567,-7.28218 -1.048178,-16.44187 -3.682462,-24.52616 -2.634284,-8.08428 -7.075607,-15.21365 -14.494723,-17.93327 -1.799052,-0.65946 -2.993409,-1.53115 -3.929993,-0.70642 -0.936585,0.82478 -1.346123,1.75633 -1.497583,2.14044 -0.241513,0.61427 0.06032,1.30776 0.674378,1.54978 0.614266,0.2415 1.308265,-0.0605 1.550293,-0.67438 0.04125,-0.10467 0.380228,-0.80067 0.854728,-1.21853 0.474501,-0.41787 0.91451,-0.69169 1.962671,-0.30747 6.433348,2.35825 10.526368,8.70425 13.043648,16.42948 2.306045,7.07695 3.149761,15.07979 3.414779,21.87774 -8.167197,-3.35397 -17.513666,-7.70698 -23.526729,-14.32833 -6.442722,-7.09446 -9.235628,-16.46277 -2.722315,-30.4648 0.208228,-1.9463 -1.070352,-4.05588 -1.716174,-5.88595 20.720532,5.43077 29.609766,16.59008 32.908069,31.00534 3.417221,14.93498 0.675844,33.39822 -1.829346,51.81545 -0.04106,0.32055 0.04983,0.64431 0.251147,0.8971 -0.0036,0.0544 -0.01395,0.10456 -0.01757,0.15916 -5.568016,-14.95434 -18.582375,-23.73597 -29.939257,-25.19639 -6.852712,-0.88122 -13.233451,0.89234 -16.690455,5.77277 -3.457004,4.88043 -3.747756,12.52633 0.713652,22.79603 0.311001,0.71291 1.20878,0.94407 1.825212,0.46973 5.763369,-4.43613 12.643256,-8.44561 19.296496,-9.56169 6.653241,-1.1161 13.019209,0.46373 18.522901,7.46725 -3.849709,-7.82741 -12.796004,-10.31811 -18.918226,-9.82627 -6.786156,1.1384 -13.330154,4.95725 -18.999873,9.14879 -0.318126,-7.60903 -0.06873,-7.91684 2.601908,-11.68714 2.810199,-3.9673 8.163205,-5.59114 14.434261,-4.78472 12.414283,1.5964 24.605603,5.42595 27.177669,25.0734 l 0.156063,1.26039 c 0.124105,3.98788 -1.614006,11.27934 -3.52795,18.73219 -0.479228,0.99676 -0.939288,2.0405 -1.379761,3.13211 -2.7171,6.83271 -4.07572,15.00441 -4.07572,24.51427 0,13.46563 3.156961,24.43349 9.470223,32.90445 5.034627,6.83271 11.447451,10.2495 19.239136,10.2495 5.194456,0 9.949368,-1.5385 14.264762,-4.61522 4.355355,-3.07672 7.911545,-8.01151 10.668595,-14.80427 2.75706,-6.79275 4.13567,-14.82403 4.13567,-24.09413 0,-9.19019 -1.39859,-17.24198 -4.19561,-24.1546 -2.79701,-6.95258 -6.27326,-11.94682 -10.428821,-14.98358 -4.155565,-3.07672 -8.790552,-4.61522 -13.905094,-4.61522 -4.27528,0 -8.204086,0.96428 -11.786878,2.89336 -2.265808,0.29761 -4.281945,0.20526 -4.622456,-0.97513 -0.814224,-2.82255 -1.619229,-5.61125 -1.631942,-5.70922 -1.672017,-23.82817 8.788609,-40.20484 20.058724,-47.28342 5.722304,-3.59411 11.5992,-4.75782 16.122017,-3.47679 5.84688,1.65607 9.94321,8.44514 7.71477,11.63754 -1.52623,2.18647 -3.85047,4.28439 -6.57117,5.9185 -5.441417,3.26822 -13.726519,6.40256 -17.699699,1.973 -2.585626,-2.88261 -3.31399,0.0178 -3.311426,-0.75757 0.01193,-3.61289 4.110135,-5.8872 6.150529,-7.67757 l 3.7021,-2.51406 c -0.07015,0.16529 -0.02723,0.38517 0.428914,0.56121 1.681557,0.64894 2.491148,-1.01874 2.27428,-1.64176 -0.110823,-0.31722 -0.39699,-0.62053 -0.688847,-0.83716 -0.892491,-0.66247 -2.166731,-0.10131 -2.426209,-0.0982 -0.518939,0.007 -0.913437,0.15596 -1.351855,0.34934 -0.876835,0.38661 -1.887134,1.0302 -3.057695,1.87482 -2.341177,1.6892 -5.262734,4.17971 -8.067724,6.82542 -2.804992,2.64572 -5.478109,5.43432 -7.299296,7.75043 -0.910593,1.15804 -1.609843,2.17909 -2.026233,3.12126 -0.208194,0.47109 -0.363501,0.92386 -0.360702,1.46451 0.0027,0.54065 0.307009,1.25311 0.851111,1.59318 0.230608,0.14391 0.503669,0.20449 0.773596,0.1726 1.773938,-0.20709 3.531438,-1.30115 5.688542,-1.95233 2.157103,-0.65119 4.447728,-0.9201 6.817672,0.26148 6.335873,3.15894 14.047733,1.51169 19.999292,-2.06292 2.97577,-1.78732 5.53483,-4.07101 7.29878,-6.59805 1.76396,-2.52706 2.75519,-5.33979 2.36162,-8.11113 -1.05189,-7.40699 -5.15087,-12.02351 -10.54613,-13.55163 -5.395283,-1.52815 -11.901585,-0.10694 -18.047477,3.75326 -6.722711,4.22244 -12.973033,11.50894 -16.98346,21.28449 1.355266,-12.26611 7.677742,-22.48257 5.271513,-32.99902 -3.573154,-15.61649 -19.419137,-29.88202 -42.419633,-35.21904 -0.11505,-0.0268 -0.228286,-0.0361 -0.337447,-0.0305 z m 53.48304,105.57495 c 3.036759,0 5.394228,1.99822 7.072437,5.99395 2.317526,5.47416 3.476273,16.96169 3.476273,34.46301 0,8.23122 -0.659064,15.86327 -1.977657,22.89576 -0.958976,5.19446 -2.21766,8.59075 -3.775997,10.18905 -1.518379,1.59829 -3.216783,2.39727 -5.094779,2.39727 -2.87693,0 -5.094487,-1.75785 -6.652824,-5.2741 -2.477356,-5.67395 -3.716052,-15.34367 -3.716052,-29.00908 0,-16.34256 0.859454,-27.3709 2.57762,-33.08481 1.758124,-5.7139 4.45486,-8.57105 8.090979,-8.57105 z" />
    <text
       xml:space="preserve"
       style="font-style:normal;font-variant:normal;font-weight:normal;font-stretch:normal;font-size:70.5556px;line-height:0;font-family:Cambria;-inkscape-font-specification:'Cambria, Normal';font-variant-ligatures:normal;font-variant-caps:normal;font-variant-numeric:normal;font-variant-east-asian:normal;text-align:center;writing-mode:lr-tb;direction:ltr;text-anchor:middle;fill:url(#linearGradient41);fill-opacity:1;stroke:url(#linearGradient41);stroke-width:1.32292;stroke-linecap:round;stroke-linejoin:round"
       x="31.703297"
       y="370.73972"
       id="text38"><tspan
         sodipodi:role="line"
         id="tspan38"
         style="font-style:normal;font-variant:normal;font-weight:normal;font-stretch:normal;font-size:70.5556px;font-family:Cambria;-inkscape-font-specification:'Cambria, Normal';font-variant-ligatures:normal;font-variant-caps:normal;font-variant-numeric:normal;font-variant-east-asian:normal;fill:url(#linearGradient41);fill-opacity:1;stroke:url(#linearGradient41);stroke-width:1.32292;stroke-opacity:1"
         x="31.703297"
         y="370.73972">-</tspan></text>
    <text
       xml:space="preserve"
       style="font-style:normal;font-variant:normal;font-weight:normal;font-stretch:normal;font-size:70.5556px;line-height:0;font-family:Cambria;-inkscape-font-specification:'Cambria, Normal';font-variant-ligatures:normal;font-variant-caps:normal;font-variant-numeric:normal;font-variant-east-asian:normal;text-align:center;writing-mode:lr-tb;direction:ltr;text-anchor:middle;fill:url(#linearGradient39);fill-opacity:1;stroke:url(#linearGradient39);stroke-width:1.32292;stroke-linecap:round;stroke-linejoin:round;stroke-opacity:1"
       x="156.03687"
       y="370.73972"
       id="text39"><tspan
         sodipodi:role="line"
         id="tspan39"
         style="font-style:normal;font-variant:normal;font-weight:normal;font-stretch:normal;font-size:70.5556px;font-family:Cambria;-inkscape-font-specification:'Cambria, Normal';font-variant-ligatures:normal;font-variant-caps:normal;font-variant-numeric:normal;font-variant-east-asian:normal;fill:url(#linearGradient39);fill-opacity:1;stroke:url(#linearGradient39);stroke-width:1.32292;stroke-opacity:1"
         x="156.03687"
         y="370.73972">Hunger</tspan></text>
  </g>
</svg>
