<?xml version="1.0" encoding="UTF-8" standalone="no"?>
<!-- Created with Inkscape (http://www.inkscape.org/) -->

<svg
   width="347.78683mm"
   height="196.85323mm"
   viewBox="0 0 347.78683 196.85323"
   version="1.1"
   id="svg1"
   inkscape:version="1.4.2 (f4327f4, 2025-05-13)"
   sodipodi:docname="Zero-Hunger[flip].svg"
   xmlns:inkscape="http://www.inkscape.org/namespaces/inkscape"
   xmlns:sodipodi="http://sodipodi.sourceforge.net/DTD/sodipodi-0.dtd"
   xmlns:xlink="http://www.w3.org/1999/xlink"
   xmlns="http://www.w3.org/2000/svg"
   xmlns:svg="http://www.w3.org/2000/svg">
  <sodipodi:namedview
     id="namedview1"
     pagecolor="#505050"
     bordercolor="#ffffff"
     borderopacity="1"
     inkscape:showpageshadow="0"
     inkscape:pageopacity="0"
     inkscape:pagecheckerboard="1"
     inkscape:deskcolor="#d1d1d1"
     inkscape:document-units="mm"
     showguides="true"
     inkscape:zoom="0.56296457"
     inkscape:cx="456.51185"
     inkscape:cy="372.1371"
     inkscape:window-width="1366"
     inkscape:window-height="745"
     inkscape:window-x="-8"
     inkscape:window-y="-8"
     inkscape:window-maximized="1"
     inkscape:current-layer="layer1">
    <sodipodi:guide
       position="70.047586,100.14678"
       orientation="0,-1"
       id="guide2"
       inkscape:locked="false" />
  </sodipodi:namedview>
  <defs
     id="defs1">
    <linearGradient
       id="linearGradient2"
       inkscape:collect="always">
      <stop
         style="stop-color:#00a100;stop-opacity:1;"
         offset="0"
         id="stop1" />
      <stop
         style="stop-color:#00a100;stop-opacity:1;"
         offset="1"
         id="stop2" />
    </linearGradient>
    <linearGradient
       inkscape:collect="always"
       xlink:href="#linearGradient2"
       id="linearGradient69"
       gradientUnits="userSpaceOnUse"
       gradientTransform="translate(-112.62024,-673.76772)"
       x1="225.50966"
       y1="-135.30727"
       x2="253.77539"
       y2="-135.30727" />
    <linearGradient
       id="linearGradient24"
       inkscape:collect="always">
      <stop
         style="stop-color:#ff2700;stop-opacity:1;"
         offset="0"
         id="stop24" />
      <stop
         style="stop-color:#ff0000;stop-opacity:1;"
         offset="1"
         id="stop25" />
    </linearGradient>
    <linearGradient
       inkscape:collect="always"
       xlink:href="#linearGradient24"
       id="linearGradient67"
       gradientUnits="userSpaceOnUse"
       gradientTransform="translate(11.713333,-660.0093)"
       x1="117.28063"
       y1="-135.30727"
       x2="362.37866"
       y2="-135.30727" />
    <linearGradient
       inkscape:collect="always"
       xlink:href="#linearGradient22"
       id="linearGradient71"
       gradientUnits="userSpaceOnUse"
       gradientTransform="translate(-145.29601,240.20274)"
       x1="14.591715"
       y1="-305.02563"
       x2="113.70759"
       y2="-117.69598" />
    <linearGradient
       id="linearGradient22"
       inkscape:collect="always">
      <stop
         style="stop-color:#005e00;stop-opacity:1;"
         offset="0"
         id="stop22" />
      <stop
         style="stop-color:#00a100;stop-opacity:1;"
         offset="1"
         id="stop23" />
    </linearGradient>
  </defs>
  <g
     inkscape:label="Layer 1"
     inkscape:groupmode="layer"
     id="layer1"
     transform="translate(130.70417,64.822922)">
    <g
       id="g2"
       transform="translate(13.336911,-113.53021)">
      <g
         id="g1">
        <path
           id="path13"
           style="baseline-shift:baseline;display:inline;overflow:visible;fill:#c00000;fill-opacity:1;stroke:#c00000;stroke-width:3.433;stroke-linecap:round;stroke-linejoin:round;stroke-dasharray:none;stroke-opacity:1;enable-background:accumulate;stop-color:#000000"
           d="m 139.00455,134.87165 c -1.65571,-0.0321 -3.39407,0.0538 -5.19503,0.27492 -5.14221,0.63132 -10.79005,2.42867 -16.21762,5.70353 l 0.37466,2.61689 c 4.83793,-2.5125 10.43146,-4.91179 15.24713,-5.50302 6.06846,-0.74505 11.51763,0.38472 14.75,2.31097 6.82285,4.06574 9.44672,9.50382 6.82388,15.36754 -1.30223,2.91126 -3.65504,5.28763 -7.00785,7.45537 -3.3528,2.16772 -7.74137,4.09109 -12.8788,5.81567 -3.88946,1.30565 -5.9268,2.79608 -10.50655,3.91611 l 0.16743,1.16789 c 0.0738,0.51531 0.0675,1.01619 -0.0114,1.49707 4.67514,-1.11434 6.97704,-2.69577 11.03262,-4.05719 5.471,-1.83654 10.36827,-3.9413 14.37432,-6.53139 4.00605,-2.59007 7.08855,-5.70191 8.68164,-9.26353 3.16777,-7.08194 -0.11983,-13.36241 -7.53339,-17.78031 -2.91429,-1.73671 -7.13397,-2.89432 -12.10107,-2.99052 z"
           sodipodi:nodetypes="ssccscssscccsssss" />
        <path
           id="path14"
           style="fill:none;stroke:#a4320a;stroke-width:3.433;stroke-linecap:round;stroke-linejoin:round;stroke-dasharray:none;stroke-opacity:1"
           d="m 169.87691,175.84034 c 2.05686,-1.22446 3.49866,-3.02313 3.78661,-5.03459 l 5.11199,-35.70822 c 0.41367,-2.8896 -5.28995,-4.09473 -4.90231,-6.88727 l 0.10439,-0.75205 c 0.30723,-2.21455 3.0754,-2.27739 3.42308,-4.70614 l 0.53878,-3.76345 c 0.44368,-3.09919 -4.08643,-5.59422 -10.15719,-5.59422 h -54.08314"
           sodipodi:nodetypes="csssssssc" />
        <path
           id="path15"
           style="fill:none;stroke:#a4320a;stroke-width:3.433;stroke-linecap:round;stroke-linejoin:round;stroke-dasharray:none;stroke-opacity:1"
           d="m 110.68948,116.28363 c -1.06764,0 -2.10981,0.0771 -3.10472,0.22117 1.6591,1.27553 2.87341,2.52023 3.24632,3.40599 -0.12713,-0.11435 -0.25602,-0.22509 -0.38654,-0.33279 0.71708,0.70089 1.17131,1.47936 1.28881,2.30012 l 0.53898,3.76308 c 0.44366,3.09919 1.00545,5.65495 -5.06532,5.65495 4.99542,0 9.44446,2.98393 9.9751,6.69056 l 6.91761,35.62311 c 0.32099,2.24223 -2.6796,4.30011 -4.77459,5.5129 2.7e-4,0.003 9.1e-4,0.005 0.001,0.008 -0.005,4.5e-4 -0.011,7e-5 -0.0155,5.1e-4 -1.35596,0.78106 -3.08313,1.24732 -5.03173,1.25419 h 46.40026 c 4.99539,0 9.44397,-2.98393 9.97459,-6.69055 l 5.11235,-35.70843 c 0.53064,-3.70662 -2.96431,-7.38405 -7.95972,-7.38405 6.07076,0 6.14094,-1.86227 6.58461,-4.96146 l 0.53898,-3.76308 c 0.44368,-3.09919 -4.08623,-5.59448 -10.157,-5.59448 z"
           sodipodi:nodetypes="cccccccccccccsccccccc" />
        <path
           id="path16"
           style="fill:#a41c0a;fill-opacity:1;stroke:#a4320a;stroke-width:1;stroke-linecap:round;stroke-linejoin:round;stroke-dasharray:none;stroke-opacity:1"
           d="m 115.58117,111.09583 c -2.98922,0 -7.00507,1.77543 -10.24898,3.83749 0.80935,0.51448 1.5704,1.04706 2.25567,1.57406 1.08699,-0.16076 2.1389,-0.22375 3.10162,-0.22375 H 164.773 c 6.07077,0 10.60068,2.49529 10.157,5.59449 l -0.53898,3.76308 c -0.44367,3.09919 -0.51385,4.96145 -6.58461,4.96145 4.99541,0 8.49036,3.67744 7.95972,7.38406 l -5.11235,35.70843 c -0.10751,0.75106 -0.3755,1.47219 -0.7767,2.14509 2.05686,-1.22446 5.38096,-5.32194 5.66891,-7.33341 l 5.11183,-35.70791 c 0.41369,-2.88961 -3.48725,-3.56353 -5.96501,-4.639 1.2961,-1.0688 4.15609,-4.67625 4.5899,-7.70651 l 0.53899,-3.7636 c 0.44369,-3.09919 -4.08676,-5.59397 -10.15752,-5.59397 z" />
      </g>
      <g
         id="g20"
         transform="translate(69.03828,309.37113)">
        <path
           style="baseline-shift:baseline;display:inline;overflow:visible;fill:#c00000;fill-opacity:1;stroke:#c00000;stroke-width:3.433;stroke-linecap:round;stroke-linejoin:round;stroke-dasharray:none;stroke-opacity:1;enable-background:accumulate;stop-color:#000000"
           d="m 1.8293286,-170.93794 c -4.9481324,0.44431 -9.0766653,1.89518 -11.8619806,3.83199 -7.085467,4.92696 -9.924352,11.42261 -6.26771,18.26495 1.838951,3.44112 5.132296,6.32902 9.3101291,8.63177 4.1778347,2.30275 9.2104568,4.05859 14.7967759,5.50691 14.650382,3.79838 35.649475,6.12094 44.675511,4.57174 -0.08523,-0.75169 -5.587674,-0.79899 -6.720933,-0.94711 -13.631753,-1.7729 -26.95989,-3.46998 -37.4513169,-6.19004 -5.2457186,-1.36003 -9.7582546,-2.97063 -13.2548265,-4.89789 -3.496583,-1.92726 -6.0100066,-4.13274 -7.5131926,-6.9455 -3.027619,-5.66534 -0.791655,-11.27448 5.729255,-15.80871 3.0893183,-2.1482 8.4458388,-3.6569 14.5515975,-3.33929 14.8692165,0.77346 38.2389025,18.01449 22.4724915,5.99592 -7.61792,-5.79793 -16.016574,-8.38781 -23.2646827,-8.76484 -1.8120318,-0.0942 -3.5517337,-0.058 -5.2011177,0.0901 z"
           id="path17"
           sodipodi:nodetypes="sssssccssssscss" />
        <path
           id="path18"
           style="fill:none;stroke:#a4320a;stroke-width:3.433;stroke-linecap:round;stroke-linejoin:round;stroke-dasharray:none;stroke-opacity:1"
           d="m -26.09401,-127.90498 c -2.13767,-1.07719 -3.702072,-2.77031 -4.130377,-4.75663 l -7.603702,-35.26178 c -0.615311,-2.85347 4.989751,-4.45564 4.407215,-7.21412 l -0.156874,-0.74287 c -0.461779,-2.18756 -3.227543,-2.0561 -3.744698,-4.45449 l -0.801395,-3.7164 c -0.659948,-3.06044 3.68403,-5.86703 9.739842,-6.29279 l 53.94995,-3.79297 c 6.055802,-0.42576 11.522257,1.97299 11.982606,4.10787"
           sodipodi:nodetypes="cssssssssc" />
        <path
           id="path19"
           style="fill:none;stroke:#a4320a;stroke-width:3.433;stroke-linecap:round;stroke-linejoin:round;stroke-dasharray:none;stroke-opacity:1"
           d="m 47.457733,-171.02308 7.603703,35.26177 c 0.789287,3.66028 -2.586981,6.88905 -7.5701,7.23939 l -64.091546,4.50598 c -4.98309,0.35034 -9.630199,-2.31434 -10.419466,-5.97462 l -7.60371,-35.26178 c -0.78928,-3.66027 2.439277,-7.57395 7.422387,-7.92429 -6.055812,0.42575 -6.25681,-1.42675 -6.916746,-4.48719 l -0.801386,-3.71638 c -0.659945,-3.06045 3.68403,-5.86703 9.739852,-6.29279 l 53.949939,-3.79297 c 6.055802,-0.42575 11.462384,1.6953 12.122325,4.75576 l 0.801386,3.71638 c 0.659926,3.06044 1.39969,5.57037 -4.656132,5.99612 4.98312,-0.35034 9.630207,2.31434 10.419494,5.97462 z"
           sodipodi:nodetypes="sssssscsssssscs" />
        <path
           id="path20"
           style="fill:#a41c0a;fill-opacity:1;stroke:#a4320a;stroke-width:1;stroke-linecap:round;stroke-linejoin:round;stroke-dasharray:none;stroke-opacity:1"
           d="m 28.77066,-191.46596 -53.949939,3.79297 c -6.055822,0.42576 -10.399797,3.23234 -9.739852,6.29279 l 0.801386,3.71638 c 0.659936,3.06044 0.860934,4.91294 6.916746,4.48719 -4.98311,0.35034 -8.211667,4.26402 -7.422387,7.92429 l 7.60371,35.26178 c 0.159917,0.74167 0.47826,1.44248 0.925666,2.08558 -2.13767,-1.07719 -5.740892,-4.93147 -6.169207,-6.91778 l -7.603701,-35.26178 c -0.615322,-2.85348 3.22863,-3.79902 5.624864,-5.04561 -1.367865,-0.97527 -4.473885,-4.3735 -5.119142,-7.36588 l -0.801385,-3.7164 c -0.659947,-3.06044 3.68403,-5.86703 9.739843,-6.29279 l 53.949949,-3.79297 c 5.525441,-0.38847 14.995757,5.05809 16.327813,7.68913 -3.408417,-2.65839 -7.794494,-3.08819 -11.084364,-2.8569 z"
           sodipodi:nodetypes="sssscsscsscsssscs" />
      </g>
    </g>
    <path
       id="path59"
       style="baseline-shift:baseline;display:inline;overflow:visible;vector-effect:none;fill:url(#linearGradient71);stroke-width:1.80783;stroke-linecap:round;stroke-linejoin:round;enable-background:accumulate;stop-color:#000000"
       d="m -114.73679,-64.82134 c -0.76413,0.0387 -1.33754,0.81589 -1.06144,1.59525 4.19544,2.27001 3.62501,7.63004 0.18656,15.21148 -6.47009,14.34536 -3.56219,25.00839 3.29127,32.55512 6.94297,7.64532 17.599666,12.31283 26.199433,15.76596 0.287306,0.11552 2.475725,2.07987 3.104203,0.58808 1.114446,-2.64533 0.326783,-8.13266 0.314193,-8.68164 -0.164567,-7.28218 -1.048178,-16.44187 -3.682462,-24.52616 -2.634284,-8.08428 -7.075607,-15.21365 -14.494727,-17.93327 -1.79905,-0.65946 -2.99341,-1.53115 -3.92999,-0.70642 -0.93658,0.82478 -1.34612,1.75633 -1.49758,2.14044 -0.24152,0.61427 0.0603,1.30776 0.67438,1.54978 0.61426,0.2415 1.30826,-0.0605 1.55029,-0.67438 0.0413,-0.10467 0.38023,-0.80067 0.85473,-1.21853 0.4745,-0.41787 0.91451,-0.69169 1.96267,-0.30747 6.433346,2.35825 10.526366,8.70425 13.043646,16.42948 2.306045,7.07695 3.149761,15.07979 3.414779,21.87774 -8.167197,-3.35397 -17.513665,-7.70698 -23.526725,-14.32833 -6.44273,-7.09446 -9.23563,-16.46277 -2.72232,-30.4648 0.20823,-1.9463 -1.07035,-4.05588 -1.71617,-5.88595 20.720529,5.43077 29.609763,16.59008 32.908066,31.00534 3.417221,14.93498 0.675844,33.39822 -1.829346,51.81545 -0.04106,0.32055 0.04983,0.64431 0.251147,0.8971 -0.0036,0.0544 -0.01395,0.10456 -0.01757,0.15916 -5.568016,-14.95434 -18.582377,-23.73597 -29.939257,-25.19639 -6.85271,-0.88122 -13.23345,0.89234 -16.69046,5.77277 -3.457,4.88043 -3.74775,12.52633 0.71365,22.79603 0.311,0.71291 1.20878,0.94407 1.82522,0.46973 5.76337,-4.43613 12.64326,-8.44561 19.29649,-9.56169 6.653246,-1.1161 13.019214,0.46373 18.522906,7.46725 -3.849709,-7.82741 -12.796006,-10.31811 -18.918226,-9.82627 -6.78616,1.1384 -13.33016,4.95725 -18.99988,9.14879 -0.31812,-7.60903 -0.0687,-7.91684 2.60191,-11.68714 2.8102,-3.9673 8.16321,-5.59114 14.43427,-4.78472 12.414279,1.5964 24.605599,5.42595 27.177665,25.0734 l 0.156063,1.26039 c 0.124105,3.98788 -1.614006,11.27934 -3.52795,18.73219 -0.479228,0.99676 -0.939288,2.0405 -1.379761,3.13211 -2.7171,6.83271 -3.178827,24.52795 -3.178827,34.03781 0,13.46563 3.156961,24.43349 9.470223,32.90445 5.034627,6.83271 11.447451,10.2495 19.239136,10.2495 5.194456,0 9.949368,-1.5385 14.264762,-4.61522 4.355352,-3.07672 7.911542,-8.01151 10.668592,-14.80427 2.75706,-6.79275 4.13567,-14.82403 4.13567,-24.09413 0,-9.19019 -2.29548,-26.76552 -5.0925,-33.67814 -2.79701,-6.95258 -6.27326,-11.94682 -10.428821,-14.98358 -4.155565,-3.07672 -8.790552,-4.61522 -13.905094,-4.61522 -4.27528,0 -8.204086,0.96428 -11.786878,2.89336 -2.265808,0.29761 -4.281945,0.20526 -4.622456,-0.97513 -0.814224,-2.82255 -1.619229,-5.61125 -1.631942,-5.70922 -1.672017,-23.82817 8.788609,-40.20484 20.058724,-47.28342 5.722304,-3.59411 11.5992,-4.75782 16.122017,-3.47679 5.84688,1.65607 9.94321,8.44514 7.71477,11.63754 -1.52623,2.18647 -3.85047,4.28439 -6.57117,5.9185 -5.441417,3.26822 -13.726519,6.40256 -17.699699,1.973 -2.585626,-2.88261 -3.31399,0.0178 -3.311426,-0.75757 0.01193,-3.61289 4.110135,-5.8872 6.150529,-7.67757 l 3.7021,-2.51406 c -0.07015,0.16529 -0.02723,0.38517 0.428914,0.56121 1.681557,0.64894 2.491148,-1.01874 2.27428,-1.64176 -0.110823,-0.31722 -0.39699,-0.62053 -0.688847,-0.83716 -0.892491,-0.66247 -2.166731,-0.10131 -2.426209,-0.0982 -0.518939,0.007 -0.913437,0.15596 -1.351855,0.34934 -0.876835,0.38661 -1.887134,1.0302 -3.057695,1.87482 -2.341177,1.6892 -5.262734,4.17971 -8.067724,6.82542 -2.804992,2.64572 -5.478109,5.43432 -7.299296,7.75043 -0.910593,1.15804 -1.609843,2.17909 -2.026233,3.12126 -0.208194,0.47109 -0.363501,0.92386 -0.360702,1.46451 0.0027,0.54065 0.307009,1.25311 0.851111,1.59318 0.230608,0.14391 0.503669,0.20449 0.773596,0.1726 1.773938,-0.20709 3.531438,-1.30115 5.688542,-1.95233 2.157103,-0.65119 4.447728,-0.9201 6.817672,0.26148 6.335873,3.15894 14.047733,1.51169 19.999292,-2.06292 2.97577,-1.78732 5.53483,-4.07101 7.29878,-6.59805 1.76396,-2.52706 2.75519,-5.33979 2.36162,-8.11113 -1.05189,-7.40699 -5.15087,-12.02351 -10.54613,-13.55163 -5.395283,-1.52815 -11.901585,-0.10694 -18.047477,3.75326 -6.722711,4.22244 -12.973033,11.50894 -16.98346,21.28449 1.355266,-12.26611 7.677742,-22.48257 5.271513,-32.99902 -3.573154,-15.61649 -19.419137,-29.88202 -42.419629,-35.21904 -0.11505,-0.0268 -0.22829,-0.0361 -0.33745,-0.0305 z m 53.483039,105.57495 c 3.036759,0 5.394228,1.99822 7.072437,5.99395 2.317526,5.47416 4.373166,26.48523 4.373166,43.98655 0,8.23122 -0.659064,15.86327 -1.977657,22.89576 -0.958976,5.19446 -2.21766,8.59075 -3.775997,10.18905 -1.518379,1.59829 -3.216783,2.39727 -5.094779,2.39727 -2.87693,0 -5.094487,-1.75785 -6.652824,-5.2741 -2.477356,-5.67395 -3.716052,-15.34367 -3.716052,-29.00908 0,-16.34256 -0.03744,-36.89444 1.680727,-42.60835 1.758124,-5.7139 4.45486,-8.57105 8.090979,-8.57105 z"
       sodipodi:nodetypes="cccccscsccccccssccccscccsscccccccsccccscscssccscsccsssssccccscccssscccscssscccscccscsccscscs" />
    <g
       id="g71"
       transform="translate(-145.29601,895.47322)">
      <text
         xml:space="preserve"
         style="font-style:normal;font-variant:normal;font-weight:normal;font-stretch:normal;font-size:70.5556px;line-height:0;font-family:Cambria;-inkscape-font-specification:'Cambria, Normal';font-variant-ligatures:normal;font-variant-caps:normal;font-variant-numeric:normal;font-variant-east-asian:normal;text-align:center;writing-mode:lr-tb;direction:ltr;text-anchor:middle;fill:url(#linearGradient69);fill-opacity:1;stroke:url(#linearGradient69);stroke-width:1.32292;stroke-linecap:round;stroke-linejoin:round"
         x="125.93472"
         y="-786.38324"
         id="text59"><tspan
           sodipodi:role="line"
           id="tspan59"
           style="font-style:normal;font-variant:normal;font-weight:normal;font-stretch:normal;font-size:70.5556px;font-family:Cambria;-inkscape-font-specification:'Cambria, Normal';font-variant-ligatures:normal;font-variant-caps:normal;font-variant-numeric:normal;font-variant-east-asian:normal;fill:url(#linearGradient69);fill-opacity:1;stroke:url(#linearGradient69);stroke-width:1.32292;stroke-opacity:1"
           x="125.93472"
           y="-786.38324">-</tspan></text>
      <text
         xml:space="preserve"
         style="font-style:normal;font-variant:normal;font-weight:normal;font-stretch:normal;font-size:70.5556px;line-height:0;font-family:Cambria;-inkscape-font-specification:'Cambria, Normal';font-variant-ligatures:normal;font-variant-caps:normal;font-variant-numeric:normal;font-variant-east-asian:normal;text-align:center;writing-mode:lr-tb;direction:ltr;text-anchor:middle;fill:url(#linearGradient67);fill-opacity:1;stroke:url(#linearGradient67);stroke-width:1.32292;stroke-linecap:round;stroke-linejoin:round;stroke-opacity:1"
         x="250.2683"
         y="-779.50397"
         id="text60"><tspan
           sodipodi:role="line"
           id="tspan60"
           style="font-style:normal;font-variant:normal;font-weight:normal;font-stretch:normal;font-size:70.5556px;font-family:Cambria;-inkscape-font-specification:'Cambria, Normal';font-variant-ligatures:normal;font-variant-caps:normal;font-variant-numeric:normal;font-variant-east-asian:normal;fill:url(#linearGradient67);fill-opacity:1;stroke:url(#linearGradient67);stroke-width:1.32292;stroke-opacity:1"
           x="250.2683"
           y="-779.50397">Hunger</tspan></text>
    </g>
  </g>
</svg>
