<?xml version="1.0" encoding="UTF-8" standalone="no"?>
<!-- Created with Inkscape (http://www.inkscape.org/) -->

<svg
   width="4.9873471mm"
   height="4.6689816mm"
   viewBox="0 0 4.9873471 4.6689816"
   version="1.1"
   id="svg1"
   inkscape:version="1.3-dev (04872bc0, 2022-07-25)"
   sodipodi:docname="eye_open.svg"
   xmlns:inkscape="http://www.inkscape.org/namespaces/inkscape"
   xmlns:sodipodi="http://sodipodi.sourceforge.net/DTD/sodipodi-0.dtd"
   xmlns="http://www.w3.org/2000/svg"
   xmlns:svg="http://www.w3.org/2000/svg">
  <sodipodi:namedview
     id="namedview1"
     pagecolor="#505050"
     bordercolor="#ffffff"
     borderopacity="1"
     inkscape:showpageshadow="0"
     inkscape:pageopacity="0"
     inkscape:pagecheckerboard="1"
     inkscape:deskcolor="#d1d1d1"
     inkscape:document-units="mm"
     showgrid="false"
     inkscape:zoom="31.224243"
     inkscape:cx="9.4317738"
     inkscape:cy="8.8232722"
     inkscape:window-width="1366"
     inkscape:window-height="745"
     inkscape:window-x="-8"
     inkscape:window-y="-8"
     inkscape:window-maximized="1"
     inkscape:current-layer="layer1" />
  <defs
     id="defs1" />
  <g
     inkscape:label="Layer 1"
     inkscape:groupmode="layer"
     id="layer1"
     transform="translate(-81.846048,-127.53833)">
    <g
       id="g2"
       transform="matrix(0.81962434,0,0,0.81962434,190.00521,49.349913)">
      <path
         style="baseline-shift:baseline;display:inline;overflow:visible;fill:#ff0010;fill-opacity:1;stroke:#ff0010;stroke-width:0.130052;stroke-linecap:square;stroke-linejoin:miter;stroke-dasharray:none;stroke-opacity:1;enable-background:accumulate;stop-color:#000000"
         d="m -129.44177,95.49072 c -0.35181,-0.06351 -0.70535,-0.02315 -0.99708,0.08689 -0.74209,0.279884 -1.29053,0.782804 -1.42876,1.449466 -0.0696,0.335271 -0.0121,0.652686 0.13611,0.937747 0.14827,0.285059 0.38357,0.540456 0.67249,0.780682 0.75769,0.630001 1.48435,0.904627 2.80789,1.406315 0.0362,-0.0667 -0.43306,-0.275222 -0.49977,-0.311362 -0.80279,-0.433975 -1.58978,-0.855145 -2.13238,-1.306306 -0.27128,-0.225578 -0.4802,-0.457712 -0.60436,-0.696289 -0.12411,-0.238577 -0.16788,-0.480951 -0.11089,-0.755003 0.11444,-0.551985 0.5738,-0.990699 1.25674,-1.248274 0.32358,-0.122036 0.76152,-0.142105 1.14756,0.01111 0.94016,0.373086 1.5278,2.344449 1.15283,0.981031 -0.18167,-0.657984 -0.59313,-1.054787 -1.05141,-1.236652 -0.11457,-0.04546 -0.2316,-0.07817 -0.3489,-0.09932 z"
         id="path8-1"
         sodipodi:nodetypes="sssssccssssscss" />
      <path
         style="baseline-shift:baseline;display:inline;overflow:visible;fill:#ff0010;fill-opacity:1;stroke:#ff0010;stroke-width:0.130052;stroke-linecap:square;stroke-linejoin:miter;stroke-dasharray:none;stroke-opacity:1;enable-background:accumulate;stop-color:#000000"
         d="m -128.39712,100.99663 c 0.35186,0.0635 0.70538,0.0232 0.99711,-0.0869 0.74208,-0.27988 1.29054,-0.78279 1.42876,-1.449456 0.0696,-0.335271 0.0123,-0.652687 -0.13611,-0.937745 -0.14826,-0.285062 -0.38358,-0.540459 -0.67249,-0.780684 -0.7577,-0.630004 -1.48434,-0.90463 -2.80788,-1.406316 -0.0362,0.06672 0.43304,0.275225 0.49973,0.311367 0.80283,0.433974 1.5898,0.855144 2.1324,1.306301 0.27129,0.225579 0.48021,0.457711 0.60436,0.696289 0.12412,0.238579 0.16789,0.480952 0.1109,0.755005 -0.11444,0.551981 -0.57382,0.990699 -1.25675,1.248269 -0.32355,0.12204 -0.76152,0.1421 -1.14757,-0.0106 -0.94015,-0.37309 -1.52777,-2.344458 -1.15282,-0.981043 0.18168,0.657993 0.59312,1.054783 1.0514,1.236653 0.11457,0.0454 0.23162,0.0782 0.34889,0.0993 z"
         id="path9-5"
         sodipodi:nodetypes="sssssccssssscss" />
    </g>
  </g>
</svg>
