<?xml version="1.0" encoding="UTF-8" standalone="no"?>
<!-- Created with Inkscape (http://www.inkscape.org/) -->

<svg
   width="5.1354246mm"
   height="5.3616643mm"
   viewBox="0 0 5.1354244 5.3616645"
   version="1.1"
   id="svg1"
   inkscape:version="1.4.2 (f4327f4, 2025-05-13)"
   sodipodi:docname="eye_closed.svg"
   xmlns:inkscape="http://www.inkscape.org/namespaces/inkscape"
   xmlns:sodipodi="http://sodipodi.sourceforge.net/DTD/sodipodi-0.dtd"
   xmlns="http://www.w3.org/2000/svg"
   xmlns:svg="http://www.w3.org/2000/svg">
  <sodipodi:namedview
     id="namedview1"
     pagecolor="#505050"
     bordercolor="#ffffff"
     borderopacity="1"
     inkscape:showpageshadow="0"
     inkscape:pageopacity="0"
     inkscape:pagecheckerboard="1"
     inkscape:deskcolor="#d1d1d1"
     inkscape:document-units="mm"
     inkscape:zoom="14.91199"
     inkscape:cx="7.9130955"
     inkscape:cy="10.897271"
     inkscape:window-width="1366"
     inkscape:window-height="745"
     inkscape:window-x="-8"
     inkscape:window-y="-8"
     inkscape:window-maximized="1"
     inkscape:current-layer="layer1">
    <inkscape:page
       x="0"
       y="0"
       width="5.1354241"
       height="5.3616643"
       id="page2"
       margin="0"
       bleed="0" />
  </sodipodi:namedview>
  <defs
     id="defs1" />
  <g
     inkscape:label="Layer 1"
     inkscape:groupmode="layer"
     id="layer1"
     transform="translate(131.80834,-76.540703)">
    <path
       style="baseline-shift:baseline;display:inline;overflow:visible;vector-effect:none;fill:#ff0010;fill-opacity:1;stroke:#ff0010;stroke-width:0.109551;stroke-linecap:square;stroke-linejoin:miter;stroke-opacity:1;enable-background:accumulate;stop-color:#000000"
       d="m -129.92386,77.904072 c -0.33461,0.02791 -0.64553,0.150461 -0.88342,0.321184 -0.60518,0.434291 -0.98047,1.02384 -0.94382,1.662219 0.0185,0.321049 0.14762,0.595057 0.35148,0.817599 0.20386,0.222542 0.47934,0.397053 0.79982,0.544751 0.8405,0.387348 1.56646,0.459846 2.88909,0.593241 0.0166,-0.0693 -0.45975,-0.144413 -0.52905,-0.160986 -0.83379,-0.198542 -1.65008,-0.389322 -2.25198,-0.66671 -0.30094,-0.138692 -0.54689,-0.298498 -0.7175,-0.48475 -0.17062,-0.186253 -0.26918,-0.395507 -0.28424,-0.657934 -0.0303,-0.528567 0.27974,-1.038219 0.83668,-1.437891 0.26386,-0.189355 0.65627,-0.314016 1.04373,-0.268878 0.94357,0.109925 1.95584,1.755461 1.28427,0.609742 -0.32475,-0.552743 -0.79447,-0.812698 -1.25442,-0.866281 -0.11499,-0.0134 -0.22911,-0.01461 -0.34064,-0.0053 z"
       id="path8"
       sodipodi:nodetypes="sssssccssssscss"
       inkscape:export-filename="open.svg"
       inkscape:export-xdpi="96"
       inkscape:export-ydpi="96" />
    <path
       style="baseline-shift:baseline;display:inline;overflow:visible;vector-effect:none;fill:#ff0010;fill-opacity:1;stroke:#ff0010;stroke-width:0.109551;stroke-linecap:square;stroke-linejoin:miter;stroke-opacity:1;enable-background:accumulate;stop-color:#000000"
       d="m -128.55739,80.539006 c 0.33461,-0.02791 0.64552,-0.150462 0.88342,-0.321184 0.60518,-0.434291 0.98046,-1.02384 0.94382,-1.66222 -0.0185,-0.321049 -0.14762,-0.595057 -0.35148,-0.817598 -0.20386,-0.222542 -0.47934,-0.397053 -0.79983,-0.544751 -0.84049,-0.387348 -1.56645,-0.459846 -2.88908,-0.593242 -0.0165,0.0693 0.45975,0.144413 0.52904,0.160986 0.83379,0.198543 1.65009,0.389323 2.25198,0.66671 0.30095,0.138692 0.54689,0.298498 0.71751,0.48475 0.17062,0.186254 0.26917,0.395508 0.28424,0.657934 0.0303,0.528567 -0.27974,1.03822 -0.83668,1.437891 -0.26386,0.189355 -0.65627,0.314016 -1.04373,0.268878 -0.94357,-0.109925 -1.95584,-1.755461 -1.28427,-0.609742 0.32475,0.552744 0.79447,0.812698 1.25442,0.866282 0.11498,0.0134 0.2291,0.01461 0.34064,0.0053 z"
       id="path9"
       sodipodi:nodetypes="sssssccssssscss" />
  </g>
</svg>
