<?xml version="1.0" encoding="UTF-8" standalone="no"?>
<!-- Created with Inkscape (http://www.inkscape.org/) -->

<svg
   width="282.11279mm"
   height="162.13603mm"
   viewBox="0 0 282.11278 162.13604"
   version="1.1"
   id="svg1"
   inkscape:version="1.3-dev (04872bc0, 2022-07-25)"
   sodipodi:docname="heartbroken.svg"
   xmlns:inkscape="http://www.inkscape.org/namespaces/inkscape"
   xmlns:sodipodi="http://sodipodi.sourceforge.net/DTD/sodipodi-0.dtd"
   xmlns="http://www.w3.org/2000/svg"
   xmlns:svg="http://www.w3.org/2000/svg">
  <sodipodi:namedview
     id="namedview1"
     pagecolor="#505050"
     bordercolor="#ffffff"
     borderopacity="1"
     inkscape:showpageshadow="0"
     inkscape:pageopacity="0"
     inkscape:pagecheckerboard="1"
     inkscape:deskcolor="#d1d1d1"
     inkscape:document-units="mm"
     inkscape:zoom="0.51316815"
     inkscape:cx="544.65579"
     inkscape:cy="361.47996"
     inkscape:window-width="1366"
     inkscape:window-height="745"
     inkscape:window-x="-8"
     inkscape:window-y="-8"
     inkscape:window-maximized="1"
     inkscape:current-layer="layer1"
     showgrid="false" />
  <defs
     id="defs1" />
  <g
     inkscape:label="Layer 1"
     inkscape:groupmode="layer"
     id="layer1"
     transform="translate(49.995696,-168.35749)">
    <g
       id="g8"
       transform="translate(-18.510273)">
      <path
         style="baseline-shift:baseline;display:inline;overflow:visible;fill:#ff0010;fill-opacity:1;stroke:none;stroke-width:3.07133;stroke-linecap:square;stroke-linejoin:miter;stroke-opacity:1;enable-background:accumulate;stop-color:#000000"
         d="m 33.16124,191.52684 c -9.26385,-1.67217 -18.57266,-0.60945 -26.25376,2.28752 -19.5396,7.36946 -33.98025,20.61147 -37.62002,38.16483 -1.83049,8.82781 -0.32017,17.18545 3.58562,24.69116 3.90579,7.50571 10.09939,14.23039 17.70658,20.55559 19.95014,16.58819 39.08324,23.81912 73.93239,37.02864 0.95074,-1.75674 -11.40222,-7.2467 -13.1585,-8.19834 -21.13862,-11.42666 -41.85968,-22.51615 -56.14637,-34.39527 -7.14337,-5.93953 -12.64396,-12.05171 -15.91287,-18.33349 -3.26889,-6.2818 -4.41937,-12.66357 -2.92313,-19.87945 3.01367,-14.53388 15.10882,-26.0854 33.09087,-32.8674 8.51941,-3.21316 20.05059,-3.7416 30.21552,0.2922 24.75442,9.82345 40.22666,61.73007 30.354,25.83079 -4.78355,-17.32485 -15.6174,-27.77283 -27.68413,-32.56133 -3.01664,-1.19712 -6.09824,-2.05806 -9.1862,-2.61545 z"
         id="path3"
         sodipodi:nodetypes="sssssccssssscss" />
      <path
         style="baseline-shift:baseline;display:inline;overflow:visible;fill:#ff0010;fill-opacity:1;stroke:none;stroke-width:2.19103;stroke-linecap:square;stroke-linejoin:miter;stroke-opacity:1;enable-background:accumulate;stop-color:#000000"
         d="m 30.03329,207.53225 c -6.60865,-1.19289 -13.24938,-0.43477 -18.72893,1.63188 -13.93919,5.25723 -24.24088,14.70383 -26.83743,27.22607 -1.30584,6.2976 -0.22839,12.25978 2.55792,17.61422 2.78631,5.35443 7.20472,10.15169 12.63155,14.66397 14.23205,11.83371 27.88125,16.99211 52.74198,26.41554 0.67825,-1.25323 -8.13414,-5.16967 -9.38703,-5.84854 -15.07989,-8.15157 -29.86192,-16.0626 -40.05377,-24.53695 -5.09594,-4.23715 -9.01997,-8.59746 -11.35194,-13.07876 -2.33197,-4.48133 -3.15271,-9.03396 -2.08531,-14.18164 2.14989,-10.3682 10.77835,-18.60883 23.6064,-23.44698 6.0776,-2.29221 14.30373,-2.66919 21.55519,0.20844 17.65935,7.00787 28.69695,44.03709 21.65398,18.42721 -3.4125,-12.35923 -11.14116,-19.81262 -19.74934,-23.22865 -2.15202,-0.854 -4.35037,-1.46818 -6.55327,-1.86581 z"
         id="path5"
         sodipodi:nodetypes="sssssccssssscss" />
      <path
         style="color:#000000;fill:#ff0010;stroke-linecap:square"
         d="m 71.685832,232.79992 -10.763183,15.26758 23.004593,-4.92277 -32.573692,62.91151 13.1585,8.19834 30.730911,-82.71442 -29.691615,12.37088 7.495765,-5.12797 z"
         id="path2"
         sodipodi:nodetypes="ccccccccc" />
      <path
         style="color:#000000;fill:#ff0010;stroke-width:0.670803;stroke-linecap:square"
         d="m 56.464299,233.26349 -9.557027,28.11084 15.431542,-3.30221 -18.767192,31.51234 8.826758,5.49947 17.53105,-44.79618 -19.917217,8.29842 8.474918,-17.21975 z"
         id="path6"
         sodipodi:nodetypes="ccccccccc" />
    </g>
    <g
       id="g11"
       transform="rotate(-15,48.914237,286.98428)">
      <g
         id="g9"
         transform="rotate(14.191211,77.337447,266.7259)">
        <path
           style="baseline-shift:baseline;display:inline;overflow:visible;fill:#ff0010;fill-opacity:1;stroke:none;stroke-width:3.07133;stroke-linecap:square;stroke-linejoin:miter;stroke-opacity:1;enable-background:accumulate;stop-color:#000000"
           d="m 172.04228,201.08576 c 9.16495,2.14914 17.28372,6.82556 23.17966,12.53779 14.99841,14.53108 22.98327,32.42313 19.34349,49.97649 -1.83049,8.82782 -6.53941,15.89586 -13.10754,21.22975 -6.56815,5.33389 -14.92494,9.04148 -24.41992,11.82045 -24.90101,7.28809 -45.33175,6.31527 -82.559974,4.57919 -0.17386,-1.98994 13.343534,-2.11555 15.333394,-2.29041 23.93919,-2.07955 47.3612,-4.01576 65.19329,-9.23489 8.91606,-2.60953 16.39344,-6.03067 21.89055,-10.49477 5.49712,-4.46413 9.09023,-9.86229 10.58648,-17.07817 3.01367,-14.53388 -3.49123,-29.94221 -17.29408,-43.31496 -6.53942,-6.33568 -16.90977,-11.40552 -27.84052,-11.74601 -26.61943,-0.82917 -61.45482,40.64593 -38.12208,11.63194 11.27776,-13.99445 25.37265,-19.27334 38.34848,-18.86914 3.24393,0.10104 6.41377,0.53636 9.46877,1.25274 z"
           id="path1"
           sodipodi:nodetypes="sssssccssssscss" />
        <path
           style="baseline-shift:baseline;display:inline;overflow:visible;fill:#ff0010;fill-opacity:1;stroke:none;stroke-width:4.34624;stroke-linecap:square;stroke-linejoin:miter;stroke-opacity:1;enable-background:accumulate;stop-color:#000000"
           d="m 177.10241,178.01558 c 12.96931,3.04123 24.45819,9.65884 32.80152,17.74222 21.22426,20.56293 32.52364,45.88197 27.37299,70.72173 -2.59033,12.49224 -9.25392,22.49424 -18.54849,30.04222 -9.29459,7.54799 -21.12027,12.7946 -34.55662,16.72713 -35.23742,10.31337 -64.14896,8.93672 -116.830624,6.48 -0.24603,-2.81596 18.88243,-2.99371 21.69828,-3.24115 33.876364,-2.94278 67.020844,-5.6827 92.255034,-13.0683 12.61712,-3.69275 23.19835,-8.534 30.97732,-14.85115 7.77897,-6.31719 12.86358,-13.95613 14.98092,-24.16732 4.26464,-20.56689 -4.94044,-42.37122 -24.47285,-61.295 -9.25394,-8.96562 -23.92902,-16.13994 -39.39713,-16.62177 -37.66914,-1.17337 -86.964714,57.51804 -53.94655,16.46036 15.95916,-19.80356 35.90485,-27.27372 54.26694,-26.70173 4.59048,0.14298 9.07613,0.759 13.39926,1.77276 z"
           id="path4"
           sodipodi:nodetypes="sssssccssssscss" />
        <path
           style="color:#000000;fill:#ff0010;stroke-linecap:square"
           d="m 98.573714,217.39526 -15.551153,56.27535 18.830309,-8.49568 -34.511684,54.55395 11.424138,-2.71578 39.158006,-69.39363 -27.170865,16.2017 34.549995,-68.65413 z"
           id="path7"
           sodipodi:nodetypes="ccccccccc" />
        <path
           style="color:#000000;fill:#ff0010;stroke-linecap:square"
           d="m 116.59776,229.00981 7.51707,18.80264 23.74318,-11.90151 -53.380014,65.31849 15.333394,-2.29041 47.81738,-71.33586 -31.77553,15.68204 2.14237,-28.83964 z"
           id="path8"
           sodipodi:nodetypes="ccccccccc" />
      </g>
    </g>
    <path
       style="fill:#ff0000;fill-opacity:1;stroke:none;stroke-width:2.70999;stroke-linecap:square;stroke-dasharray:none;stroke-opacity:1"
       d="m 60.790447,210.00583 -8.763391,-14.10793 9.851541,-2.39549 z"
       id="path9" />
    <path
       style="fill:#ff0000;fill-opacity:1;stroke:none;stroke-width:5.73757;stroke-linecap:square;stroke-dasharray:none;stroke-opacity:1"
       d="M 76.639179,207.44366 99.80861,180.99392 80.055104,172.5939 Z"
       id="path10" />
    <path
       style="fill:#ff0000;fill-opacity:1;stroke:none;stroke-width:2.18613;stroke-linecap:square;stroke-dasharray:none;stroke-opacity:1"
       d="m 54.536838,317.40674 -9.774064,9.16331 7.176243,3.92347 z"
       id="path11" />
  </g>
</svg>
