<?xml version="1.0" encoding="UTF-8" standalone="no"?>
<!-- Created with Inkscape (http://www.inkscape.org/) -->

<svg
   width="10.179999mm"
   height="9.9997997mm"
   viewBox="0 0 10.18 9.9997993"
   version="1.1"
   id="svg1"
   inkscape:version="1.3-dev (04872bc0, 2022-07-25)"
   sodipodi:docname="sign-in.svg"
   xmlns:inkscape="http://www.inkscape.org/namespaces/inkscape"
   xmlns:sodipodi="http://sodipodi.sourceforge.net/DTD/sodipodi-0.dtd"
   xmlns="http://www.w3.org/2000/svg"
   xmlns:svg="http://www.w3.org/2000/svg">
  <sodipodi:namedview
     id="namedview1"
     pagecolor="#505050"
     bordercolor="#ffffff"
     borderopacity="1"
     inkscape:showpageshadow="0"
     inkscape:pageopacity="0"
     inkscape:pagecheckerboard="1"
     inkscape:deskcolor="#d1d1d1"
     inkscape:document-units="mm"
     showgrid="false"
     inkscape:zoom="0.5"
     inkscape:cx="48"
     inkscape:cy="79"
     inkscape:window-width="1366"
     inkscape:window-height="745"
     inkscape:window-x="-8"
     inkscape:window-y="-8"
     inkscape:window-maximized="1"
     inkscape:current-layer="layer1" />
  <defs
     id="defs1" />
  <g
     inkscape:label="Layer 1"
     inkscape:groupmode="layer"
     id="layer1"
     transform="translate(-99.91,-143.5001)">
    <g
       id="g1"
       transform="matrix(0.08844163,0,0,0.08844163,95.237186,135.8511)">
      <path
         style="baseline-shift:baseline;display:inline;overflow:visible;vector-effect:none;fill:#008080;stroke-linecap:round;stroke-linejoin:round;enable-background:accumulate;stop-color:#000000"
         d="m 99.132654,114.63496 c -3.06395,0.0793 -5.961447,1.03349 -8.21875,2.46485 -5.742262,3.64116 -9.470703,8.81748 -9.470703,14.65429 0,2.93541 1.034006,5.50007 2.77539,7.63477 1.741385,2.1347 4.160521,3.86916 7.003907,5.38281 7.456918,3.96965 25.233582,9.52267 26.018282,6.91768 0.18698,-0.62292 -4.11421,-1.55656 -4.73703,-1.74385 -7.49461,-2.24553 -14.833784,-4.41117 -20.173831,-7.25391 -2.670023,-1.42136 -4.827726,-3.00636 -6.285156,-4.79296 -1.457429,-1.78661 -2.246093,-3.74513 -2.246094,-6.14454 0,-4.83278 3.092423,-9.3151 8.376954,-12.66601 2.50367,-1.58758 6.144996,-2.51834 9.652347,-1.9043 8.54137,1.49538 16.90547,17.02094 11.38476,6.22852 -2.67034,-5.20712 -6.81497,-7.82185 -10.97851,-8.55078 -1.04089,-0.18224 -2.08025,-0.253 -3.101566,-0.22657 z"
         id="path2"
         sodipodi:nodetypes="sssssccssssscss" />
      <path
         style="baseline-shift:baseline;display:inline;overflow:visible;vector-effect:none;fill:#008080;stroke-linecap:round;stroke-linejoin:round;enable-background:accumulate;stop-color:#000000"
         d="m 121.64152,114.63496 c 3.06395,0.0793 5.96144,1.03349 8.21875,2.46485 5.74226,3.64116 9.4707,8.81748 9.4707,14.65429 0,2.93541 -1.03401,5.50007 -2.77539,7.63477 -1.74139,2.1347 -4.16052,3.86916 -7.00391,5.38281 -7.45692,3.96965 -25.23358,9.52267 -26.01828,6.91768 -0.18698,-0.62292 4.11421,-1.55656 4.73703,-1.74385 7.49461,-2.24553 14.83378,-4.41117 20.17383,-7.25391 2.67002,-1.42136 4.82773,-3.00636 6.28516,-4.79296 1.45743,-1.78661 2.24609,-3.74513 2.24609,-6.14454 0,-4.83278 -3.09242,-9.3151 -8.37695,-12.66601 -2.50367,-1.58758 -6.145,-2.51834 -9.65235,-1.9043 -8.54137,1.49538 -16.90547,17.02094 -11.38476,6.22852 2.67034,-5.20712 6.81497,-7.82185 10.97851,-8.55078 1.04089,-0.18224 2.08025,-0.253 3.10157,-0.22657 z"
         id="path1"
         sodipodi:nodetypes="sssssccssssscss" />
    </g>
    <ellipse
       style="fill:none;stroke:#00ffff;stroke-width:0.265325;stroke-linecap:square;stroke-dasharray:none"
       id="path3"
       cx="105"
       cy="148.5"
       rx="4.9573374"
       ry="4.8672376" />
    <path
       id="ellipse3"
       style="fill:none;stroke:#00ffff;stroke-width:0.265325;stroke-linecap:square;stroke-dasharray:none"
       d="m 104.99998,149.67426 a 4.9573373,4.8672375 0 0 0 -0.3383,0.0124 4.9573373,4.8672375 0 0 0 -0.10927,0.01 4.9573373,4.8672375 0 0 0 -0.23026,0.0255 4.9573373,4.8672375 0 0 0 -0.12381,0.0184 4.9573373,4.8672375 0 0 0 -0.22084,0.041 4.9573373,4.8672375 0 0 0 -0.11686,0.0245 4.9573373,4.8672375 0 0 0 -0.27532,0.0724 4.9573373,4.8672375 0 0 0 -0.0572,0.0159 4.9573373,4.8672375 0 0 0 -0.30722,0.10557 4.9573373,4.8672375 0 0 0 -0.1128,0.0456 4.9573373,4.8672375 0 0 0 -0.19968,0.0855 4.9573373,4.8672375 0 0 0 -0.12271,0.0583 4.9573373,4.8672375 0 0 0 -0.1856,0.0963 4.9573373,4.8672375 0 0 0 -0.11581,0.0637 4.9573373,4.8672375 0 0 0 -0.20978,0.12939 4.9573373,4.8672375 0 0 0 -0.0765,0.0483 4.9573373,4.8672375 0 0 0 -0.005,0.003 4.9573373,4.8672375 0 0 0 -0.25566,0.1852 4.9573373,4.8672375 0 0 0 -0.10498,0.0853 4.9573373,4.8672375 0 0 0 -0.15256,0.12893 4.9573373,4.8672375 0 0 0 -0.10937,0.10023 4.9573373,4.8672375 0 0 0 -0.13588,0.1334 4.9573373,4.8672375 0 0 0 -0.10233,0.10576 4.9573373,4.8672375 0 0 0 -0.14099,0.16088 4.9573373,4.8672375 0 0 0 -0.0779,0.0909 4.9573373,4.8672375 0 0 0 3.88626,1.84647 4.9573373,4.8672375 0 0 0 3.88631,-1.84647 4.9573373,4.8672375 0 0 0 -1.33487,-1.15191 4.9573373,4.8672375 0 0 0 -0.52641,-0.2696 4.9573373,4.8672375 0 0 0 -0.003,-0.001 4.9573373,4.8672375 0 0 0 -0.27363,-0.11065 4.9573373,4.8672375 0 0 0 -0.56164,-0.17112 4.9573373,4.8672375 0 0 0 -0.0139,-0.003 4.9573373,4.8672375 0 0 0 -0.28268,-0.0593 4.9573373,4.8672375 0 0 0 -0.002,-4e-4 4.9573373,4.8672375 0 0 0 -0.28829,-0.0429 4.9573373,4.8672375 0 0 0 -0.0135,-0.002 4.9573373,4.8672375 0 0 0 -0.27545,-0.0245 4.9573373,4.8672375 0 0 0 -0.0232,-0.002 4.9573373,4.8672375 0 0 0 -0.2872,-0.008 z" />
  </g>
</svg>
