<?xml version="1.0" encoding="UTF-8" standalone="no"?>
<!-- Created with Inkscape (http://www.inkscape.org/) -->

<svg
   width="4.9999995mm"
   height="4.9138141mm"
   viewBox="0 0 5 4.9138139"
   version="1.1"
   id="svg1"
   inkscape:version="1.3-dev (04872bc0, 2022-07-25)"
   sodipodi:docname="sign-in.svg"
   xmlns:inkscape="http://www.inkscape.org/namespaces/inkscape"
   xmlns:sodipodi="http://sodipodi.sourceforge.net/DTD/sodipodi-0.dtd"
   xmlns="http://www.w3.org/2000/svg"
   xmlns:svg="http://www.w3.org/2000/svg">
  <sodipodi:namedview
     id="namedview1"
     pagecolor="#505050"
     bordercolor="#ffffff"
     borderopacity="1"
     inkscape:showpageshadow="0"
     inkscape:pageopacity="0"
     inkscape:pagecheckerboard="1"
     inkscape:deskcolor="#d1d1d1"
     inkscape:document-units="mm"
     showgrid="false"
     inkscape:zoom="14.578834"
     inkscape:cx="0.58303702"
     inkscape:cy="9.2942961"
     inkscape:window-width="1366"
     inkscape:window-height="745"
     inkscape:window-x="-8"
     inkscape:window-y="-8"
     inkscape:window-maximized="1"
     inkscape:current-layer="layer1" />
  <defs
     id="defs1" />
  <g
     inkscape:label="Layer 1"
     inkscape:groupmode="layer"
     id="layer1"
     transform="translate(-102.5,-146.04314)">
    <g
       id="g1"
       transform="matrix(0.04234152,0,0,0.04234152,100.19693,138.49799)"
       style="fill:#00ffff;stroke:#008080;stroke-width:2.99162;stroke-dasharray:none;stroke-opacity:1">
      <path
         style="baseline-shift:baseline;display:inline;overflow:visible;fill:#00ffff;stroke:#008080;stroke-width:2.99162;stroke-linecap:round;stroke-linejoin:round;stroke-dasharray:none;stroke-opacity:1;enable-background:accumulate;stop-color:#000000"
         d="m 99.132654,114.63496 c -3.06395,0.0793 -5.961447,1.03349 -8.21875,2.46485 -5.742262,3.64116 -9.470703,8.81748 -9.470703,14.65429 0,2.93541 1.034006,5.50007 2.77539,7.63477 1.741385,2.1347 4.160521,3.86916 7.003907,5.38281 7.456918,3.96965 25.233582,9.52267 26.018282,6.91768 0.18698,-0.62292 -4.11421,-1.55656 -4.73703,-1.74385 -7.49461,-2.24553 -14.833784,-4.41117 -20.173831,-7.25391 -2.670023,-1.42136 -4.827726,-3.00636 -6.285156,-4.79296 -1.457429,-1.78661 -2.246093,-3.74513 -2.246094,-6.14454 0,-4.83278 3.092423,-9.3151 8.376954,-12.66601 2.50367,-1.58758 6.144996,-2.51834 9.652347,-1.9043 8.54137,1.49538 16.90547,17.02094 11.38476,6.22852 -2.67034,-5.20712 -6.81497,-7.82185 -10.97851,-8.55078 -1.04089,-0.18224 -2.08025,-0.253 -3.101566,-0.22657 z"
         id="path2"
         sodipodi:nodetypes="sssssccssssscss" />
      <path
         style="baseline-shift:baseline;display:inline;overflow:visible;fill:#00ffff;stroke:#008080;stroke-width:2.99162;stroke-linecap:round;stroke-linejoin:round;stroke-dasharray:none;stroke-opacity:1;enable-background:accumulate;stop-color:#000000"
         d="m 127.74001,114.63496 c 3.06395,0.0793 5.96144,1.03349 8.21875,2.46485 5.74226,3.64116 9.4707,8.81748 9.4707,14.65429 0,2.93541 -1.03401,5.50007 -2.77539,7.63477 -1.74139,2.1347 -4.16052,3.86916 -7.00391,5.38281 -7.45692,3.96965 -25.23358,9.52267 -26.01828,6.91768 -0.18698,-0.62292 4.11421,-1.55656 4.73703,-1.74385 7.49461,-2.24553 14.83378,-4.41117 20.17383,-7.25391 2.67002,-1.42136 4.82773,-3.00636 6.28516,-4.79296 1.45743,-1.78661 2.24609,-3.74513 2.24609,-6.14454 0,-4.83278 -3.09242,-9.3151 -8.37695,-12.66601 -2.50367,-1.58758 -6.145,-2.51834 -9.65235,-1.9043 -8.54137,1.49538 -16.90547,17.02094 -11.38476,6.22852 2.67034,-5.20712 6.81497,-7.82185 10.97851,-8.55078 1.04089,-0.18224 2.08025,-0.253 3.10157,-0.22657 z"
         id="path1"
         sodipodi:nodetypes="sssssccssssscss" />
    </g>
    <ellipse
       style="fill:none;stroke:#00ffff;stroke-width:0.253;stroke-linecap:square;stroke-dasharray:none"
       id="path3"
       cx="105"
       cy="148.5"
       rx="2.3733304"
       ry="2.330195" />
    <path
       id="ellipse3"
       style="fill:none;stroke:#00ffff;stroke-width:0.253339;stroke-linecap:square;stroke-dasharray:none"
       d="m 104.99999,149.06218 a 2.3733303,2.330195 0 0 0 -0.16196,0.006 2.3733303,2.330195 0 0 0 -0.0523,0.005 2.3733303,2.330195 0 0 0 -0.11024,0.0122 2.3733303,2.330195 0 0 0 -0.0593,0.009 2.3733303,2.330195 0 0 0 -0.10572,0.0196 2.3733303,2.330195 0 0 0 -0.0559,0.0117 2.3733303,2.330195 0 0 0 -0.13181,0.0347 2.3733303,2.330195 0 0 0 -0.0274,0.008 2.3733303,2.330195 0 0 0 -0.14709,0.0505 2.3733303,2.330195 0 0 0 -0.054,0.0218 2.3733303,2.330195 0 0 0 -0.0956,0.0409 2.3733303,2.330195 0 0 0 -0.0587,0.0279 2.3733303,2.330195 0 0 0 -0.0889,0.0461 2.3733303,2.330195 0 0 0 -0.0554,0.0305 2.3733303,2.330195 0 0 0 -0.10044,0.0619 2.3733303,2.330195 0 0 0 -0.0366,0.0231 2.3733303,2.330195 0 0 0 -0.002,0.001 2.3733303,2.330195 0 0 0 -0.1224,0.0887 2.3733303,2.330195 0 0 0 -0.0503,0.0408 2.3733303,2.330195 0 0 0 -0.073,0.0617 2.3733303,2.330195 0 0 0 -0.0524,0.048 2.3733303,2.330195 0 0 0 -0.065,0.0639 2.3733303,2.330195 0 0 0 -0.049,0.0506 2.3733303,2.330195 0 0 0 -0.0675,0.077 2.3733303,2.330195 0 0 0 -0.0373,0.0435 2.3733303,2.330195 0 0 0 1.86055,0.884 2.3733303,2.330195 0 0 0 1.86058,-0.884 2.3733303,2.330195 0 0 0 -0.63907,-0.55147 2.3733303,2.330195 0 0 0 -0.25202,-0.12907 2.3733303,2.330195 0 0 0 -10e-4,-4.8e-4 2.3733303,2.330195 0 0 0 -0.131,-0.053 2.3733303,2.330195 0 0 0 -0.26888,-0.0819 2.3733303,2.330195 0 0 0 -0.007,-0.001 2.3733303,2.330195 0 0 0 -0.13533,-0.0284 2.3733303,2.330195 0 0 0 -9.6e-4,-1.9e-4 2.3733303,2.330195 0 0 0 -0.13802,-0.0205 2.3733303,2.330195 0 0 0 -0.006,-9.5e-4 2.3733303,2.330195 0 0 0 -0.13187,-0.0117 2.3733303,2.330195 0 0 0 -0.0111,-9.6e-4 2.3733303,2.330195 0 0 0 -0.1375,-0.004 z" />
    <ellipse
       style="fill:none;stroke:#00ffff;stroke-width:0.253;stroke-linecap:square;stroke-dasharray:none"
       id="ellipse1"
       cx="105"
       cy="147.81036"
       rx="0.74563223"
       ry="0.73208028" />
  </g>
</svg>
