<?xml version="1.0" encoding="UTF-8" standalone="no"?>
<!-- Created with Inkscape (http://www.inkscape.org/) -->

<svg
   width="188.63658mm"
   height="374.64679mm"
   viewBox="0 0 188.63658 374.64679"
   version="1.1"
   id="svg1"
   inkscape:version="1.4.2 (f4327f4, 2025-05-13)"
   sodipodi:docname="zeroling.svg"
   xmlns:inkscape="http://www.inkscape.org/namespaces/inkscape"
   xmlns:sodipodi="http://sodipodi.sourceforge.net/DTD/sodipodi-0.dtd"
   xmlns:xlink="http://www.w3.org/1999/xlink"
   xmlns="http://www.w3.org/2000/svg"
   xmlns:svg="http://www.w3.org/2000/svg">
  <sodipodi:namedview
     id="namedview1"
     pagecolor="#505050"
     bordercolor="#ffffff"
     borderopacity="1"
     inkscape:showpageshadow="0"
     inkscape:pageopacity="0"
     inkscape:pagecheckerboard="1"
     inkscape:deskcolor="#d1d1d1"
     inkscape:document-units="mm"
     inkscape:zoom="0.38347786"
     inkscape:cx="357.25661"
     inkscape:cy="707.99393"
     inkscape:window-width="1366"
     inkscape:window-height="745"
     inkscape:window-x="-8"
     inkscape:window-y="-8"
     inkscape:window-maximized="1"
     inkscape:current-layer="layer1" />
  <defs
     id="defs1">
    <linearGradient
       inkscape:collect="always"
       xlink:href="#linearGradient22"
       id="linearGradient71"
       gradientUnits="userSpaceOnUse"
       gradientTransform="matrix(1.9031783,0,0,1.9031783,121.98335,517.2828)"
       x1="54.838753"
       y1="-227.11646"
       x2="113.70759"
       y2="-117.69598" />
    <linearGradient
       id="linearGradient22"
       inkscape:collect="always">
      <stop
         style="stop-color:#0030c3;stop-opacity:1;"
         offset="0"
         id="stop22" />
      <stop
         style="stop-color:#00a1ff;stop-opacity:1;"
         offset="1"
         id="stop23" />
    </linearGradient>
  </defs>
  <g
     inkscape:label="Layer 1"
     inkscape:groupmode="layer"
     id="layer1"
     transform="translate(-149.75416,63.23542)">
    <path
       id="path59"
       style="baseline-shift:baseline;display:inline;overflow:visible;opacity:1;vector-effect:none;fill:url(#linearGradient71);stroke-width:3.44062;stroke-linecap:round;stroke-linejoin:round;enable-background:accumulate;stop-color:#000000"
       d="m 180.14299,-63.23241 c -1.45427,0.07365 -2.54557,1.552784 -2.02011,3.036045 7.98467,4.320234 6.89904,14.521327 0.35506,28.950155 -12.31373,27.30178 -6.77948,47.59543 6.26387,61.9582 13.21371,14.55041 33.49531,23.43351 49.86219,30.00543 0.5468,0.21986 4.71176,3.95837 5.90787,1.11923 2.12097,-5.03454 0.62192,-15.47791 0.59795,-16.52271 -0.3132,-13.85929 -1.99487,-31.29181 -7.00837,-46.67766 -5.01353,-15.38583 -13.46615,-28.95429 -27.58606,-34.13021 -3.42391,-1.255069 -5.69699,-2.91405 -7.47947,-1.344442 -1.78248,1.569702 -2.56191,3.342612 -2.85016,4.073642 -0.45966,1.16906 0.11476,2.4889 1.28346,2.9495 1.16905,0.45962 2.48985,-0.11514 2.95048,-1.28346 0.0786,-0.19921 0.72365,-1.52382 1.6267,-2.31908 0.90306,-0.79528 1.74048,-1.31641 3.73532,-0.58517 12.24381,4.48817 20.03355,16.56574 24.82439,31.26823 4.3888,13.4687 5.99455,28.69953 6.49891,41.63724 -15.54362,-6.3832 -33.33161,-14.66776 -44.77554,-27.26937 -12.26166,-13.50202 -17.57705,-31.33158 -5.18106,-57.979944 0.3963,-3.704156 -2.03707,-7.719063 -3.26618,-11.202012 39.43487,10.335723 56.35266,31.573876 62.62993,59.008686 6.50358,28.42393 1.28624,63.56277 -3.48158,98.61404 -0.0782,0.61007 0.0948,1.22624 0.47798,1.70734 -0.008,0.10354 -0.0264,0.199 -0.0335,0.30291 -10.59693,-28.46077 -35.36558,-45.17378 -56.97975,-47.95322 -13.04193,-1.67712 -25.18561,1.69828 -31.76492,10.98661 -6.57929,9.28833 -7.13264,23.83984 1.3582,43.38491 0.59189,1.3568 2.30053,1.79674 3.47372,0.89398 10.96872,-8.44274 24.06238,-16.0735 36.72466,-18.1976 12.66232,-2.12414 24.77788,0.88256 35.2524,14.21151 -7.32668,-14.89696 -24.35308,-19.6372 -36.00476,-18.70114 -12.91527,2.16657 -25.36967,9.43453 -36.16016,17.41177 -0.60544,-14.48134 -0.13075,-15.06715 4.9519,-22.24271 5.34831,-7.55048 15.53604,-10.64093 27.47099,-9.10617 23.62659,3.03823 46.82884,10.32655 51.72393,47.71915 l 0.29703,2.39875 c 0.23618,7.58964 -3.07175,21.46659 -6.71432,35.65069 -0.91206,1.89701 -1.78763,3.88344 -2.62593,5.96097 -5.17112,13.00386 -6.04988,46.68106 -6.04988,64.78002 0,25.62749 6.00826,46.50129 18.02352,62.62303 9.5818,13.00387 21.78654,19.50663 36.61552,19.50663 9.88596,0 18.93543,-2.92804 27.14838,-8.78359 8.28901,-5.85554 15.05707,-15.24733 20.30423,-28.17516 5.24718,-12.92782 7.87092,-28.21278 7.87092,-45.85543 0,-17.49057 -4.36871,-50.93956 -9.69194,-64.0955 -5.3232,-13.232 -11.93913,-22.73693 -19.8479,-28.51643 -7.90877,-5.85554 -16.72999,-8.78358 -26.46387,-8.78358 -8.13662,0 -15.61385,1.83519 -22.43253,5.50658 -4.31224,0.5664 -8.14932,0.39064 -8.79737,-1.85585 -1.54961,-5.37182 -3.08169,-10.67921 -3.10588,-10.86566 -3.18215,-45.34926 16.7263,-76.51698 38.17535,-89.98878 10.89056,-6.84024 22.07535,-9.05498 30.68306,-6.61695 11.12766,3.15179 18.9237,16.0726 14.68258,22.14831 -2.90468,4.16124 -7.32813,8.15396 -12.5061,11.26396 -10.35598,6.22001 -26.12402,12.18521 -33.68569,3.75497 -4.9209,-5.48612 -6.30712,0.0339 -6.30223,-1.44179 0.0226,-6.87597 7.82231,-11.20439 11.70556,-14.61178 l 7.04576,-4.78471 c -0.13341,0.31458 -0.0518,0.73305 0.81629,1.06808 3.20031,1.23505 4.7411,-1.93884 4.32836,-3.12456 -0.21091,-0.60372 -0.75554,-1.18098 -1.311,-1.59326 -1.69857,-1.2608 -4.12368,-0.19281 -4.61751,-0.1869 -0.98762,0.0133 -1.73842,0.29682 -2.57282,0.66486 -1.66876,0.73579 -3.59154,1.96066 -5.81935,3.56812 -4.45566,3.21485 -10.01591,7.95473 -15.35431,12.98999 -5.33839,5.03528 -10.42582,10.34248 -13.89187,14.75045 -1.73301,2.20396 -3.06381,4.1472 -3.85627,5.94031 -0.39622,0.89657 -0.69181,1.75827 -0.68648,2.78723 0.006,1.02895 0.5843,2.38489 1.61982,3.0321 0.43889,0.27389 0.95857,0.38918 1.47229,0.32849 3.37611,-0.39413 6.72095,-2.47632 10.82631,-3.71563 4.10535,-1.23933 8.46482,-1.75111 12.97524,0.49764 12.05829,6.01203 26.73534,2.87702 38.06222,-3.9261 5.66342,-3.40159 10.53377,-7.74786 13.89088,-12.55727 3.35713,-4.80944 5.24362,-10.16257 4.49458,-15.43692 -2.00193,-14.09683 -9.80302,-22.88289 -20.07116,-25.79117 -10.26818,-2.90834 -22.65083,-0.20353 -34.34756,7.14312 -12.79453,8.03606 -24.69,21.90357 -32.32255,40.50818 2.5793,-23.34459 14.61211,-42.78834 10.03263,-62.80302 -6.80036,-29.72096 -36.95809,-56.87081 -80.73213,-67.028111 -0.21896,-0.05101 -0.43447,-0.0687 -0.64222,-0.05805 z m 101.78777,200.92795 c 5.77949,0 10.26618,3.80297 13.46011,11.40756 4.41066,10.4183 8.32291,50.40611 8.32291,83.71425 0,15.66548 -1.25431,30.19063 -3.76384,43.57471 -1.8251,9.88598 -4.22061,16.34973 -7.18639,19.39158 -2.88974,3.04183 -6.12212,4.56243 -9.69627,4.56243 -5.47531,0 -9.69572,-3.3455 -12.66152,-10.03755 -4.71484,-10.79854 -7.07231,-29.20174 -7.07231,-55.20945 0,-31.10281 -0.0712,-70.2167 3.19873,-81.09129 3.34602,-10.87457 8.47839,-16.31224 15.39858,-16.31224 z"
       sodipodi:nodetypes="cccccscsccccccssccccscccsscccccccsccccscscssccscsccsssssccccscccssscccscssscccscccscsccscscs" />
  </g>
</svg>
