<?xml version="1.0" encoding="UTF-8" standalone="no"?>
<!-- Created with Inkscape (http://www.inkscape.org/) -->

<svg
   width="2048"
   height="1080"
   viewBox="0 0 541.86667 285.75"
   version="1.1"
   id="svg1"
   inkscape:version="1.4.2 (f4327f4, 2025-05-13)"
   sodipodi:docname="bg-landscape.svg"
   inkscape:export-filename="bg-landscape.png"
   inkscape:export-xdpi="96"
   inkscape:export-ydpi="96"
   xmlns:inkscape="http://www.inkscape.org/namespaces/inkscape"
   xmlns:sodipodi="http://sodipodi.sourceforge.net/DTD/sodipodi-0.dtd"
   xmlns:xlink="http://www.w3.org/1999/xlink"
   xmlns="http://www.w3.org/2000/svg"
   xmlns:svg="http://www.w3.org/2000/svg">
  <sodipodi:namedview
     id="namedview1"
     pagecolor="#505050"
     bordercolor="#ffffff"
     borderopacity="1"
     inkscape:showpageshadow="0"
     inkscape:pageopacity="0"
     inkscape:pagecheckerboard="1"
     inkscape:deskcolor="#d1d1d1"
     inkscape:document-units="mm"
     inkscape:zoom="0.36132812"
     inkscape:cx="1834.8973"
     inkscape:cy="541.05946"
     inkscape:window-width="1366"
     inkscape:window-height="745"
     inkscape:window-x="-8"
     inkscape:window-y="-8"
     inkscape:window-maximized="1"
     inkscape:current-layer="layer1" />
  <defs
     id="defs1">
    <linearGradient
       inkscape:collect="always"
       xlink:href="#linearGradient22"
       id="linearGradient71"
       gradientUnits="userSpaceOnUse"
       gradientTransform="matrix(1.9031783,0,0,1.9031783,-67.405041,653.9297)"
       x1="54.838753"
       y1="-227.11646"
       x2="113.70759"
       y2="-117.69598" />
    <linearGradient
       id="linearGradient22"
       inkscape:collect="always">
      <stop
         style="stop-color:#0030c3;stop-opacity:1;"
         offset="0"
         id="stop22" />
      <stop
         style="stop-color:#00a1ff;stop-opacity:1;"
         offset="1"
         id="stop23" />
    </linearGradient>
  </defs>
  <g
     inkscape:label="Layer 1"
     inkscape:groupmode="layer"
     id="layer1">
    <path
       id="path59"
       style="baseline-shift:baseline;display:inline;overflow:visible;opacity:0.25;vector-effect:none;fill:url(#linearGradient71);stroke-width:3.44062;stroke-linecap:round;stroke-linejoin:round;enable-background:accumulate;stop-color:#000000"
       d="m -9.2453969,73.41449 c -1.4542761,0.07365 -2.5455771,1.552784 -2.0201101,3.036045 7.9846701,4.320234 6.8990401,14.521327 0.355057,28.950155 -12.313734,27.30178 -6.779482,47.59543 6.2638741,61.9582 13.213709,14.55041 33.4953099,23.43351 49.8621859,30.00543 0.546803,0.21986 4.711756,3.95837 5.907866,1.11923 2.120978,-5.03454 0.62192,-15.47791 0.597959,-16.52271 -0.313206,-13.85929 -1.994873,-31.29181 -7.008378,-46.67766 -5.013523,-15.38583 -13.466147,-28.95429 -27.586055,-34.13021 -3.423914,-1.255069 -5.696994,-2.91405 -7.4794719,-1.344442 -1.782479,1.569702 -2.561907,3.342612 -2.850162,4.073642 -0.459656,1.16906 0.114762,2.4889 1.283465,2.9495 1.169047,0.45962 2.4898519,-0.11514 2.9504789,-1.28346 0.0786,-0.19921 0.723645,-1.52382 1.626703,-2.31908 0.903058,-0.79528 1.740476,-1.31641 3.735311,-0.58517 12.243813,4.48817 20.033559,16.56574 24.824392,31.26823 4.388805,13.4687 5.994555,28.69953 6.498916,41.63724 -15.543619,-6.3832 -33.331618,-14.66776 -44.7755429,-27.26937 -12.261664,-13.50202 -17.5770501,-31.33158 -5.18106,-57.979944 0.396298,-3.704156 -2.037067,-7.719063 -3.266177,-11.202012 39.4348619,10.335723 56.3526519,31.573876 62.6299239,59.008686 6.503578,28.42393 1.286244,63.56277 -3.481579,98.61404 -0.07822,0.61007 0.09478,1.22624 0.477983,1.70734 -0.0076,0.10354 -0.02645,0.199 -0.0335,0.30291 C 43.489747,210.27031 18.7211,193.5573 -2.8930679,190.77786 c -13.0419291,-1.67712 -25.1856141,1.69828 -31.7649201,10.98661 -6.579288,9.28833 -7.132637,23.83984 1.358203,43.38491 0.591888,1.3568 2.300524,1.79674 3.473719,0.89398 10.96872,-8.44274 24.0623771,-16.0735 36.7246601,-18.1976 12.6623209,-2.12414 24.7778779,0.88256 35.2524009,14.21151 -7.326685,-14.89696 -24.353089,-19.6372 -36.0047649,-18.70114 -12.915272,2.16657 -25.3696711,9.43453 -36.1601591,17.41177 -0.605439,-14.48134 -0.130748,-15.06715 4.951899,-22.24271 5.348311,-7.55048 15.5360431,-10.64093 27.4709881,-9.10617 23.6265889,3.03823 46.8288439,10.32655 51.7239329,47.71915 l 0.297029,2.39875 c 0.236185,7.58964 -3.071749,21.46659 -6.714318,35.65069 -0.91206,1.89701 -1.787636,3.88344 -2.625929,5.96097 -5.171126,13.00386 -6.04988,46.68106 -6.04988,64.78002 0,25.62749 6.008258,46.50129 18.023517,62.62303 9.581796,13.00387 21.786536,19.50663 36.615516,19.50663 9.885964,0 18.935434,-2.92804 27.148384,-8.78359 8.28901,-5.85554 15.05707,-15.24733 20.30423,-28.17516 5.24718,-12.92782 7.87092,-28.21278 7.87092,-45.85543 0,-17.49057 -4.36871,-50.93956 -9.69194,-64.0955 -5.3232,-13.232 -11.93913,-22.73693 -19.8479,-28.51643 -7.90877,-5.85554 -16.72999,-8.78358 -26.463874,-8.78358 -8.13662,0 -15.61385,1.83519 -22.43253,5.50658 -4.31224,0.5664 -8.14932,0.39064 -8.79737,-1.85585 -1.54961,-5.37182 -3.081682,-10.67921 -3.105872,-10.86566 -3.182152,-45.34926 16.726292,-76.51698 38.175342,-89.98878 10.890564,-6.84024 22.075354,-9.05498 30.683064,-6.61695 11.12766,3.15179 18.9237,16.0726 14.68258,22.14831 -2.90468,4.16124 -7.32813,8.15396 -12.5061,11.26396 -10.35598,6.22001 -26.12402,12.18521 -33.685694,3.75497 -4.9209,-5.48612 -6.30712,0.0339 -6.30223,-1.44179 0.0226,-6.87597 7.82231,-11.20439 11.705564,-14.61178 l 7.04576,-4.78471 c -0.13341,0.31458 -0.0518,0.73305 0.81629,1.06808 3.20031,1.23505 4.7411,-1.93884 4.32836,-3.12456 -0.21091,-0.60372 -0.75554,-1.18098 -1.311,-1.59326 -1.69857,-1.2608 -4.12368,-0.19281 -4.61751,-0.1869 -0.98762,0.0133 -1.73842,0.29682 -2.57282,0.66486 -1.66876,0.73579 -3.59154,1.96066 -5.819354,3.56812 -4.45566,3.21485 -10.01591,7.95473 -15.35431,12.98999 -5.33839,5.03528 -10.42582,10.34248 -13.89187,14.75045 -1.73301,2.20396 -3.06381,4.1472 -3.85627,5.94031 -0.39622,0.89657 -0.69181,1.75827 -0.68648,2.78723 0.006,1.02895 0.5843,2.38489 1.61982,3.0321 0.43889,0.27389 0.95857,0.38918 1.47229,0.32849 3.37611,-0.39413 6.72095,-2.47632 10.82631,-3.71563 4.10535,-1.23933 8.46482,-1.75111 12.97524,0.49764 12.058294,6.01203 26.735344,2.87702 38.062224,-3.9261 5.66342,-3.40159 10.53377,-7.74786 13.89088,-12.55727 3.35713,-4.80944 5.24362,-10.16257 4.49458,-15.43692 -2.00193,-14.09683 -9.80302,-22.88289 -20.07116,-25.79117 -10.26818,-2.90834 -22.65083,-0.20353 -34.347564,7.14312 -12.79453,8.03606 -24.69,21.90357 -32.32255,40.50818 2.5793,-23.34459 14.61211,-42.78834 10.03263,-62.80302 -6.80036,-29.72096 -36.958089,-56.87081 -80.7321229,-67.028111 -0.21896,-0.05101 -0.434476,-0.0687 -0.642227,-0.05805 z M 92.542366,274.34244 c 5.77949,0 10.266184,3.80297 13.460114,11.40756 4.41066,10.4183 8.32291,50.40611 8.32291,83.71425 0,15.66548 -1.25431,30.19063 -3.76384,43.57471 -1.8251,9.88598 -4.22061,16.34973 -7.18639,19.39158 -2.88974,3.04183 -6.122124,4.56243 -9.696274,4.56243 -5.47531,0 -9.69572,-3.3455 -12.66152,-10.03755 -4.71484,-10.79854 -7.07231,-29.20174 -7.07231,-55.20945 0,-31.10281 -0.0712,-70.2167 3.19873,-81.09129 3.34602,-10.87457 8.47839,-16.31224 15.39858,-16.31224 z"
       sodipodi:nodetypes="cccccscsccccccssccccscccsscccccccsccccscscssccscsccsssssccccscccssscccscssscccscccscsccscscs" />
    <g
       id="g5"
       transform="matrix(1.4500099,0,0,1.4500099,56.25419,141.2616)"
       style="opacity:0.25">
      <path
         style="baseline-shift:baseline;display:inline;overflow:visible;vector-effect:none;fill:#ff0010;fill-opacity:1;stroke:none;stroke-width:3.07133;stroke-linecap:square;stroke-linejoin:miter;stroke-opacity:1;enable-background:accumulate;stop-color:#000000"
         d="m 292.37972,4.0820133 c 9.16495,2.149132 17.28372,6.8255527 23.17966,12.5377867 14.99841,14.531082 22.98327,32.423131 19.34349,49.976487 -1.83049,8.827818 -6.53941,15.895865 -13.10754,21.229755 -6.56815,5.333889 -14.92494,9.041477 -24.41992,11.820451 -24.90101,7.288087 -45.33175,6.315267 -82.55997,4.579187 -0.17386,-1.98994 13.34353,-2.11555 15.33339,-2.29041 23.93919,-2.079552 47.3612,-4.015756 65.19329,-9.23489 8.91606,-2.609534 16.39344,-6.030668 21.89055,-10.49477 5.49712,-4.464131 9.09023,-9.862291 10.58648,-17.078168 C 330.83282,50.59356 324.32792,35.185229 310.52507,21.812478 303.98565,15.476798 293.6153,10.406965 282.68455,10.066473 256.06512,9.2372993 221.22973,50.712396 244.56247,21.698415 255.84023,7.7039553 269.93512,2.4250663 282.91095,2.8292683 c 3.24393,0.10104 6.41377,0.536361 9.46877,1.252745 z"
         id="path1"
         sodipodi:nodetypes="sssssccssssscss" />
      <path
         style="baseline-shift:baseline;display:inline;overflow:visible;vector-effect:none;fill:#ff0010;fill-opacity:1;stroke:none;stroke-width:3.07133;stroke-linecap:square;stroke-linejoin:miter;stroke-opacity:1;enable-background:accumulate;stop-color:#000000"
         d="m 225.84832,-5.4769147 c -9.26385,-1.672168 -18.57266,-0.609441 -26.25376,2.287528 -19.5396,7.369456 -33.98025,20.6114667 -37.62002,38.1648227 -1.83049,8.827818 -0.32017,17.185456 3.58562,24.691165 3.90579,7.505711 10.09939,14.230393 17.70658,20.555585 19.95014,16.588197 39.08324,23.819124 73.93239,37.028644 0.95074,-1.75674 -11.40222,-7.2467 -13.1585,-8.19834 C 222.90201,97.625831 202.18095,86.536344 187.89426,74.657224 180.75089,68.71769 175.2503,62.60551 171.98139,56.323732 c -3.26889,-6.281806 -4.41937,-12.663574 -2.92313,-19.879451 3.01367,-14.533883 15.10882,-26.085403 33.09087,-32.8673997 8.51941,-3.213157 20.05059,-3.741601 30.21552,0.2922 24.75442,9.8234437 40.22666,61.7300727 30.354,25.8307887 -4.78355,-17.32485 -15.6174,-27.7728347 -27.68413,-32.5613297 -3.01664,-1.19712 -6.09824,-2.058065 -9.1862,-2.615455 z"
         id="path3"
         sodipodi:nodetypes="sssssccssssscss" />
      <path
         style="baseline-shift:baseline;display:inline;overflow:visible;vector-effect:none;fill:#ff0010;fill-opacity:1;stroke:none;stroke-width:4.34624;stroke-linecap:square;stroke-linejoin:miter;stroke-opacity:1;enable-background:accumulate;stop-color:#000000"
         d="m 297.43985,-18.988173 c 12.96931,3.041237 24.45819,9.6588413 32.80152,17.7422213 21.22426,20.5629347 32.52364,45.8819757 27.37299,70.7217297 -2.59033,12.492246 -9.25392,22.494238 -18.54849,30.042226 -9.29459,7.547986 -21.12027,12.794596 -34.55662,16.727126 -35.23742,10.31337 -64.14896,8.93672 -116.83062,6.48 -0.24603,-2.81596 18.88243,-2.99371 21.69828,-3.24115 33.87636,-2.94278 67.02084,-5.6827 92.25503,-13.0683 12.61712,-3.69275 23.19835,-8.533998 30.97732,-14.85115 7.77897,-6.31719 12.86358,-13.956128 14.98092,-24.167316 4.26464,-20.566897 -4.94044,-42.371226 -24.47285,-61.2950047 -9.25394,-8.965622 -23.92902,-16.1399423 -39.39713,-16.6217733 -37.66914,-1.173362 -86.96471,57.518046 -53.94655,16.4603613 15.95916,-19.8035603 35.90485,-27.2737153 54.26694,-26.7017293 4.59048,0.14298 9.07613,0.759004 13.39926,1.772759 z"
         id="path4"
         sodipodi:nodetypes="sssssccssssscss" />
      <path
         style="baseline-shift:baseline;display:inline;overflow:visible;vector-effect:none;fill:#ff0010;fill-opacity:1;stroke:none;stroke-width:2.19103;stroke-linecap:square;stroke-linejoin:miter;stroke-opacity:1;enable-background:accumulate;stop-color:#000000"
         d="m 222.72037,10.528496 c -6.60865,-1.1928907 -13.24938,-0.434763 -18.72893,1.631882 -13.93919,5.257231 -24.24088,14.703834 -26.83743,27.226071 -1.30584,6.2976 -0.22839,12.259785 2.55792,17.614217 2.78631,5.354433 7.20472,10.151695 12.63155,14.663971 14.23205,11.833709 27.88125,16.992118 52.74198,26.415542 0.67825,-1.253228 -8.13414,-5.169664 -9.38703,-5.848542 -15.07989,-8.151565 -29.86192,-16.0626 -40.05377,-24.536942 -5.09594,-4.237152 -9.01997,-8.597468 -11.35194,-13.078769 -2.33197,-4.481324 -3.15271,-9.033958 -2.08531,-14.181631 2.14989,-10.368201 10.77835,-18.608839 23.6064,-23.44699 6.0776,-2.292205 14.30373,-2.669186 21.55519,0.20845 17.65935,7.007863 28.69695,44.037084 21.65398,18.427205 -3.4125,-12.359227 -11.14116,-19.812623 -19.74934,-23.228646 -2.15202,-0.854003 -4.35037,-1.468186 -6.55327,-1.865818 z"
         id="path5"
         sodipodi:nodetypes="sssssccssssscss" />
    </g>
  </g>
</svg>
